<?xml version="1.0" standalone="no"?>
<!DOCTYPE svg PUBLIC "-//W3C//DTD SVG 1.1//EN" "http://www.w3.org/Graphics/SVG/1.1/DTD/svg11.dtd" >
<svg xmlns="http://www.w3.org/2000/svg" xmlns:xlink="http://www.w3.org/1999/xlink" version="1.1">
<metadata>
Created by FontForge 20150318 at Mon Jul 13 06:24:46 2015
 By uniteet7
Copyright (c) 2014 Indian Type Foundry (info@indiantypefoundry.com)
</metadata>
<defs>
<font id="Tillana-Regular" horiz-adv-x="0" >
  <font-face 
    font-family="Tillana"
    font-weight="400"
    font-stretch="normal"
    units-per-em="1000"
    panose-1="2 0 0 0 0 0 0 0 0 0"
    ascent="800"
    descent="-200"
    x-height="540"
    cap-height="735"
    bbox="-479 -312 1873 1035.86"
    underline-thickness="50"
    underline-position="-50"
    unicode-range="U+000D-F03F3"
  />
<missing-glyph horiz-adv-x="750" 
d="M234 651v-601h282v601h-282zM180 0v701h390v-701h-390z" />
    <glyph glyph-name="uniFB01" unicode="fi" horiz-adv-x="483" 
d="M188 467l183 32q33 14 51.5 15t35.5 -15l-31 -105q-6 -50 -40 -394q-71 -7 -95 31q34 112 78 337l-2 70l-185 -15q-26 -221 -61 -423q-65 -6 -85 24q54 175 89 389l-127 -24q-27 34 2 70l132 1l1 7l-2 247q40 46 75.5 70t85.5 30q60 -6 101.5 -63.5t41.5 -116.5
q-19 -37 -94 -14q6 113 -53 141q-43 -10 -84 -43q1 -80 -17 -251z" />
    <glyph glyph-name="uniFB02" unicode="fl" horiz-adv-x="536" 
d="M127 440l4 273q86 85 217 100q67 -7 115 -33t68 -60l-38 -140q-25 -223 -67 -580q-73 -7 -95 31q72 285 104 509l-1 198q-44 16 -89 12q-81 -9 -142 -53q0 -84 -19 -250l132 31q14 -7 13.5 -28t-15.5 -42l-135 -7q-29 -236 -59 -401q-65 -6 -85 24q56 178 85 367
l-125 -24q-29 36 2 70l130 1v2z" />
    <glyph glyph-name="uF03DE" unicode="ff" horiz-adv-x="579" 
d="M617 456.5q0 -20.5 -15 -41.5l-188 -9q-25 -210 -59 -406q-65 -6 -85 24q54 175 87 379l-105 -5l-77 -9q-25 -205 -57 -389q-65 -6 -85 24q53 172 84 359l-122 -14q-27 34 2 70l129 1l4 27l-2 247q62 88 161 100q73 -15 109 -64q58 56 128 64q56 -9 95 -54t43 -98
q-19 -15 -43 -19.5t-40 5.5q-4 43 -17 66.5t-42 46.5q-43 -10 -84 -43q2 -89 -18 -261l184 28q13 -8 13 -28.5zM326 442l38 6l3 19l-2 218q-10 63 -80 76q-43 -9 -84 -43q1 -90 -20 -277z" />
    <glyph glyph-name="uF03DF" unicode="ft" horiz-adv-x="608" 
d="M559 424l-107 -6q-16 -106 -43 -351q79 22 130 58q23 1 29 -8t4 -30q-32 -28 -85.5 -52.5t-101.5 -34.5q-61 13 -70 52q51 198 82 363l-156 -8l-59 -7q-28 -229 -59 -400q-65 -6 -85 24q58 188 85 368l-125 -15q-29 36 2 70h130l4 266q91 90 230 100q101 -16 150 -93
l-38 -140q-6 -36 -16 -104l101 18q14 -7 13.5 -28t-15.5 -42zM297 448l109 19q8 48 12 73l-1 198q-65 20 -120 2q-43 -13 -91 -43q0 -84 -19 -249h110z" />
    <glyph glyph-name="uF03E0" unicode="tt" horiz-adv-x="624" 
d="M620 480l-151 -7q-2 -16 -46 -406q78 22 129 58q23 1 29 -8t4 -30q-32 -28 -85.5 -52.5t-101.5 -34.5q-46 9 -66 42q49 222 85 428l-83 -4l-118 -14q-7 -64 -22.5 -192t-23.5 -195q42 11 93 35q44 -2 28 -45q-69 -37 -145 -55q-61 13 -70 52q75 335 86 393l-126 -15
q-27 34 2 70l133 2v167q59 41 100 10l-50 -173v-3l89 1l114 17l-1 148q59 41 100 10l-46 -150l145 22q14 -8 13.5 -28.5t-15.5 -42.5z" />
    <glyph glyph-name=".notdef" horiz-adv-x="750" 
d="M234 651v-601h282v601h-282zM180 0v701h390v-701h-390z" />
    <glyph glyph-name="uF0001" unicode="&#xf0001;" 
 />
    <glyph glyph-name="uF0002" unicode="&#xf0002;" horiz-adv-x="333" 
 />
    <glyph glyph-name="uni0000" 
 />
    <glyph glyph-name="uni000D" unicode="&#xd;" horiz-adv-x="432" 
 />
    <glyph glyph-name="space" unicode=" " horiz-adv-x="432" 
 />
    <glyph glyph-name="exclam" unicode="!" horiz-adv-x="285" 
d="M115 13q-28 -16 -47.5 -16t-31.5 11.5t-13 30.5q5 27 31 53t51 29q18 0 35.5 -22.5t19.5 -46.5q-17 -23 -45 -39zM230 631l-91 -433q-19 -13 -43 4l40 187l58 471q36 7 60 1.5t47 -29.5z" />
    <glyph glyph-name="quotedbl" unicode="&#x22;" horiz-adv-x="303" 
d="M255 673l44 219q16 10 32.5 9.5t25.5 -9.5l-11 -76l-52 -154q-28 -3 -39 11zM125 673l45 219q15 10 31.5 9.5t26.5 -9.5l-12 -76l-52 -154q-26 -3 -39 11z" />
    <glyph glyph-name="numbersign" unicode="#" horiz-adv-x="675" 
d="M665 576l-129 -2l-60 -283l147 11q27 -16 -10 -61l-145 -2l-34 -260q-43 -14 -86 20l55 239l-163 -2l-33 -257q-43 -14 -86 20l54 236l-117 -2q-22 21 6 59l123 -5l37 159l22 124l-136 -2q-22 19 4 58l141 -5l42 242q59 10 98 -20l-74 -225l66 -2l94 7l43 240
q59 10 98 -20l-71 -215l123 9q26 -16 -9 -61zM450 446l23 127l-165 -2l-61 -286l89 -4l78 6z" />
    <glyph glyph-name="dollar" unicode="$" horiz-adv-x="565" 
d="M384 672l-15 -41l-38 -228q76 -45 125 -84.5t70 -86.5q-12 -82 -78 -141.5t-185 -85.5l-22 -134q-51 -12 -75 37l36 108q-67 31 -119.5 85t-61.5 101q20 28 37.5 34t46.5 -4q20 -61 43.5 -94t72.5 -66l16 50l43 235q-83 47 -133.5 91.5t-59.5 99.5q30 75 107 129t157 65
l22 119q49 16 71 -30l-40 -106q90 -50 135 -142q-3 -19 -22.5 -31t-48.5 -9q-31 83 -84 129zM319 335l-46 -276q78 24 127 70t49 100q-1 23 -33 47t-97 59zM293 425l48 262q-64 -19 -120.5 -64t-55.5 -76t33 -58t95 -64z" />
    <glyph glyph-name="percent" unicode="%" horiz-adv-x="657" 
d="M325 377l227 454q58 7 76 -22l-502 -889q-48 -9 -68 18zM514 366q-57 -41 -79 -165q-14 -77 -8 -130q8 -28 40 -41q55 43 78 167q13 79 9 129q-9 30 -40 40zM554.5 50q-41.5 -55 -90 -55t-81 50.5t-16.5 149.5q17 92 59 151.5t91 58.5t80.5 -54t15 -149.5t-58 -151.5z
M222 689q-56 -41 -78 -165q-14 -75 -9 -130q8 -27 40 -41q56 43 79 166q14 82 8 130q-9 31 -40 40zM263 373q-41 -55 -90 -55t-81 50t-16 145.5t58.5 155.5t91.5 59t80.5 -54t14.5 -149.5t-58 -151.5z" />
    <glyph glyph-name="ampersand" unicode="&#x26;" horiz-adv-x="603" 
d="M278 14q28 7 42 -3l1 -147q-28 -15 -44 -16t-37 13zM413 705q-29 -7 -43 3l-1 147q29 16 45 17t36 -13zM411 650q45 0 81.5 -21.5t57.5 -53.5q0 -39 -65 -50l-61 82q-77 -2 -129 -34t-95 -85q20 -31 47 -48.5t74 -31.5q30 6 81 21q35 -20 20 -65q-92 -12 -148.5 -38
t-96.5 -86q11 -39 44.5 -67t78.5 -40q136 41 199 118q30 8 45.5 -9t7.5 -43q-102 -81 -254 -118q-83 16 -136.5 59t-69.5 89q32 66 71.5 96t105.5 51q-62 13 -104.5 44.5t-50.5 67.5q57 80 134.5 121t162.5 41z" />
    <glyph glyph-name="quotesingle" unicode="'" horiz-adv-x="174" 
d="M125 673l45 219q15 10 31.5 9.5t26.5 -9.5l-12 -76l-52 -154q-26 -3 -39 11z" />
    <glyph glyph-name="parenleft" unicode="(" horiz-adv-x="498" 
d="M400 714q-52 -68 -89.5 -175t-45.5 -217.5t13 -186t87 -163.5q-25 -27 -55 -22q-67 82 -101 176t-25 217q12 156 95.5 291t212.5 214q32 0 45 -30z" />
    <glyph glyph-name="parenright" unicode=")" horiz-adv-x="498" 
d="M51 -51q-31 0 -45 30l138 104q52 69 89 176t43 195q11 133 -10 208t-88 163q25 26 55 23q143 -172 127 -394q-13 -156 -96.5 -291t-212.5 -214z" />
    <glyph glyph-name="asterisk" unicode="*" horiz-adv-x="353" 
d="M294 789l114 13q7 -24 -6 -48l-108 13l79 -70q-12 -25 -39 -35l-60 90l-1 -112q-24 -9 -48 0l26 110l-79 -87q-21 10 -31 35l95 69l-112 -13q-6 25 7 48l111 -13l-82 71q16 25 39 34l59 -87l1 109q25 8 49 0l-27 -110l80 87q22 -9 30 -34z" />
    <glyph glyph-name="plus" unicode="+" horiz-adv-x="670" 
d="M382 354l216 13q12 -7 8 -27.5t-23 -41.5l-213 -3l-45 -230q-12 -8 -29 -1.5t-32 25.5l47 205l-219 -3q-23 23 11 65l220 -4l32 224q9 11 28.5 2.5t36.5 -32.5z" />
    <glyph glyph-name="comma" unicode="," horiz-adv-x="205" 
d="M134 42q-16 -49 -61 -95.5t-92 -75.5q-25 6 -34 23l79 80v129q40 20 70.5 0.5t37.5 -61.5z" />
    <glyph glyph-name="hyphen" unicode="-" horiz-adv-x="497" 
d="M458 367q12 -7 8 -27.5t-23 -41.5l-384 -7q-22 22 11 65l185 -4z" />
    <glyph glyph-name="period" unicode="." horiz-adv-x="221" 
d="M92.5 16.5q-26.5 -16.5 -46 -16.5t-32.5 12t-16 30q2 27 25 53t48 29q18 0 38 -22.5t25 -46.5q-15 -22 -41.5 -38.5z" />
    <glyph glyph-name="slash" unicode="/" horiz-adv-x="457" 
d="M241 377l227 454q58 7 76 -22l-502 -889q-48 -9 -68 18z" />
    <glyph glyph-name="zero" unicode="0" horiz-adv-x="545" 
d="M326 684q-134 -86 -173 -321q-24 -152 -5 -249q26 -55 103 -78q66 41 110 125t65.5 215.5t2.5 229.5q-26 56 -103 78zM238 -4q-75 0 -133 80q-62 85 -35 277q29 164 104 270t163 104.5t143.5 -96t27.5 -264.5q-31 -174 -104.5 -272.5t-165.5 -98.5z" />
    <glyph glyph-name="one" unicode="1" horiz-adv-x="319" 
d="M257 528l-78 -352l-13 -177q-43 -7 -86 19l128 566l20 62l-13 4l-69 -105q-39 -13 -47 9l85 179q51 9 80 -1t54 -41z" />
    <glyph glyph-name="two" unicode="2" horiz-adv-x="478" 
d="M276 679q-59 0 -111 -72l40 -79q-11 -19 -41 -24q-45 37 -77 84q34 69 91 112.5t121.5 43.5t118 -81t53.5 -168t-159 -221l-243 -204l6 -6l330 13q8 -17 0 -42t-25 -41l-268 19l-66 -16q-47 25 -45 86l253 225q94 84 148 182q-14 85 -47 137t-79 52z" />
    <glyph glyph-name="three" unicode="3" horiz-adv-x="512" 
d="M158.5 701q57.5 43 128 43t136 -63.5t64.5 -143.5q-1 -30 -22.5 -52t-74.5 -49l-115 -58q60 -16 104 -36.5t75.5 -57t27.5 -82.5q-8 -80 -128.5 -131.5t-310.5 -72.5q-30 22 -21 48q156 28 243.5 58.5t153.5 84.5q-20 88 -218 158l13 43l200 133q-5 61 -51 105t-90 44
q-73 0 -128 -65l40 -79q-11 -19 -41 -24q-45 37 -77 84q34 70 91.5 113z" />
    <glyph glyph-name="four" unicode="4" horiz-adv-x="525" 
d="M437 738q51 0 88 -47l-61 -163l-58 -265l119 5q8 -18 2.5 -40t-20.5 -38l-116 5l-4 -19l-13 -177q-43 -7 -87 19l41 180l-34 2l-229 -6q-27 16 -35 57l365 482q19 5 42 5zM202 255l141 6l36 159l71 257l-13 4l-127 -167l-205 -261z" />
    <glyph glyph-name="five" unicode="5" horiz-adv-x="540" 
d="M467 286q0 -94 -80.5 -190t-170.5 -96t-172 41q-3 71 35 83l167 -76q139 85 163 237q-13 33 -39.5 51t-76.5 25l-122 18q-35 5 -46.5 23t-1.5 58l44 184q17 70 54 84l48 -16l231 28q23 -19 29 -44t-7 -40l-257 7l-99 -231l110 -5q97 -6 144 -39.5t47 -101.5z" />
    <glyph glyph-name="six" unicode="6" horiz-adv-x="571" 
d="M284.5 392q71.5 84 138 84t94.5 -40.5t11 -132.5q-11 -63 -51 -133.5t-94 -121t-101 -51.5q-68 -2 -125 39q-63 46 -80 156q-9 57 4 135q22 142 93.5 240t167 139t203.5 32q20 -25 -6 -77q-153 9 -244 -38q-46 -60 -67 -92.5t-44.5 -91.5t-37.5 -137q-10 -86 11 -145
q56 151 127.5 235zM390 411q-64 -45 -123.5 -132t-86.5 -170q36 -54 101 -51q42 3 99.5 81t70.5 140q17 55 4.5 93.5t-65.5 38.5z" />
    <glyph glyph-name="seven" unicode="7" horiz-adv-x="454" 
d="M451 732q67 -30 30 -100l-354 -630q-27 -16 -62 8l281 530l74 119l-3 5l-341 -8q-23 27 21 84l307 -24z" />
    <glyph glyph-name="eight" unicode="8" horiz-adv-x="531" 
d="M532 575q0 -29 -14 -48t-23.5 -28.5t-29.5 -24.5t-33.5 -24.5t-42.5 -28.5t-46 -31q62 -43 95.5 -84t31.5 -91.5t-29 -93.5t-65.5 -70.5t-83 -42.5t-82.5 -12q-71 2 -113.5 45t-38.5 102t37 96.5t144 124.5q-58 43 -89.5 81.5t-28.5 89t46 102t99 79.5q126 64 215 -30
q51 -54 51 -111zM413 184q-2 27 -24.5 55.5t-45 46.5t-66.5 50q-103 -88 -157 -159q-1 -69 41.5 -99t139.5 -21q72 47 112 127zM303 417q80 58 157 132q-9 122 -123 147q-44 -21 -90 -61t-68 -82q3 -36 34 -66.5t90 -69.5z" />
    <glyph glyph-name="nine" unicode="9" horiz-adv-x="572" 
d="M347 742q87 0 142.5 -92t34.5 -252.5t-108 -256t-265 -153.5q-16 9 -27 27t-12 37q169 39 271 120q58 106 73 235q9 91 -13 157q-55 -144 -125 -224.5t-130 -80.5t-92 46t-18 127q19 115 100.5 212.5t168.5 97.5zM216 324q62 44 119.5 126t85.5 163q-31 52 -83 65
q-48 -12 -110.5 -91t-75.5 -152q-3 -29 -4.5 -53.5t15.5 -41t53 -16.5z" />
    <glyph glyph-name="colon" unicode=":" horiz-adv-x="241" 
d="M167.5 378.5q-26.5 -16.5 -46 -16.5t-32.5 11.5t-17 30.5q3 27 26 53t48 29q18 0 37.5 -22.5t24.5 -46.5q-14 -22 -40.5 -38.5zM113.5 16.5q-26.5 -16.5 -46 -16.5t-32.5 11.5t-17 30.5q3 27 26 53t48 29q18 0 37.5 -22.5t24.5 -46.5q-14 -22 -40.5 -38.5z" />
    <glyph glyph-name="semicolon" unicode=";" horiz-adv-x="233" 
d="M145 42q-16 -49 -61 -95.5t-93 -75.5q-25 6 -33 23l79 80v129q40 20 70.5 0.5t37.5 -61.5zM167.5 378.5q-26.5 -16.5 -46 -16.5t-32.5 11.5t-17 30.5q3 27 26 53t48 29q18 0 37.5 -22.5t24.5 -46.5q-14 -22 -40.5 -38.5z" />
    <glyph glyph-name="less" unicode="&#x3c;" horiz-adv-x="593" 
d="M337 441l-200 -91l370 -200q-2 -18 -14 -32.5t-30 -19.5l-193 117l-200 103q-9 35 12 69l447 202q17 -12 21.5 -33.5t-5.5 -39.5z" />
    <glyph glyph-name="equal" unicode="=" horiz-adv-x="630" 
d="M565 283q12 -7 8 -27.5t-23 -41.5l-492 -8q-22 22 11 66l250 -4zM596 475q12 -7 8 -27.5t-23 -41.5l-491 -7q-23 23 10 65l250 -4z" />
    <glyph glyph-name="greater" unicode="&#x3e;" horiz-adv-x="593" 
d="M112 537q2 17 14 32t30 20l393 -220q9 -35 -12 -69l-235 -102l-212 -100q-17 11 -22 33t5 40l410 166l-196 116z" />
    <glyph glyph-name="question" unicode="?" horiz-adv-x="648" 
d="M208 13q-28 -16 -47.5 -16t-31 11.5t-13.5 30.5q5 27 31 53t51 29q18 0 35.5 -22.5t19.5 -46.5q-17 -23 -45 -39zM246 591q-20 -9 -30.5 -9t-22.5 17.5t-19.5 49.5t-1.5 63q84 65 173.5 100.5t167.5 35.5t109.5 -58t0.5 -146.5t-123.5 -143.5t-242.5 -91l-42 -243
q-23 -6 -30 -1.5t-7 21.5l2 214q13 41 58 68q275 54 329 204q23 73 -30 122q-158 -6 -304 -113z" />
    <glyph glyph-name="at" unicode="@" horiz-adv-x="900" 
d="M537 163l-131 -150q-77 1 -118 45t-42 122.5t36 164t99 140.5t126 55q59 -26 99 -97l1 4q3 66 16 99q40 1 59.5 -5.5t35.5 -26.5l-76 -149q-13 -80 -46 -286q89 46 152 114t84 148q-12 142 -69 221t-195 132q-199 -16 -334.5 -152t-135.5 -309q0 -73 26 -133t72 -102
q88 -80 206 -112q102 38 164 103q27 1 36 -9.5t9 -34.5q-55 -63 -205 -107q-167 33 -275 140t-108 265q0 129 78 244.5t198.5 182.5t246.5 67q95 0 173.5 -54.5t121 -140t42.5 -186t-90.5 -193.5t-213.5 -131q-30 30 -36.5 58t5.5 64zM322 181q0 -76 56 -109q91 90 176 170
l34 147q-16 34 -34 55t-51 43q-85 -35 -133 -117.5t-48 -188.5z" />
    <glyph glyph-name="A" unicode="A" horiz-adv-x="567" 
d="M449 339l102 21q12 -8 10.5 -28.5t-17.5 -42.5l-91 -5l21 -284q-61 -7 -86 25l-1 255l-134 -7l-60 -9l-121 -264q-65 -6 -83 24l122 228l-79 -12q-26 34 7 70l105 5l66 123l114 272q55 35 124 14l-15 -174zM218 319l169 8l-11 319l-9 -2z" />
    <glyph glyph-name="B" unicode="B" horiz-adv-x="585" 
d="M541 238q0 -109 -80 -197q-140 -50 -314 -41q-39 11 -58.5 27.5t-23.5 42.5q55 206 84 365l35 227l-36 -8q-21 14 -24.5 34t7.5 32q71 15 153 15q126 0 199 -54.5t72.5 -126.5t-28 -109t-97.5 -77l-1 -7q51 -15 96 -51q16 -33 16 -72zM157 55q151 -2 245 31q57 66 58 147
q0 27 -7 49q-45 40 -99 52.5t-151 2.5zM473 546q0 60 -56.5 98t-159.5 29l-50 -286q124 -2 202 33q4 4 16 13.5t14 12t10 10t9.5 12t6 13t5 17t2 21t1.5 27.5z" />
    <glyph glyph-name="C" unicode="C" horiz-adv-x="580" 
d="M200.5 542q-84.5 -107 -84.5 -216.5t43 -169t137 -94.5q52 22 103.5 58t78.5 69q23 6 36.5 -9t11.5 -33q-28 -36 -91.5 -78t-127.5 -69q-141 37 -202 116.5t-63 201.5q0 96 66 217q143 179 323 209q58 -22 93.5 -76t39.5 -111q-49 -38 -96 -21q-9 95 -52 143l-15 -1
q-116 -29 -200.5 -136z" />
    <glyph glyph-name="D" unicode="D" horiz-adv-x="618" 
d="M285 735q147 0 231 -90t87 -232q2 -117 -54 -213.5t-168 -158.5q-119 -40 -247 -41q-67 18 -84 62q76 252 109 437l2 163l-36 -8q-21 14 -24.5 34t7.5 32q71 15 177 15zM189 355l-39 -284q123 0 207 21q88 63 127 138t37 172q-3 123 -72.5 198.5t-191.5 65.5
q-57 -255 -68 -311z" />
    <glyph glyph-name="E" unicode="E" horiz-adv-x="497" 
d="M206 389q204 17 216 19q9 -13 6 -37t-17 -46q-144 10 -214 7l-70 -265q125 16 278 46q21 -10 20 -35t-16 -49l-291 -29q-76 21 -77 66q85 223 121 426l19 161q-14 9 -46 11q-18 33 0 51q162 16 391 13q20 -15 11 -53t-36 -60l-63 41q-90 14 -174 5l-29 -109z" />
    <glyph glyph-name="F" unicode="F" horiz-adv-x="500" 
d="M264 662l-29 -109l-24 -181q28 3 105.5 8.5t111.5 10.5q8 -12 4.5 -37t-17.5 -46q-145 10 -215 6q-22 -154 -38 -311q-19 -7 -49 0t-45 25q48 181 105 490l8 136q-14 9 -46 11q-18 33 0 51q162 16 391 13q20 -15 11 -53t-36 -60l-63 41q-90 14 -174 5z" />
    <glyph glyph-name="G" unicode="G" horiz-adv-x="616" 
d="M206 118q36 -26 103 -56q126 110 189 248l-4 5l-166 -28q-18 22 -19 43t17 36q107 -19 227 0q15 -30 18 -64t-10 -90.5t-23.5 -90.5t-39.5 -121q-51 -4 -67 26q72 147 88 221l-8 2q-63 -160 -191 -249q-144 43 -203.5 114t-61.5 191q-1 95 66 217q114 185 323 220
q58 -22 93.5 -76t39.5 -111q-49 -38 -96 -21q-9 93 -52 143l-15 -1q-117 -29 -201 -137.5t-84 -236t77 -184.5z" />
    <glyph glyph-name="H" unicode="H" horiz-adv-x="669" 
d="M174 710q41 25 63.5 25t41.5 -9l-75 -325l-2 -17l172 6l123 20q9 49 15 87l15 213q41 25 63.5 25t41.5 -9l-71 -306l74 12q12 -8 10 -28.5t-19 -41.5l-74 -6q-5 -45 -21 -165.5t-23 -190.5q-73 -7 -95 31q60 250 74 320l-280 -21l-11 -2q-40 -312 -42 -328q-71 -7 -95 31
q52 213 67 287l-58 -9q-24 34 10 70l61 2q9 47 20 116z" />
    <glyph glyph-name="I" unicode="I" horiz-adv-x="225" 
d="M137 710q41 25 63 25t42 -9l-75 -325q-5 -51 -23 -187.5t-26 -213.5q-73 -7 -95 31q73 300 99 466z" />
    <glyph glyph-name="J" unicode="J" horiz-adv-x="532" 
d="M308 672l-175 -15q-30 30 -9 58q268 14 479 6q11 -8 7 -26t-22 -35l-185 12l-67 -283q-5 -46 -19.5 -155.5t-21.5 -173.5q-13 -29 -47.5 -44.5t-71.5 -15.5q-61 35 -100.5 88t-47.5 101q17 27 38.5 36.5t41.5 -1.5q9 -93 86 -164l14 7q70 315 91 438z" />
    <glyph glyph-name="K" unicode="K" horiz-adv-x="588" 
d="M151 710q41 25 63 25t42 -9l-75 -325l-1 -9l134 92l222 251q26 -4 38 -15t18 -33q-53 -63 -159.5 -156.5t-196.5 -150.5q89 -226 279 -304q19 -52 -45 -76q-82 45 -153.5 142.5t-121.5 217.5l-20 -16q-4 -31 -20 -151t-23 -193q-73 -7 -95 31q73 300 99 466z" />
    <glyph glyph-name="L" unicode="L" horiz-adv-x="446" 
d="M137 710q34 21 56 25t49 -9l-78 -352l-66 -310q124 15 289 47q20 -11 19 -34.5t-15 -45.5l-302 -31q-76 19 -77 63q59 156 112 434z" />
    <glyph glyph-name="M" unicode="M" horiz-adv-x="684" 
d="M618 723q34 12 56.5 12t37.5 -9l-75 -325q-5 -48 -23 -184t-26 -217q-72 -7 -96 31q63 253 100 466l1 60l-204 -351q-33 -6 -50 -2.5t-42 21.5q-76 137 -109 330l-30 -154q-5 -48 -23.5 -184t-26.5 -217q-73 -7 -95 31q73 300 99 466l15 223q27 14 57 14t42 -15
q7 -93 27 -202t45 -177l56 -78l147 232z" />
    <glyph glyph-name="N" unicode="N" horiz-adv-x="626" 
d="M554 710q41 25 63.5 25t41.5 -9l-78 -325q-5 -46 -24.5 -182.5t-28.5 -218.5q-62 -5 -94 24q-123 237 -235 587l-45 -210q-5 -50 -24 -186.5t-28 -214.5q-72 -7 -96 31q52 202 70 287.5t34 178.5l17 213q43 25 64 25t41 -9q71 -252 169 -491l62 -109q6 28 18 81.5
t19 86.5q21 101 37 203z" />
    <glyph glyph-name="O" unicode="O" horiz-adv-x="607" 
d="M515 359q-13 111 -41.5 190.5t-84.5 134.5q-117 -55 -188 -154t-71 -216q1 -82 37.5 -155.5t104.5 -106.5q97 56 152 129t91 178zM395 735q44 0 88.5 -56t73 -143t29.5 -173q1 -63 -53 -150t-129 -150t-130 -63t-108 50t-82.5 118.5t-30.5 128.5q-1 106 50.5 209t132 166
t159.5 63z" />
    <glyph glyph-name="P" unicode="P" horiz-adv-x="532" 
d="M282 735q126 0 192.5 -56t67.5 -133q4 -156 -140 -234q-107 -37 -211 -42q-10 -99 -34 -267q-19 -7 -49.5 -0.5t-45.5 22.5q36 132 87 424l26 218l-48 -5q-11 19 -8.5 36t14.5 22q65 15 149 15zM259 673l-57 -266q-4 -59 -7 -91q113 16 180 48q44 26 69.5 72t24.5 99
q-2 70 -53.5 108t-156.5 30z" />
    <glyph glyph-name="Q" unicode="Q" horiz-adv-x="630" 
d="M275 0q-56 0 -109 50t-82.5 118.5t-30.5 128.5q-1 106 50.5 209t132 166t159.5 63q44 0 88.5 -56t73 -143t29.5 -171t-84.5 -197.5t-172.5 -153.5l33 -56l93 -57q8 -48 -71 -62l-101 161h-8zM272 52q97 56 152 129t91 178q-13 111 -41.5 190.5t-84.5 134.5
q-117 -55 -188 -154t-71 -216q1 -82 37.5 -155.5t104.5 -106.5z" />
    <glyph glyph-name="R" unicode="R" horiz-adv-x="568" 
d="M280 737q124 0 187.5 -51.5t63.5 -125t-37.5 -124t-121.5 -96.5q-79 -10 -131 -12q34 -98 87 -154.5t154 -100.5q10 -22 -5.5 -42.5t-49.5 -30.5q-93 59 -147.5 145t-71.5 182l-15 -1q-12 -135 -43 -323q-19 -7 -49 -0.5t-46 22.5q31 112 44 176.5t19 90.5q12 60 29 163
l29 211l-51 -3q-11 19 -9 36t15 22q69 16 149 16zM200 413q0 -20 -3 -44q82 3 157 23q53 35 74 70.5t21 93t-47 93t-142 28.5z" />
    <glyph glyph-name="S" unicode="S" horiz-adv-x="565" 
d="M526 232q-13 -86 -84 -147t-201 -85q-77 24 -143 86t-77 116q20 28 37.5 34t46.5 -4q22 -69 50.5 -103.5t95.5 -75.5q86 21 142 69.5t56 106.5q-2 37 -121 103q-51 27 -103 57.5t-91.5 72.5t-46.5 86q32 79 114 134t165 62q119 -50 173 -161q-3 -19 -22.5 -31t-48.5 -9
q-22 58 -47 90t-62 59q-67 -15 -131 -63t-62.5 -82t49.5 -71t108 -68.5t121 -79.5t82 -96z" />
    <glyph glyph-name="T" unicode="T" horiz-adv-x="537" 
d="M291 670l-180 -13q-30 30 -8 58q218 14 500 10q11 -8 7 -26.5t-22 -35.5l-201 12l-65 -286q-7 -61 -23.5 -193t-23.5 -196q-71 -7 -95 30q67 258 104 475z" />
    <glyph glyph-name="U" unicode="U" horiz-adv-x="570" 
d="M248 0q-87 0 -139.5 54t-62.5 112q4 25 19.5 112.5t20 116.5t14.5 93q15 95 26 222q41 25 63.5 25t41.5 -9q-105 -351 -105 -552q0 -40 31 -73.5t80.5 -43.5t110.5 19q62 61 92 157t58 264v213q41 25 63.5 25t41.5 -9q-13 -57 -33.5 -171.5t-35 -185.5t-28.5 -122
t-37 -102t-51 -80q-64 -65 -170 -65z" />
    <glyph glyph-name="V" unicode="V" horiz-adv-x="536" 
d="M484 552l-13 154q73 31 113 0q7 -77 -38 -174q-32 -59 -102 -180.5t-107 -190.5l-57 -158q-64 -16 -103 19l-69 683q20 13 46 16.5t43 -8.5l19 -466l26 -180z" />
    <glyph glyph-name="W" unicode="W" horiz-adv-x="791" 
d="M746 555l-13 157q74 29 114 0q6 -84 -38 -176l-177 -372l-47 -160q-22 -8 -54 -3.5t-51 21.5l-35 323l-97 -184l-62 -158q-63 -16 -102 19l-75 689q19 13 45 16t44 -9l22 -471l25 -162l189 352l-21 203q44 36 87 18l13 -386l31 -203z" />
    <glyph glyph-name="X" unicode="X" horiz-adv-x="595" 
d="M327 403l235 331q28 2 44.5 -11.5t25.5 -46.5q-93 -88 -291 -309q111 -225 196 -298q2 -25 -18 -44t-56 -25q-41 47 -89 146.5t-66 175.5l-232 -322q-37 6 -52 22t-15 42q73 62 290 303q-90 189 -206 291q-6 62 65 75q57 -55 102 -144t67 -186z" />
    <glyph glyph-name="Y" unicode="Y" horiz-adv-x="567" 
d="M116 713q17 15 42.5 20.5t43.5 -5.5l36 -170l86 -220h3l21 39l164 221l-34 119q50 19 75.5 17.5t50.5 -20.5q0 -80 -45 -136q-110 -143 -196 -251q-32 -100 -44 -327q-15 -7 -44.5 -2t-50.5 21q38 107 60 284q-41 117 -168 410z" />
    <glyph glyph-name="Z" unicode="Z" horiz-adv-x="571" 
d="M90 41l-5 -5l8 -17q-17 -24 -76 -19q-14 24 -13.5 48.5t38.5 69t97.5 105t123 127.5t125 148t94.5 151l-7 8q-215 -2 -285 13q-29 -39 -32 -100q-67 -12 -85 23q24 109 99 142q52 -16 152.5 -25.5t169.5 -7.5l19 42q34 -1 48 -8t24 -23q-18 -72 -108.5 -198t-190.5 -236
t-180 -183l5 -9q252 0 317 -11q19 36 27 76q69 15 86 -26q-18 -68 -99 -126q-51 21 -163.5 32.5t-188.5 8.5z" />
    <glyph glyph-name="bracketleft" unicode="[" horiz-adv-x="505" 
d="M417 787l-65 -4l-47 -158l-73 -382l-35 -238l176 26q13 -21 -14 -50l-202 -40q-39 20 -49 49l102 426l69 424l251 6q4 -16 0 -28t-18 -37z" />
    <glyph glyph-name="backslash" unicode="\" horiz-adv-x="457" 
d="M64 839q5 21 24.5 31.5t34.5 3.5l131 -512l154 -472q-25 -27 -65 -8z" />
    <glyph glyph-name="bracketright" unicode="]" horiz-adv-x="531" 
d="M340 237l-15 -255l-284 -44q-26 41 -6 77l210 4l70 397l73 371l-189 -5q-14 17 -17.5 35.5t5.5 28.5l249 -14q27 -24 31 -68z" />
    <glyph glyph-name="asciicircum" unicode="^" horiz-adv-x="443" 
d="M53 415l209 331q47 11 71 -8l108 -329q-16 -14 -38 -15t-31 8l-94 299l-192 -307q-27 -3 -33 21z" />
    <glyph glyph-name="underscore" unicode="_" horiz-adv-x="626" 
d="M503 -51q12 -6 8 -27t-23 -42l-491 -7q-11 10 -8 28t19 37l249 -4z" />
    <glyph glyph-name="grave" unicode="`" horiz-adv-x="227" 
d="M193 787l81 -187q-5 -17 -34 -14l-51 73l-86 88q7 26 32 36.5t58 3.5z" />
    <glyph glyph-name="a" unicode="a" horiz-adv-x="501" 
d="M321 163l-131 -150q-77 1 -118 45t-42 122.5t36 164t99 140.5t126 55q59 -26 99 -97l1 3q3 66 16 100q71 0 95 -32l-75 -147q-18 -116 -38 -367q-68 -8 -102 29l45 125zM106 181q0 -76 56 -109q91 90 176 170l34 147q-16 34 -34 55t-51 43q-85 -35 -133 -117.5
t-48 -188.5z" />
    <glyph glyph-name="b" unicode="b" horiz-adv-x="491" 
d="M145 393l12 -13q64 84 145 160q81 -29 116 -77.5t55 -136.5q-31 -127 -122.5 -213t-231.5 -113q-77 27 -82 77q50 208 95 463l18 247q35 21 56.5 25t48.5 -8l-57 -228l-24 -129zM110 59q122 24 198 98.5t94 170.5q-9 56 -31.5 88.5t-68.5 52.5q-87 -83 -146 -160
q-27 -169 -46 -250z" />
    <glyph glyph-name="c" unicode="c" horiz-adv-x="483" 
d="M306 540q56 -9 94 -54t42 -98q-19 -16 -44 -20t-41 6q-2 43 -14.5 66.5t-41.5 46.5l-18 -2q-70 -34 -117.5 -99.5t-49.5 -121.5q-5 -80 19.5 -129t95.5 -78q47 16 94.5 41.5t71.5 50.5q21 1 27 -9.5t4 -31.5q-29 -32 -93.5 -66t-113.5 -42q-98 25 -143 92.5t-40 154.5
q3 50 19 95q42 69 106.5 125t142.5 73z" />
    <glyph glyph-name="d" unicode="d" horiz-adv-x="462" 
d="M322 164l-132 -151q-77 1 -118 45t-42 122.5t36 164t99 140.5t122 55t100 -86q12 56 18 86l5 247q38 21 59.5 25t48.5 -8l-58 -224q-39 -293 -86 -580q-66 -6 -86 24l45 130zM106 181q0 -76 56 -109q91 90 176 170l34 147q-22 46 -40.5 67.5t-39.5 35.5
q-86 -35 -136 -120.5t-50 -190.5z" />
    <glyph glyph-name="e" unicode="e" horiz-adv-x="481" 
d="M275 548q88 -23 124 -83.5t29 -143.5q-168 -80 -320 -112q6 -56 34 -92.5t88 -58.5q108 39 159 87q20 0 26 -9t4 -33q-20 -27 -83 -60t-109 -43q-99 22 -148 88.5t-47 159.5q1 40 19 99q86 145 224 201zM105 267v-8q126 32 254 89q0 57 -15.5 90t-61.5 56l-14 -3
q-66 -32 -113.5 -100t-49.5 -124z" />
    <glyph glyph-name="f" unicode="f" horiz-adv-x="346" 
d="M378 474.5q0 -20.5 -15 -41.5l-180 -10q-26 -221 -61 -423q-65 -6 -85 24q54 175 89 389l-127 -24q-27 34 2 70l132 1l1 7l-2 247q40 46 75.5 70t85.5 30q56 -9 95 -54t43 -98q-19 -15 -43 -19.5t-40 5.5q-4 43 -17 66.5t-42 46.5q-43 -10 -84 -43q1 -79 -17 -250l177 35
q13 -8 13 -28.5z" />
    <glyph glyph-name="g" unicode="g" horiz-adv-x="474" 
d="M321 163l-131 -150q-77 1 -118 45t-42 122.5t36 164t99 140.5t123 55t103 -94q3 66 16 100q71 0 94 -32l-83 -178q-23 -93 -42 -213t-34 -218t-21 -134q-14 -17 -52.5 -29.5t-70.5 -11.5q-69 34 -109.5 86.5t-47.5 102.5q18 27 40 37t41 -2q8 -99 92 -164q14 -1 27 7
q28 96 54 253l37 104zM106 181q0 -76 56 -109q91 90 176 170l34 147q-22 46 -40.5 67.5t-39.5 35.5q-86 -35 -136 -120.5t-50 -190.5z" />
    <glyph glyph-name="h" unicode="h" horiz-adv-x="507" 
d="M153 397l11 -14q84 115 188 157q54 -5 87 -42t41 -81l-36 -89q-19 -151 -28 -328q-62 -7 -89 25q26 167 68 388q-5 41 -42 56q-97 -42 -189 -160q-26 -167 -53 -309q-65 -6 -85 24q55 188 115 516l11 247q36 21 57 25t48 -8l-56 -231l-14 -131z" />
    <glyph glyph-name="i" unicode="i" horiz-adv-x="227" 
d="M113 368l-3 156q45 19 66 16t32 -16l-37 -130q-17 -145 -40 -394q-73 -7 -95 31q33 113 77 337zM209 600.5q-15 -15.5 -38 -15.5t-39 15.5t-17.5 38t14 37.5t38.5 15t38.5 -15t17 -37.5t-13.5 -38z" />
    <glyph glyph-name="j" unicode="j" horiz-adv-x="261" 
d="M-48 -46q12 -96 89 -164l13 7q8 53 31 219q44 317 100 530q70 0 95 -32l-85 -194q-37 -221 -59 -538q-9 -23 -43 -37.5t-70 -14.5q-62 35 -102 88t-48 101q16 27 38 37t41 -2zM295.5 602q-14.5 -14 -35 -14t-35.5 14t-16.5 35t13 35.5t35.5 14.5t36 -14.5t16 -35.5
t-13.5 -35z" />
    <glyph glyph-name="k" unicode="k" horiz-adv-x="486" 
d="M127 364l4 -8q128 108 274 184q24 -4 32.5 -25t-2.5 -45q-185 -74 -284 -157q82 -158 276 -246q10 -18 -3 -36.5t-43 -30.5q-66 38 -133.5 101.5t-116.5 135.5q-19 -100 -42 -237q-66 -6 -86 24q64 217 118 568l-10 190q39 36 97 29q-1 -82 -56 -412z" />
    <glyph glyph-name="l" unicode="l" horiz-adv-x="245" 
d="M144 540l12 247q35 21 56.5 25t47.5 -8l-58 -224q-25 -223 -67 -580q-73 -7 -95 31q68 266 104 509z" />
    <glyph glyph-name="m" unicode="m" horiz-adv-x="742" 
d="M388 0q-62 -7 -89 25q38 227 79 393q-17 41 -53 56q-42 -22 -77.5 -58.5t-90.5 -105.5q-30 -193 -52 -310q-64 -6 -86 24q56 186 88 348l-21 143q42 39 99 31q5 -24 -11 -109l-27 -49l9 -7q1 3 15.5 20t25.5 30.5t15.5 18t15.5 16t17.5 17t17.5 15t20 15.5q27 18 45 27
q44 -7 75.5 -30t44.5 -51l-26 -45l9 -6q75 89 157 132q59 -11 91.5 -45.5t35.5 -77.5l-36 -89q-19 -166 -28 -328q-61 -7 -88 25q21 138 68 388q-6 39 -42 56q-76 -28 -158 -124q-33 -99 -43 -345z" />
    <glyph glyph-name="n" unicode="n" horiz-adv-x="500" 
d="M147 388l9 -6q84 114 190 158q54 -5 86.5 -42t40.5 -81l-36 -89q-19 -166 -28 -328q-61 -7 -88 25q21 138 68 388q-6 41 -42 56q-96 -42 -190 -160q-22 -142 -52 -309q-64 -6 -86 24q56 186 88 348l-21 143q42 39 99 31q5 -24 -11 -109z" />
    <glyph glyph-name="o" unicode="o" horiz-adv-x="484" 
d="M28 230q0 65 42 142t102.5 129t110.5 52t108 -93t59.5 -158t-42 -135.5t-106 -118.5t-112.5 -48t-106 70t-56 160zM275 497q-80 -45 -121 -105.5t-59 -142.5q4 -67 26 -114t68 -86q89 38 135.5 96t63.5 146q-9 53 -39 110t-74 96z" />
    <glyph glyph-name="p" unicode="p" horiz-adv-x="491" 
d="M147 388l10 -7q59 80 144 159q89 -28 129.5 -85t50.5 -146q-22 -98 -87 -171.5t-181 -137.5q-50 11 -95 43q-23 -179 -54 -312q-64 -6 -86 24q77 296 129 617l-21 143q42 39 99 31q5 -24 -11 -109zM207 58q155 91 202 253q-10 119 -108 158q-90 -86 -145 -159
q-11 -70 -29 -206q31 -31 80 -46z" />
    <glyph glyph-name="q" unicode="q" horiz-adv-x="483" 
d="M324 168l-135 -155q-77 1 -118 45t-42 122.5t36 164t98.5 140.5t125.5 55q55 0 96 -83q4 60 16 89q70 0 95 -32l-76 -147q-20 -102 -49 -267t-48 -258l5 -5q99 99 116 115q25 5 28 -23q-21 -30 -75 -97t-79 -102q-85 11 -85 57q3 14 25 99q44 177 66 282zM105 181
q0 -76 56 -109q90 88 175 169l35 148h-1q-21 46 -39.5 67.5t-39.5 35.5q-86 -35 -136 -120.5t-50 -190.5z" />
    <glyph glyph-name="r" unicode="r" horiz-adv-x="382" 
d="M152 388l12 -8q55 72 131 160q41 -6 67 -39.5t26 -78.5q-51 -38 -90 -17q3 46 -19 55q-49 -56 -115 -142q-27 -178 -54 -318q-65 -6 -85 24q60 207 87 348l-20 143q22 22 44 29t54 2q5 -24 -11 -109z" />
    <glyph glyph-name="s" unicode="s" horiz-adv-x="464" 
d="M332 171q0 31 -122 83q-46 20 -89.5 52.5t-53.5 68.5q12 72 80 122t152 56q48 -21 78.5 -52.5t41.5 -86.5q-3 -16 -23.5 -23.5t-56.5 -0.5q-3 60 -47 117q-53 -15 -99.5 -53t-46.5 -64q0 -28 120 -83q46 -21 89.5 -57.5t53.5 -77.5q-17 -78 -79.5 -123t-161.5 -49
q-55 16 -98.5 61t-50.5 89q18 27 34.5 35.5t41.5 3.5q18 -94 81 -145q74 15 115 52t41 75z" />
    <glyph glyph-name="t" unicode="t" horiz-adv-x="372" 
d="M382 492l-163 -5q-7 -67 -23.5 -206.5t-24.5 -213.5q78 22 129 58q23 1 29 -8t4 -30q-32 -28 -85.5 -52.5t-101.5 -34.5q-61 13 -70 52q73 332 90 426l-126 -24q-27 34 2 70l130 1l-1 144q59 41 100 10l-46 -147l159 31q14 -8 13.5 -28.5t-15.5 -42.5z" />
    <glyph glyph-name="u" unicode="u" horiz-adv-x="501" 
d="M339 236v2q33 178 67 308q71 0 95 -32l-75 -147q-22 -143 -35 -367q-61 -7 -89 25l49 131l-12 10q-60 -78 -148 -166q-137 19 -163 94l51 173q15 170 13 279q31 4 50 -2.5t43 -28.5q-16 -142 -75 -404q13 -31 70 -48q100 90 159 173z" />
    <glyph glyph-name="v" unicode="v" horiz-adv-x="440" 
d="M355 517q71 41 104 2q-58 -306 -252 -519q-35 0 -64.5 12.5t-35.5 35.5q18 124 18.5 188t-20.5 146l-83 103q6 27 30 42t57 13q104 -141 77 -468l8 -5q147 185 185 339z" />
    <glyph glyph-name="w" unicode="w" horiz-adv-x="677" 
d="M441 70l7 -3q119 138 173 344l-27 111q69 43 104 5q-38 -300 -231 -527q-35 -2 -65 12t-36 36q29 144 18 263l-6 2q-46 -136 -184 -313q-35 0 -64.5 12.5t-35.5 35.5q19 116 21.5 185t-10.5 149l-83 103q6 27 30 42t57 13q99 -149 64 -468l8 -2q105 141 176 327l-61 94
q9 26 34.5 39t57.5 8q50 -121 61.5 -223.5t-8.5 -244.5z" />
    <glyph glyph-name="x" unicode="x" horiz-adv-x="519" 
d="M270 319l158 221q29 1 45 -12t26 -46q-72 -51 -145 -130q-23 -26 -72 -81q53 -126 156 -188q7 -28 -10 -50t-51 -33q-104 88 -127 231l-174 -231q-64 11 -70 64q95 73 233 215q-62 127 -155 174q-3 63 63 87q99 -80 123 -221z" />
    <glyph glyph-name="y" unicode="y" horiz-adv-x="470" 
d="M334 238q41 230 69 308q71 0 94 -32l-83 -167q-24 -113 -56.5 -320t-39.5 -251q-17 -24 -57.5 -36t-80.5 -10q-68 35 -108.5 87.5t-47.5 101.5q17 27 39.5 37t41.5 -2q8 -101 92 -164q28 -4 40 7q35 112 61 279l39 71l-12 11q-26 -32 -113 -112q-90 15 -131 41.5
t-52 65.5l49 143q6 50 8.5 131.5t-0.5 118.5q31 4 50.5 -2.5t42.5 -28.5q-14 -99 -26 -158.5t-44 -185.5q11 -26 29.5 -40t60.5 -26q94 71 135 133z" />
    <glyph glyph-name="z" unicode="z" horiz-adv-x="504" 
d="M114 87h91q76 0 143 -12q21 41 25 77q71 15 75 -29q-16 -74 -92 -123q-50 26 -126.5 35.5t-134.5 5.5l-4 -5l7 -17q-14 -24 -74 -19q-12 23 -12 51t26 57.5t69 63.5t90.5 71.5t99 91.5t84.5 110l-6 8q-92 -2 -205 23q-29 -43 -29 -101q-59 -14 -78 22q19 110 94 143
q142 -44 235 -42l17 42q35 -2 50 -10t25 -26q-6 -74 -134 -196q-99 -94 -166.5 -150t-74.5 -62z" />
    <glyph glyph-name="braceleft" unicode="{" horiz-adv-x="648" 
d="M396 856q63 0 146 -69q-2 -32 -31 -43l-117 67l-43 -25q65 -132 31 -237q-17 -56 -61.5 -91.5t-103.5 -40.5l-2 -12q104 -69 103 -176q-3 -121 -123 -227l31 -40l137 28q30 -22 19 -49q-86 -27 -149 -31q-82 26 -111 120q119 74 122 207q1 51 -28.5 91t-71.5 59l22 78
q57 0 103 49.5t51.5 121.5t-49.5 153q22 29 57 48t68 19z" />
    <glyph glyph-name="bar" unicode="|" horiz-adv-x="214" 
d="M175 951q40 26 62.5 26t42.5 -9l-129 -567q-5 -48 -34 -277t-37 -310q-73 -7 -95 32q51 208 121 651z" />
    <glyph glyph-name="braceright" unicode="}" horiz-adv-x="649" 
d="M420 535q-1 -51 28.5 -91.5t72.5 -59.5l-23 -78q-56 0 -102 -49.5t-51.5 -121.5t48.5 -153q-39 -61 -125 -72q-65 20 -146 74q2 34 31 43l117 -67l43 25q-65 132 -31 237q18 56 62.5 92t102.5 40l2 12q-103 68 -102 176q1 121 122 227l-31 40l-137 -28q-30 22 -19 50
q69 28 138 30q43 1 74.5 -33.5t47.5 -86.5q-119 -74 -122 -206z" />
    <glyph glyph-name="asciitilde" unicode="~" horiz-adv-x="648" 
d="M201 408q94 -15 145 -40q19 -9 60 -34l7 -1l85 69q26 4 43.5 -4.5t19.5 -24.5q-37 -52 -138 -92q-83 14 -129.5 31t-83.5 47l-7 -3l-70 -72q-28 -1 -46.5 8t-17.5 21q56 71 132 95z" />
    <glyph glyph-name="uni00A0" unicode="&#xa0;" horiz-adv-x="432" 
 />
    <glyph glyph-name="exclamdown" unicode="&#xa1;" horiz-adv-x="381" 
d="M228 564q28 16 47.5 16t31 -11.5t13.5 -30.5q-5 -27 -31 -53t-51 -29q-18 0 -35.5 22.5t-19.5 46.5q17 23 45 39zM113 -54l91 433q19 13 43 -4l-40 -187l-58 -471q-36 -7 -60 -1.5t-47 29.5z" />
    <glyph glyph-name="cent" unicode="&#xa2;" horiz-adv-x="483" 
d="M309 480l-74 -422q115 41 162 91q21 1 27 -9.5t4 -31.5q-29 -32 -91.5 -65t-111.5 -42l-23 -130q-50 -12 -75 37l47 108q-73 32 -106.5 94t-30 124.5t19.5 107.5q37 61 93 113.5t124 75.5l23 133q49 16 71 -30l-41 -99q47 -15 79 -57t36 -90q-19 -16 -44 -20t-41 6
q-2 40 -13 63t-35 43zM194 76l70 399q-63 -37 -104.5 -98t-44.5 -121.5t14 -105.5t65 -74z" />
    <glyph glyph-name="sterling" unicode="&#xa3;" horiz-adv-x="648" 
d="M454 59l49 45q68 -30 15 -104q-171 7 -341 31q-24 -29 -70 -31q-83 61 -17 114l53 -13q61 117 92 225l-129 -3q-17 20 6 58l135 -12q17 66 28 149l-31 138q74 86 182 100q56 -9 95 -54t44 -98q-19 -16 -43 -20t-40 6q-4 43 -17 66.5t-43 46.5q-73 -18 -104 -43
q19 -130 -12 -285l174 18q22 -13 -10 -61l-174 -4q-33 -134 -88 -247q117 -21 246 -22z" />
    <glyph glyph-name="currency" unicode="&#xa4;" horiz-adv-x="637" 
d="M294 111q-40 0 -84 42l-103 -110q-36 4 -47 18t-5 39l123 87q-46 63 -46 141t76 175l-123 107q-3 26 9.5 39t48.5 13l95 -125q81 84 150 84q35 0 81 -51l95 101q36 -4 47 -18t5 -40l-118 -82q55 -83 57 -147q1 -87 -98 -185l124 -88q13 -52 -52 -57l-107 114
q-72 -57 -128 -57zM293 156q89 36 135.5 89t62.5 134q-8 48 -38.5 100.5t-73.5 89.5q-81 -41 -122 -96.5t-58 -131.5q4 -63 26 -106t68 -79z" />
    <glyph glyph-name="yen" unicode="&#xa5;" horiz-adv-x="568" 
d="M542 357q0 -20 -15 -42l-168 -2q-12 -42 -22 -111l192 32q13 -8 13 -28.5t-15 -41.5l-196 -10q-7 -70 -12 -154q-15 -7 -44.5 -2t-50.5 21q19 52 34 127l-138 -26q-27 34 2 70l145 1q11 66 17 111l-164 -31q-27 36 2 70l148 1q-37 102 -154 371q17 15 42.5 20.5
t43.5 -5.5l36 -170l81 -233h3l17 40l173 233l-34 119q50 19 75.5 17.5t50.5 -20.5q0 -80 -45 -136q-58 -75 -103.5 -133.5t-64.5 -82.5l138 24q13 -9 13 -29z" />
    <glyph glyph-name="brokenbar" unicode="&#xa6;" horiz-adv-x="224" 
d="M63 297q28 14 58.5 14t44.5 -11l-71 -259q-1 -22 -9 -105t-11 -121q-48 -24 -99 12q51 198 60 256zM188 960q38 14 60.5 14t44.5 -8l-73 -265q-1 -23 -9 -104.5t-11 -119.5q-59 -9 -98 14q8 34 22 90q28 108 37 162z" />
    <glyph glyph-name="section" unicode="&#xa7;" horiz-adv-x="565" 
d="M134 287q0 -40 76 -84q62 -35 126 -64q66 40 95 76t30 79q0 26 -42 52q-34 21 -130 69q-155 -92 -155 -128zM172 577q0 -48 156 -119q61 -28 121.5 -71.5t80.5 -89.5q-22 -127 -151 -185q2 -1 14.5 -7t15.5 -7.5t14.5 -7.5t15.5 -9t13.5 -9t13.5 -10q23 -23 30 -39
q-24 -85 -92 -133.5t-185 -70.5q-69 26 -127 71t-74 88q29 58 69 44q23 -55 50 -85t92 -66q88 23 138.5 59.5t51.5 84.5q0 18 -51.5 45t-114.5 54t-120.5 73t-67.5 96q57 102 177 157q-46 27 -67.5 41t-47 40t-33.5 54q45 79 122.5 120t157.5 49q121 -51 171 -161
q-6 -34 -57 -34q-27 59 -54.5 90t-67.5 53q-50 -7 -122 -48.5t-72 -66.5z" />
    <glyph glyph-name="dieresis" unicode="&#xa8;" horiz-adv-x="280" 
d="M127 703q20 0 33.5 -13.5t13.5 -33t-14 -33.5t-33.5 -14t-33 14t-13.5 33.5t13.5 33t33.5 13.5zM289 703q20 0 33.5 -13.5t13.5 -33t-14 -33.5t-33.5 -14t-33 14t-13.5 33.5t13.5 33t33.5 13.5z" />
    <glyph glyph-name="copyright" unicode="&#xa9;" horiz-adv-x="755" 
d="M558 476q-16 -13 -37.5 -16.5t-34.5 4.5q-2 38 -13 58.5t-36 40.5l-16 -2q-60 -29 -101 -86t-44 -106q-3 -68 18.5 -110t82.5 -68q97 32 142 80q18 1 23.5 -8t3.5 -28q-25 -28 -80.5 -57t-97.5 -35q-85 20 -123.5 78.5t-34.5 133.5q3 45 17 82q35 60 90.5 108.5
t123.5 62.5q49 -7 81.5 -46t35.5 -86zM693 366q-12 181 -79 254q-59 64 -179 97q-146 -23 -231.5 -119t-105.5 -221q15 -139 72 -219t178 -121q82 9 146 40.5t103 79.5q74 91 96 209zM41 378q29 145 117 245q98 112 282 136q141 -23 214 -97q62 -64 84 -180q9 -49 13 -115
q-24 -138 -117 -241q-48 -53 -122.5 -87.5t-168.5 -43.5q-154 32 -226.5 136.5t-75.5 246.5z" />
    <glyph glyph-name="ordfeminine" unicode="&#xaa;" horiz-adv-x="387" 
d="M293 449l-94 -115q-61 1 -98 36t-38 90q-2 102 62.5 194t141.5 92q45 -19 78 -76l1 3q1 52 11 79q66 0 85 -26l-59 -115q-15 -114 -30 -287q-26 -3 -51.5 3t-37.5 20l35 98zM135 465q0 -31 9 -47.5t32 -28.5q15 14 39.5 38t46 45t41.5 41l26 112q-23 44 -60 67
q-63 -31 -98.5 -94.5t-35.5 -132.5z" />
    <glyph glyph-name="guillemotleft" unicode="&#xab;" horiz-adv-x="535" 
d="M449 220q7 -26 -6.5 -49.5t-32.5 -23.5l-156 207q0 20 8 35l120 88l99 81q22 -8 25 -29t-16 -52l-180 -118l58 -66zM255 220q7 -26 -6.5 -49.5t-32.5 -23.5l-157 207q0 18 9 35l103 88l98 81q22 -8 25.5 -29t-15.5 -52l-163 -118l58 -66z" />
    <glyph glyph-name="logicalnot" unicode="&#xac;" horiz-adv-x="893" 
d="M457 397l392 16q15 -10 9 -41l-38 -205q-26 -23 -64 11l37 165l-715 -7q-23 23 11 66z" />
    <glyph glyph-name="uni00AD" unicode="&#xad;" horiz-adv-x="497" 
d="M458 367q12 -7 8 -27.5t-23 -41.5l-384 -7q-22 22 11 65l185 -4z" />
    <glyph glyph-name="registered" unicode="&#xae;" horiz-adv-x="471" 
d="M308 739q98 -17 133.5 -70.5t41.5 -149.5q-15 -83 -71.5 -141.5t-158.5 -68.5q-86 18 -126.5 77t-42.5 139q36 189 224 214zM256 334q89 9 135.5 60.5t59.5 123.5q-7 84 -35 129.5t-111 67.5q-82 -13 -130 -67t-59 -124q8 -78 40 -122.5t100 -67.5zM231 656q30 5 65.5 5
t59 -19t23.5 -45q0 -49 -58 -80q-8 -1 -21 -2.5t-20 -2.5q12 -35 30.5 -54t54.5 -35q5 -8 -2 -16.5t-21 -12.5q-67 45 -79 117h-8q-5 -58 -15 -115q-21 -6 -34 9q21 70 44 228h-21q-9 16 2 23zM346 596q0 46 -67 41l-21 -93l-1 -14q21 0 56 8q33 23 33 58z" />
    <glyph glyph-name="macron" unicode="&#xaf;" horiz-adv-x="335" 
d="M384 680q26 -15 -15 -61l-286 -8q-20 20 11 59l152 -5z" />
    <glyph glyph-name="degree" unicode="&#xb0;" horiz-adv-x="405" 
d="M278 719q-78 -45 -98 -140q5 -71 51 -115q48 23 73 56t34 83q-9 68 -60 116zM289 757q36 0 77 -54.5t43 -96.5q1 -53 -65 -113.5t-122 -60.5q-35 0 -74.5 41t-39.5 97t63 121.5t118 65.5z" />
    <glyph glyph-name="plusminus" unicode="&#xb1;" horiz-adv-x="676" 
d="M402 462l216 13q12 -7 8 -27.5t-23 -41.5l-213 -3l-31 -161q-27 -18 -62 24l33 136l-219 -3q-22 22 11 65l220 -4l20 159q9 10 28.5 2t36.5 -31zM577 207q12 -6 8 -27t-23 -42l-492 -7q-23 23 11 66l249 -5z" />
    <glyph glyph-name="uni00B2" unicode="&#xb2;" horiz-adv-x="276" 
d="M212 681q-34 0 -63 -35l17 -39q-6 -11 -22 -13q-26 19 -54 63q18 38 50 62.5t68 24.5t66.5 -45.5t30.5 -86.5t-19.5 -70t-61.5 -65l-114 -94l3 -3l157 7q4 -11 -0.5 -33t-15.5 -30l-150 11l-37 -10q-12 7 -24 28t-11 38l142 126q58 52 87 106q-12 58 -49 58z" />
    <glyph glyph-name="uni00B3" unicode="&#xb3;" horiz-adv-x="295" 
d="M202 683q-38 0 -65 -32l19 -36q-7 -11 -25 -15q-30 22 -52 57q20 39 51.5 63t71 24t76.5 -35.5t36 -81.5q-1 -16 -13 -28.5t-42 -27.5l-49 -24q49 -14 79 -37t26 -59q-4 -45 -77 -79.5t-173 -45.5q-8 6 -11.5 18.5t-1.5 20.5q78 18 124.5 37.5t79.5 50.5q-8 20 -30.5 35
t-72.5 34l8 36l93 72q-9 53 -52 53z" />
    <glyph glyph-name="acute" unicode="&#xb4;" horiz-adv-x="171" 
d="M162 770q32 9 65.5 -3t34.5 -29l-159 -156q-30 0 -33 17l62 93z" />
    <glyph glyph-name="mu" unicode="&#xb5;" horiz-adv-x="501" 
d="M339 236v2q33 178 67 308q71 0 95 -32l-75 -147q-22 -143 -35 -367q-61 -7 -89 25l49 131l-12 10q-60 -78 -148 -166q-62 5 -105 31q-37 -153 -68 -285q-24 -12 -45.5 -6t-35.5 26q119 372 149 523q6 58 6 257q31 4 50 -2.5t43 -28.5q-11 -109 -81 -408q29 -31 76 -44
q100 90 159 173z" />
    <glyph glyph-name="paragraph" unicode="&#xb6;" horiz-adv-x="594" 
d="M527 734l21 95q59 11 98 -19l-81 -192l-70 -371q-17 -118 -33 -247q-40 -15 -86 19l82 349l57 311q-48 2 -74 -4l-100 -428l-32 -247q-40 -14 -87 19q19 81 72 308q-113 14 -167.5 56.5t-46.5 116.5t44.5 122t99.5 72t134 32.5t169 7.5z" />
    <glyph glyph-name="periodcentered" unicode="&#xb7;" horiz-adv-x="243" 
d="M152.5 264.5q-26.5 -16.5 -46 -16.5t-32.5 12t-16 30q2 27 25 53t48 29q18 0 38 -22.5t25 -46.5q-15 -22 -41.5 -38.5z" />
    <glyph glyph-name="cedilla" unicode="&#xb8;" horiz-adv-x="311" 
d="M92 -81q32 30 67.5 30t54 -25.5t10.5 -68.5t-45 -69t-86 -26t-91 18.5t-68 50.5q2 35 22 37q54 -54 114.5 -54t72.5 48q5 24 -8 43q-35 -4 -65 -30q-36 0 -45 27l56 119h63z" />
    <glyph glyph-name="uni00B9" unicode="&#xb9;" horiz-adv-x="197" 
d="M208 620l-43 -197l-7 -99q-44 -7 -73 11l69 305l14 40l-7 4l-39 -54q-9 -4 -27 -2.5t-19 7.5l47 100q31 6 69 -0.5t50 -22.5z" />
    <glyph glyph-name="ordmasculine" unicode="&#xba;" horiz-adv-x="389" 
d="M115 382q-44 53 -44 127t65 155t137 81q44 0 89 -68.5t47 -123.5q1 -69 -70.5 -146.5t-135.5 -77.5q-44 0 -88 53zM262 702q-98 -68 -118 -184q4 -83 64 -145q57 28 88 70.5t41 106.5q-14 86 -75 152z" />
    <glyph glyph-name="guillemotright" unicode="&#xbb;" horiz-adv-x="535" 
d="M114 485q-6 27 7 50t32 23l157 -207q0 -21 -9 -35l-120 -88l-98 -81q-48 18 -10 81l181 119l-59 66zM309 485q-7 27 6.5 50t32.5 23l156 -207q0 -20 -8 -35l-103 -88l-98 -81q-49 19 -10 81l163 119l-58 66z" />
    <glyph glyph-name="onequarter" unicode="&#xbc;" horiz-adv-x="673" 
d="M515 408q64 0 84 -25l-34 -91l-30 -137l71 2q4 -9 -2 -27t-15 -27l-65 2l-2 -10l-8 -99q-36 -8 -67 10l23 101l-19 1l-115 -3q-29 13 -36.5 19t-8.5 12l200 270q18 2 24 2zM365 148l116 5l18 78l38 141l-8 2l-69 -99zM294 377l227 454q58 7 76 -22l-502 -889
q-48 -9 -68 18zM193 684l-39 -54q-9 -4 -27 -2.5t-19 7.5l47 100q31 6 69 -0.5t50 -22.5l-34 -92l-43 -197l-7 -99q-44 -7 -73 11l69 305l14 40z" />
    <glyph glyph-name="onehalf" unicode="&#xbd;" horiz-adv-x="671" 
d="M294 377l227 454q58 7 76 -22l-502 -889q-48 -9 -68 18zM241 620l-43 -197l-7 -99q-44 -7 -73 11l69 305l14 40l-7 4l-39 -54q-9 -4 -27 -2.5t-19 7.5l47 100q31 6 69 -0.5t50 -22.5zM531 332q-34 0 -63 -35l17 -39q-6 -11 -22 -13q-26 19 -54 63q18 38 50 62.5t68 24.5
t66.5 -45.5t30.5 -86.5t-19.5 -70t-61.5 -65l-114 -94l3 -3l157 7q4 -11 -0.5 -33t-15.5 -30l-150 11l-37 -10q-12 7 -24 28t-11 38l142 126q58 52 87 106q-12 58 -49 58z" />
    <glyph glyph-name="threequarters" unicode="&#xbe;" horiz-adv-x="648" 
d="M563 408q64 0 84 -25l-35 -91l-30 -137l71 2q4 -9 -2 -27t-15 -27l-65 2l-2 -10l-7 -99q-37 -8 -67 10l23 101l-19 1l-116 -3q-2 1 -15 7q-28 14 -30 24l201 270q18 2 24 2zM413 148l115 5l18 78l38 141l-7 2l-69 -99zM341 377l227 454q58 7 76 -22l-502 -889
q-48 -9 -68 18zM202 683q-38 0 -65 -32l19 -36q-7 -11 -25 -15q-30 22 -52 57q20 39 51.5 63t71 24t76.5 -35.5t36 -81.5q-1 -16 -13 -28.5t-42 -27.5l-49 -24q49 -14 79 -37t26 -59q-4 -45 -77 -79.5t-173 -45.5q-8 6 -11.5 18.5t-1.5 20.5q78 18 124.5 37.5t79.5 50.5
q-8 20 -30.5 35t-72.5 34l8 36l93 72q-9 53 -52 53z" />
    <glyph glyph-name="questiondown" unicode="&#xbf;" horiz-adv-x="648" 
d="M401 572q28 16 47.5 16t31.5 -11.5t13 -30.5q-5 -27 -31 -53t-51 -29q-18 0 -35.5 22.5t-19.5 46.5q17 23 45 39zM363 -6q19 9 30 9t23 -17.5t19.5 -49.5t1.5 -63q-84 -65 -173.5 -100.5t-167.5 -35.5t-109.5 58t-0.5 146.5t123.5 143.5t242.5 91l42 243q23 6 30 1.5
t7 -21.5l-2 -214q-13 -41 -58 -68q-275 -54 -329 -204q-23 -73 30 -122q158 6 304 113z" />
    <glyph glyph-name="Agrave" unicode="&#xc0;" horiz-adv-x="567" 
d="M449 339l102 21q12 -8 10.5 -28.5t-17.5 -42.5l-91 -5l21 -284q-61 -7 -86 25l-1 255l-134 -7l-60 -9l-121 -264q-65 -6 -83 24l122 228l-79 -12q-26 34 7 70l105 5l66 123l114 272q55 35 124 14l-15 -174zM218 319l169 8l-11 319l-9 -2zM417 788l-51 73l-86 88
q7 26 32 36.5t58 3.5l81 -187q-5 -17 -34 -14z" />
    <glyph glyph-name="Aacute" unicode="&#xc1;" horiz-adv-x="567" 
d="M449 339l102 21q12 -8 10.5 -28.5t-17.5 -42.5l-91 -5l21 -284q-61 -7 -86 25l-1 255l-134 -7l-60 -9l-121 -264q-65 -6 -83 24l122 228l-79 -12q-26 34 7 70l105 5l66 123l114 272q55 35 124 14l-15 -174zM218 319l169 8l-11 319l-9 -2zM612 940l-159 -156q-30 0 -33 17
l62 93l30 78q32 9 65.5 -3t34.5 -29z" />
    <glyph glyph-name="Acircumflex" unicode="&#xc2;" horiz-adv-x="567" 
d="M449 339l102 21q12 -8 10.5 -28.5t-17.5 -42.5l-91 -5l21 -284q-61 -7 -86 25l-1 255l-134 -7l-60 -9l-121 -264q-65 -6 -83 24l122 228l-79 -12q-26 34 7 70l105 5l66 123l114 272q55 35 124 14l-15 -174zM218 319l169 8l-11 319l-9 -2zM455 903l-126 -111q-28 4 -30 26
l141 130q44 11 70 -8l66 -138q-16 -14 -38 -15t-32 8z" />
    <glyph glyph-name="Atilde" unicode="&#xc3;" horiz-adv-x="567" 
d="M498 839l59 69q21 4 34 -5t8 -24q-29 -50 -111 -92q-51 17 -78.5 34t-43.5 43l-5 -2l-52 -71q-18 -1 -31 8t-12 21q15 21 27 35t37.5 32.5t55.5 27.5q81 -33 108 -75zM449 339l102 21q12 -8 10.5 -28.5t-17.5 -42.5l-91 -5l21 -284q-61 -7 -86 25l-1 255l-134 -7l-60 -9
l-121 -264q-65 -6 -83 24l122 228l-79 -12q-26 34 7 70l105 5l66 123l114 272q55 35 124 14l-15 -174zM218 319l169 8l-11 319l-9 -2z" />
    <glyph glyph-name="Adieresis" unicode="&#xc4;" horiz-adv-x="567" 
d="M449 339l102 21q12 -8 10.5 -28.5t-17.5 -42.5l-91 -5l21 -284q-61 -7 -86 25l-1 255l-134 -7l-60 -9l-121 -264q-65 -6 -83 24l122 228l-79 -12q-26 34 7 70l105 5l66 123l114 272q55 35 124 14l-15 -174zM218 319l169 8l-11 319l-9 -2zM373 825q-14 -14 -33.5 -14
t-33 14t-13.5 33.5t13.5 33t33.5 13.5t33.5 -13.5t13.5 -33t-14 -33.5zM535 825q-14 -14 -33.5 -14t-33 14t-13.5 33.5t13.5 33t33.5 13.5t33.5 -13.5t13.5 -33t-14 -33.5z" />
    <glyph glyph-name="Aring" unicode="&#xc5;" horiz-adv-x="567" 
d="M430.5 954.5q34.5 30.5 75 30.5t58 -29t3 -70t-50 -71.5t-75.5 -30.5t-57.5 29t-3.5 72q16 39 50.5 69.5zM488 955q-6 0 -28 -11q-16 -22 -28 -59q-23 -71 25 -71q14 0 32 12q18 26 25 59q21 70 -26 70zM449 339l102 21q12 -8 10.5 -28.5t-17.5 -42.5l-91 -5l21 -284
q-61 -7 -86 25l-1 255l-134 -7l-60 -9l-121 -264q-65 -6 -83 24l122 228l-79 -12q-26 34 7 70l105 5l66 123l114 272q55 35 124 14l-15 -174zM218 319l169 8l-11 319l-9 -2z" />
    <glyph glyph-name="AE" unicode="&#xc6;" horiz-adv-x="757" 
d="M370 644l-138 -285l136 3l10 284zM617 731q77 0 127 -3q21 -15 10.5 -53t-41.5 -60l-55 49q-69 11 -171 -1l-30 -86l-15 -208q125 6 216 20q20 -35 -9 -83q-69 6 -107 6t-110 -7l-30 -181v-61q57 1 134.5 16.5t127.5 33.5q24 -9 25.5 -37t-10.5 -47q-149 -29 -274 -29
q-33 0 -43 5.5t-13.5 7t-9.5 7.5t-8 8.5t-9.5 10.5t-9.5 11l54 259l-160 -6l-148 -303q-66 -6 -82 24l154 274l-88 -6q-24 34 9 70l114 -1l43 67l119 277q105 26 290 26z" />
    <glyph glyph-name="Ccedilla" unicode="&#xc7;" horiz-adv-x="580" 
d="M200.5 542q-84.5 -107 -84.5 -216.5t43 -169t137 -94.5q52 22 103.5 58t78.5 69q23 6 36.5 -9t11.5 -33q-25 -32 -76.5 -68t-109.5 -64l-50 -96q32 30 67.5 30t54 -25.5t10.5 -68.5t-45 -69t-86 -26t-91 18.5t-68 50.5q2 35 22 37q54 -54 114.5 -54t72.5 48q5 24 -8 43
q-35 -4 -65 -30q-36 0 -45 27l51 109q-122 40 -176 117t-56 192q0 96 66 217q143 179 323 209q58 -22 93.5 -76t39.5 -111q-49 -38 -96 -21q-9 95 -52 143l-15 -1q-116 -29 -200.5 -136z" />
    <glyph glyph-name="Egrave" unicode="&#xc8;" horiz-adv-x="497" 
d="M301 989l81 -187q-5 -17 -34 -14l-51 73l-86 88q7 26 32 36.5t58 3.5zM206 389q204 17 216 19q9 -13 6 -37t-17 -46q-144 10 -214 7l-70 -265q125 16 278 46q21 -10 20 -35t-16 -49l-291 -29q-76 21 -77 66q85 223 121 426l19 161q-14 9 -46 11q-18 33 0 51
q162 16 391 13q20 -15 11 -53t-36 -60l-63 41q-90 14 -174 5l-29 -109z" />
    <glyph glyph-name="Eacute" unicode="&#xc9;" horiz-adv-x="497" 
d="M206 389q204 17 216 19q9 -13 6 -37t-17 -46q-144 10 -214 7l-70 -265q125 16 278 46q21 -10 20 -35t-16 -49l-291 -29q-76 21 -77 66q85 223 121 426l19 161q-14 9 -46 11q-18 33 0 51q162 16 391 13q20 -15 11 -53t-36 -60l-63 41q-90 14 -174 5l-29 -109zM443 972
q32 9 65.5 -3t34.5 -29l-159 -156q-30 0 -33 17l62 93z" />
    <glyph glyph-name="Ecircumflex" unicode="&#xca;" horiz-adv-x="497" 
d="M206 389q204 17 216 19q9 -13 6 -37t-17 -46q-144 10 -214 7l-70 -265q125 16 278 46q21 -10 20 -35t-16 -49l-291 -29q-76 21 -77 66q85 223 121 426l19 161q-14 9 -46 11q-18 33 0 51q162 16 391 13q20 -15 11 -53t-36 -60l-63 41q-90 14 -174 5l-29 -109zM230 818
l141 130q44 11 70 -8l66 -138q-16 -14 -38 -15t-32 8l-51 108l-126 -111q-28 4 -30 26z" />
    <glyph glyph-name="Edieresis" unicode="&#xcb;" horiz-adv-x="497" 
d="M271 905q20 0 33.5 -13.5t13.5 -33t-14 -33.5t-33.5 -14t-33 14t-13.5 33.5t13.5 33t33.5 13.5zM433 905q20 0 33.5 -13.5t13.5 -33t-14 -33.5t-33.5 -14t-33 14t-13.5 33.5t13.5 33t33.5 13.5zM206 389q204 17 216 19q9 -13 6 -37t-17 -46q-144 10 -214 7l-70 -265
q125 16 278 46q21 -10 20 -35t-16 -49l-291 -29q-76 21 -77 66q85 223 121 426l19 161q-14 9 -46 11q-18 33 0 51q162 16 391 13q20 -15 11 -53t-36 -60l-63 41q-90 14 -174 5l-29 -109z" />
    <glyph glyph-name="Igrave" unicode="&#xcc;" horiz-adv-x="225" 
d="M136 989l81 -187q-5 -17 -34 -14l-51 73l-86 88q7 26 32 36.5t58 3.5zM137 710q41 25 63 25t42 -9l-75 -325q-5 -51 -23 -187.5t-26 -213.5q-73 -7 -95 31q73 300 99 466z" />
    <glyph glyph-name="Iacute" unicode="&#xcd;" horiz-adv-x="225" 
d="M278 972q32 9 65.5 -3t34.5 -29l-159 -156q-30 0 -33 17l62 93zM137 710q41 25 63 25t42 -9l-75 -325q-5 -51 -23 -187.5t-26 -213.5q-73 -7 -95 31q73 300 99 466z" />
    <glyph glyph-name="Icircumflex" unicode="&#xce;" horiz-adv-x="225" 
d="M65 818l141 130q44 11 70 -8l66 -138q-16 -14 -38 -15t-32 8l-51 108l-126 -111q-28 4 -30 26zM137 710q41 25 63 25t42 -9l-75 -325q-5 -51 -23 -187.5t-26 -213.5q-73 -7 -95 31q73 300 99 466z" />
    <glyph glyph-name="Idieresis" unicode="&#xcf;" horiz-adv-x="225" 
d="M137 710q41 25 63 25t42 -9l-75 -325q-5 -51 -23 -187.5t-26 -213.5q-73 -7 -95 31q73 300 99 466zM106 905q20 0 33.5 -13.5t13.5 -33t-14 -33.5t-33.5 -14t-33 14t-13.5 33.5t13.5 33t33.5 13.5zM268 905q20 0 33.5 -13.5t13.5 -33t-14 -33.5t-33.5 -14t-33 14
t-13.5 33.5t13.5 33t33.5 13.5z" />
    <glyph glyph-name="Eth" unicode="&#xd0;" horiz-adv-x="618" 
d="M285 735q147 0 231 -90t87 -232q2 -117 -54 -213.5t-168 -158.5q-119 -40 -247 -41q-67 18 -84 62q54 178 80 290l-91 -7q-20 13 -22 32.5t13 27.5l109 -8q13 61 20 102l2 163l-36 -8q-21 14 -24.5 34t7.5 32q71 15 177 15zM189 357v-2l-39 -284q123 0 207 21
q88 63 127 138t37 172q-3 123 -72.5 198.5t-191.5 65.5q-10 -46 -30.5 -137.5t-28.5 -130.5l175 17q16 -7 20.5 -24t-11.5 -32l-192 -2h-1z" />
    <glyph glyph-name="Ntilde" unicode="&#xd1;" horiz-adv-x="626" 
d="M554 710q41 25 63.5 25t41.5 -9l-78 -325q-5 -46 -24.5 -182.5t-28.5 -218.5q-62 -5 -94 24q-123 237 -235 587l-45 -210q-5 -50 -24 -186.5t-28 -214.5q-72 -7 -96 31q52 202 70 287.5t34 178.5l17 213q43 25 64 25t41 -9q71 -252 169 -491l62 -109q6 28 18 81.5
t19 86.5q21 101 37 203zM344 862l-52 -71q-18 -1 -31 8t-12 21q15 21 27 35t37.5 32.5t55.5 27.5q81 -33 108 -75l4 -1l59 69q21 4 34 -5t8 -24q-29 -50 -111 -92q-51 17 -78.5 34t-43.5 43z" />
    <glyph glyph-name="Ograve" unicode="&#xd2;" horiz-adv-x="607" 
d="M358 991l81 -187q-5 -17 -34 -14l-51 73l-86 88q7 26 32 36.5t58 3.5zM515 359q-13 111 -41.5 190.5t-84.5 134.5q-117 -55 -188 -154t-71 -216q1 -82 37.5 -155.5t104.5 -106.5q97 56 152 129t91 178zM395 735q44 0 88.5 -56t73 -143t29.5 -173q1 -63 -53 -150
t-129 -150t-130 -63t-108 50t-82.5 118.5t-30.5 128.5q-1 106 50.5 209t132 166t159.5 63z" />
    <glyph glyph-name="Oacute" unicode="&#xd3;" horiz-adv-x="607" 
d="M515 359q-13 111 -41.5 190.5t-84.5 134.5q-117 -55 -188 -154t-71 -216q1 -82 37.5 -155.5t104.5 -106.5q97 56 152 129t91 178zM395 735q44 0 88.5 -56t73 -143t29.5 -173q1 -63 -53 -150t-129 -150t-130 -63t-108 50t-82.5 118.5t-30.5 128.5q-1 106 50.5 209t132 166
t159.5 63zM500 974q32 9 65.5 -3t34.5 -29l-159 -156q-30 0 -33 17l62 93z" />
    <glyph glyph-name="Ocircumflex" unicode="&#xd4;" horiz-adv-x="607" 
d="M515 359q-13 111 -41.5 190.5t-84.5 134.5q-117 -55 -188 -154t-71 -216q1 -82 37.5 -155.5t104.5 -106.5q97 56 152 129t91 178zM395 735q44 0 88.5 -56t73 -143t29.5 -173q1 -63 -53 -150t-129 -150t-130 -63t-108 50t-82.5 118.5t-30.5 128.5q-1 106 50.5 209t132 166
t159.5 63zM287 820l141 130q44 11 70 -8l66 -138q-16 -14 -38 -15t-32 8l-51 108l-126 -111q-28 4 -30 26z" />
    <glyph glyph-name="Otilde" unicode="&#xd5;" horiz-adv-x="607" 
d="M374 917q81 -33 108 -75l4 -1l59 69q21 4 34 -5t8 -24q-29 -50 -111 -92q-51 17 -78.5 34t-43.5 43l-5 -2l-52 -71q-18 -1 -31 8t-12 21q15 21 27 35t37.5 32.5t55.5 27.5zM515 359q-13 111 -41.5 190.5t-84.5 134.5q-117 -55 -188 -154t-71 -216q1 -82 37.5 -155.5
t104.5 -106.5q97 56 152 129t91 178zM395 735q44 0 88.5 -56t73 -143t29.5 -173q1 -63 -53 -150t-129 -150t-130 -63t-108 50t-82.5 118.5t-30.5 128.5q-1 106 50.5 209t132 166t159.5 63z" />
    <glyph glyph-name="Odieresis" unicode="&#xd6;" horiz-adv-x="607" 
d="M328 907q20 0 33.5 -13.5t13.5 -33t-14 -33.5t-33.5 -14t-33 14t-13.5 33.5t13.5 33t33.5 13.5zM490 907q20 0 33.5 -13.5t13.5 -33t-14 -33.5t-33.5 -14t-33 14t-13.5 33.5t13.5 33t33.5 13.5zM395 735q44 0 88.5 -56t73 -143t29.5 -173q1 -63 -53 -150t-129 -150
t-130 -63t-108 50t-82.5 118.5t-30.5 128.5q-1 106 50.5 209t132 166t159.5 63zM515 359q-13 111 -41.5 190.5t-84.5 134.5q-117 -55 -188 -154t-71 -216q1 -82 37.5 -155.5t104.5 -106.5q97 56 152 129t91 178z" />
    <glyph glyph-name="multiply" unicode="&#xd7;" horiz-adv-x="648" 
d="M336 358l200 226q23 0 37.5 -11.5t10.5 -35.5l-222 -208l165 -171q-9 -27 -25.5 -37.5t-33.5 -2.5l-143 177l-194 -181q-46 7 -48 46l216 168l-165 204q-2 25 13 38t39 13z" />
    <glyph glyph-name="Oslash" unicode="&#xd8;" horiz-adv-x="705" 
d="M310 0q-86 0 -159 110l-70 -110q-75 16 -75 72l112 99q-29 67 -31 126q-1 106 51 209t132.5 166t159.5 63q37 0 74 -39.5t67 -105.5l88 143q35 -7 58 -25t24 -43l-148 -134q26 -83 28 -168q0 -63 -54 -150t-129 -150t-128 -63zM164 314q0 -47 13 -90l339 303
q-32 97 -93 157q-117 -55 -188 -154.5t-71 -215.5zM530 475l-335 -302q40 -86 112 -121q96 55 151 128t92 179q-8 68 -20 116z" />
    <glyph glyph-name="Ugrave" unicode="&#xd9;" horiz-adv-x="570" 
d="M302 989l81 -187q-5 -17 -34 -14l-51 73l-86 88q7 26 32 36.5t58 3.5zM248 0q-87 0 -139.5 54t-62.5 112q4 25 19.5 112.5t20 116.5t14.5 93q15 95 26 222q41 25 63.5 25t41.5 -9q-105 -351 -105 -552q0 -40 31 -73.5t80.5 -43.5t110.5 19q62 61 92 157t58 264v213
q41 25 63.5 25t41.5 -9q-13 -57 -33.5 -171.5t-35 -185.5t-28.5 -122t-37 -102t-51 -80q-64 -65 -170 -65z" />
    <glyph glyph-name="Uacute" unicode="&#xda;" horiz-adv-x="570" 
d="M248 0q-87 0 -139.5 54t-62.5 112q4 25 19.5 112.5t20 116.5t14.5 93q15 95 26 222q41 25 63.5 25t41.5 -9q-105 -351 -105 -552q0 -40 31 -73.5t80.5 -43.5t110.5 19q62 61 92 157t58 264v213q41 25 63.5 25t41.5 -9q-13 -57 -33.5 -171.5t-35 -185.5t-28.5 -122
t-37 -102t-51 -80q-64 -65 -170 -65zM444 972q32 9 65.5 -3t34.5 -29l-159 -156q-30 0 -33 17l62 93z" />
    <glyph glyph-name="Ucircumflex" unicode="&#xdb;" horiz-adv-x="570" 
d="M248 0q-87 0 -139.5 54t-62.5 112q4 25 19.5 112.5t20 116.5t14.5 93q15 95 26 222q41 25 63.5 25t41.5 -9q-105 -351 -105 -552q0 -40 31 -73.5t80.5 -43.5t110.5 19q62 61 92 157t58 264v213q41 25 63.5 25t41.5 -9q-13 -57 -33.5 -171.5t-35 -185.5t-28.5 -122
t-37 -102t-51 -80q-64 -65 -170 -65zM231 818l141 130q44 11 70 -8l66 -138q-16 -14 -38 -15t-32 8l-51 108l-126 -111q-28 4 -30 26z" />
    <glyph glyph-name="Udieresis" unicode="&#xdc;" horiz-adv-x="570" 
d="M272 905q20 0 33.5 -13.5t13.5 -33t-14 -33.5t-33.5 -14t-33 14t-13.5 33.5t13.5 33t33.5 13.5zM434 905q20 0 33.5 -13.5t13.5 -33t-14 -33.5t-33.5 -14t-33 14t-13.5 33.5t13.5 33t33.5 13.5zM498 710q41 25 63.5 25t41.5 -9q-13 -57 -33.5 -171.5t-35 -185.5
t-28.5 -122t-37 -102t-51 -80q-64 -65 -170 -65q-87 0 -139.5 54t-62.5 112q4 25 19.5 112.5t20 116.5t14.5 93q15 95 26 222q41 25 63.5 25t41.5 -9q-105 -351 -105 -552q0 -40 31 -73.5t80.5 -43.5t110.5 19q62 61 92 157t58 264v213z" />
    <glyph glyph-name="Yacute" unicode="&#xdd;" horiz-adv-x="567" 
d="M460 971q32 9 65.5 -3t34.5 -29l-159 -156q-30 0 -33 17l62 93zM116 713q17 15 42.5 20.5t43.5 -5.5l36 -170l86 -220h3l21 39l164 221l-34 119q50 19 75.5 17.5t50.5 -20.5q0 -80 -45 -136q-110 -143 -196 -251q-32 -100 -44 -327q-15 -7 -44.5 -2t-50.5 21
q38 107 60 284q-41 117 -168 410z" />
    <glyph glyph-name="Thorn" unicode="&#xde;" horiz-adv-x="532" 
d="M289 804l-55 -225q71 31 143 26q75 -21 118.5 -70.5t45 -109.5t-29 -104t-103.5 -96q-136 -27 -223 3q-15 -130 -28 -225q-19 -7 -49.5 -0.5t-45.5 22.5q31 111 63 274.5t49 240.5l11 247q35 21 56.5 25t47.5 -8zM379 278q46 40 67.5 71t20 74t-32.5 78.5t-83 50.5
q-51 6 -126 -29q-18 -113 -35 -258q84 -12 189 13z" />
    <glyph glyph-name="germandbls" unicode="&#xdf;" horiz-adv-x="565" 
d="M524 238q0 -84 -68 -153t-189 -85q-87 3 -117 50q9 32 36 56t58 23l40 -71q75 12 120 67t45 113q0 121 -112 149l-73 -26q-23 27 -27 53q-7 46 38 73l57 -17q102 43 102 149q0 59 -50 97.5t-136 27.5l-53 -88q-60 -438 -95 -656q-65 -6 -85 24q96 385 112 614
q17 63 47 103.5t82 62.5q111 6 179 -49.5t69 -132.5q-2 -133 -142 -187l-1 -7q83 -24 123 -75t40 -115z" />
    <glyph glyph-name="agrave" unicode="&#xe0;" horiz-adv-x="501" 
d="M321 163l-131 -150q-77 1 -118 45t-42 122.5t36 164t99 140.5t126 55q59 -26 99 -97l1 3q3 66 16 100q71 0 95 -32l-75 -147q-18 -116 -38 -367q-68 -8 -102 29l45 125zM106 181q0 -76 56 -109q91 90 176 170l34 147q-16 34 -34 55t-51 43q-85 -35 -133 -117.5
t-48 -188.5zM342 586l-51 73l-86 88q7 26 32 36.5t58 3.5l81 -187q-5 -17 -34 -14z" />
    <glyph glyph-name="aacute" unicode="&#xe1;" horiz-adv-x="501" 
d="M321 163l-131 -150q-77 1 -118 45t-42 122.5t36 164t99 140.5t126 55q59 -26 99 -97l1 3q3 66 16 100q71 0 95 -32l-75 -147q-18 -116 -38 -367q-68 -8 -102 29l45 125zM106 181q0 -76 56 -109q91 90 176 170l34 147q-16 34 -34 55t-51 43q-85 -35 -133 -117.5
t-48 -188.5zM537 738l-159 -156q-30 0 -33 17l62 93l30 78q32 9 65.5 -3t34.5 -29z" />
    <glyph glyph-name="acircumflex" unicode="&#xe2;" horiz-adv-x="501" 
d="M321 163l-131 -150q-77 1 -118 45t-42 122.5t36 164t99 140.5t126 55q59 -26 99 -97l1 3q3 66 16 100q71 0 95 -32l-75 -147q-18 -116 -38 -367q-68 -8 -102 29l45 125zM106 181q0 -76 56 -109q91 90 176 170l34 147q-16 34 -34 55t-51 43q-85 -35 -133 -117.5
t-48 -188.5zM380 701l-126 -111q-28 4 -30 26l141 130q44 11 70 -8l66 -138q-16 -14 -38 -15t-32 8z" />
    <glyph glyph-name="atilde" unicode="&#xe3;" horiz-adv-x="501" 
d="M423 637l59 69q21 4 34 -5t8 -24q-29 -50 -111 -92q-51 17 -78.5 34t-43.5 43l-5 -2l-52 -71q-18 -1 -31 8t-12 21q15 21 27 35t37.5 32.5t55.5 27.5q81 -33 108 -75zM321 163l-131 -150q-77 1 -118 45t-42 122.5t36 164t99 140.5t126 55q59 -26 99 -97l1 3q3 66 16 100
q71 0 95 -32l-75 -147q-18 -116 -38 -367q-68 -8 -102 29l45 125zM106 181q0 -76 56 -109q91 90 176 170l34 147q-16 34 -34 55t-51 43q-85 -35 -133 -117.5t-48 -188.5z" />
    <glyph glyph-name="adieresis" unicode="&#xe4;" horiz-adv-x="501" 
d="M321 163l-131 -150q-77 1 -118 45t-42 122.5t36 164t99 140.5t126 55q59 -26 99 -97l1 3q3 66 16 100q71 0 95 -32l-75 -147q-18 -116 -38 -367q-68 -8 -102 29l45 125zM106 181q0 -76 56 -109q91 90 176 170l34 147q-16 34 -34 55t-51 43q-85 -35 -133 -117.5
t-48 -188.5zM298 623q-14 -14 -33.5 -14t-33 14t-13.5 33.5t13.5 33t33.5 13.5t33.5 -13.5t13.5 -33t-14 -33.5zM460 623q-14 -14 -33.5 -14t-33 14t-13.5 33.5t13.5 33t33.5 13.5t33.5 -13.5t13.5 -33t-14 -33.5z" />
    <glyph glyph-name="aring" unicode="&#xe5;" horiz-adv-x="501" 
d="M321 163l-131 -150q-77 1 -118 45t-42 122.5t36 164t99 140.5t126 55q59 -26 99 -97l1 3q3 66 16 100q71 0 95 -32l-75 -147q-18 -116 -38 -367q-68 -8 -102 29l45 125zM106 181q0 -76 56 -109q91 90 176 170l34 147q-16 34 -34 55t-51 43q-85 -35 -133 -117.5
t-48 -188.5zM441.5 612.5q-35.5 -30.5 -75.5 -30.5t-57.5 29t-3.5 72q16 39 50.5 69.5t75 30.5t58 -29t3 -70t-50 -71.5zM382 612q14 0 32 12q18 26 25 59q21 70 -26 70q-6 0 -28 -11q-16 -22 -28 -59q-23 -71 25 -71z" />
    <glyph glyph-name="ae" unicode="&#xe6;" horiz-adv-x="788" 
d="M106 181q0 -76 56 -109q91 90 176 170q3 58 34 147q-16 34 -34 55t-51 43q-85 -35 -133 -117.5t-48 -188.5zM590 494l-14 -3q-69 -34 -118 -99.5t-50 -131.5q143 35 254 88q-1 55 -15 88t-57 58zM321 163l-131 -150q-77 1 -118 45t-42 122.5t36 164t99 140.5t126 55
q58 -24 99 -96q4 69 17 102q58 5 75 -22l-31 -65q25 28 65 54t76 35q81 -23 115 -83.5t28 -143.5q-164 -78 -326 -111q14 -113 122 -152q127 48 169 93q20 0 26 -9t4 -33q-28 -31 -93.5 -66t-114.5 -43q-100 29 -141 106l-16 -106q-30 -3 -45 3.5t-33 25.5l45 125z" />
    <glyph glyph-name="ccedilla" unicode="&#xe7;" horiz-adv-x="483" 
d="M231 -81q32 30 67.5 30t54 -25.5t10.5 -68.5t-45 -69t-86 -26t-91 18.5t-68 50.5q2 35 22 37q54 -54 114.5 -54t72.5 48q5 24 -8 43q-35 -4 -65 -30q-36 0 -45 27l48 102q-94 27 -136.5 93.5t-37.5 151.5q3 50 19 95q42 69 106.5 125t142.5 73q56 -9 94 -54t42 -98
q-19 -16 -44 -20t-41 6q-2 43 -14.5 66.5t-41.5 46.5l-18 -2q-70 -34 -117.5 -99.5t-49.5 -121.5q-5 -80 19.5 -129t95.5 -78q47 16 94.5 41.5t71.5 50.5q21 1 27 -9.5t4 -31.5q-44 -48 -145 -90z" />
    <glyph glyph-name="egrave" unicode="&#xe8;" horiz-adv-x="481" 
d="M275 548q88 -23 124 -83.5t29 -143.5q-168 -80 -320 -112q6 -56 34 -92.5t88 -58.5q108 39 159 87q20 0 26 -9t4 -33q-20 -27 -83 -60t-109 -43q-99 22 -148 88.5t-47 159.5q1 40 19 99q86 145 224 201zM105 267v-8q126 32 254 89q0 57 -15.5 90t-61.5 56l-14 -3
q-66 -32 -113.5 -100t-49.5 -124zM282 586l-51 73l-86 88q7 26 32 36.5t58 3.5l81 -187q-5 -17 -34 -14z" />
    <glyph glyph-name="eacute" unicode="&#xe9;" horiz-adv-x="481" 
d="M275 548q88 -23 124 -83.5t29 -143.5q-168 -80 -320 -112q6 -56 34 -92.5t88 -58.5q108 39 159 87q20 0 26 -9t4 -33q-20 -27 -83 -60t-109 -43q-99 22 -148 88.5t-47 159.5q1 40 19 99q86 145 224 201zM105 267v-8q126 32 254 89q0 57 -15.5 90t-61.5 56l-14 -3
q-66 -32 -113.5 -100t-49.5 -124zM477 738l-159 -156q-30 0 -33 17l62 93l30 78q32 9 65.5 -3t34.5 -29z" />
    <glyph glyph-name="ecircumflex" unicode="&#xea;" horiz-adv-x="481" 
d="M275 548q88 -23 124 -83.5t29 -143.5q-168 -80 -320 -112q6 -56 34 -92.5t88 -58.5q108 39 159 87q20 0 26 -9t4 -33q-20 -27 -83 -60t-109 -43q-99 22 -148 88.5t-47 159.5q1 40 19 99q86 145 224 201zM105 267v-8q126 32 254 89q0 57 -15.5 90t-61.5 56l-14 -3
q-66 -32 -113.5 -100t-49.5 -124zM320 701l-126 -111q-28 4 -30 26l141 130q44 11 70 -8l66 -138q-16 -14 -38 -15t-32 8z" />
    <glyph glyph-name="edieresis" unicode="&#xeb;" horiz-adv-x="481" 
d="M275 548q88 -23 124 -83.5t29 -143.5q-168 -80 -320 -112q6 -56 34 -92.5t88 -58.5q108 39 159 87q20 0 26 -9t4 -33q-20 -27 -83 -60t-109 -43q-99 22 -148 88.5t-47 159.5q1 40 19 99q86 145 224 201zM105 267v-8q126 32 254 89q0 57 -15.5 90t-61.5 56l-14 -3
q-66 -32 -113.5 -100t-49.5 -124zM238 623q-14 -14 -33.5 -14t-33 14t-13.5 33.5t13.5 33t33.5 13.5t33.5 -13.5t13.5 -33t-14 -33.5zM400 623q-14 -14 -33.5 -14t-33 14t-13.5 33.5t13.5 33t33.5 13.5t33.5 -13.5t13.5 -33t-14 -33.5z" />
    <glyph glyph-name="igrave" unicode="&#xec;" horiz-adv-x="227" 
d="M123 787l81 -187q-5 -17 -34 -14l-51 73l-86 88q7 26 32 36.5t58 3.5zM113 368l-3 156q45 19 66 16t32 -16l-37 -130q-17 -145 -40 -394q-73 -7 -95 31q33 113 77 337z" />
    <glyph glyph-name="iacute" unicode="&#xed;" horiz-adv-x="227" 
d="M113 368l-3 156q45 19 66 16t32 -16l-37 -130q-17 -145 -40 -394q-73 -7 -95 31q33 113 77 337zM265 770q32 9 65.5 -3t34.5 -29l-159 -156q-30 0 -33 17l62 93z" />
    <glyph glyph-name="icircumflex" unicode="&#xee;" horiz-adv-x="227" 
d="M113 368l-3 156q45 19 66 16t32 -16l-37 -130q-17 -145 -40 -394q-73 -7 -95 31q33 113 77 337zM52 616l141 130q44 11 70 -8l66 -138q-16 -14 -38 -15t-32 8l-51 108l-126 -111q-28 4 -30 26z" />
    <glyph glyph-name="idieresis" unicode="&#xef;" horiz-adv-x="227" 
d="M93 703q20 0 33.5 -13.5t13.5 -33t-14 -33.5t-33.5 -14t-33 14t-13.5 33.5t13.5 33t33.5 13.5zM255 703q20 0 33.5 -13.5t13.5 -33t-14 -33.5t-33.5 -14t-33 14t-13.5 33.5t13.5 33t33.5 13.5zM113 368l-3 156q45 19 66 16t32 -16l-37 -130q-17 -145 -40 -394
q-73 -7 -95 31q33 113 77 337z" />
    <glyph glyph-name="eth" unicode="&#xf0;" horiz-adv-x="456" 
d="M367 660q47 -121 47 -254.5t-50 -244t-157 -161.5q-85 17 -130 76t-45 150t59.5 180.5t167.5 129.5q67 -45 99 -110q-4 114 -41 219l-127 -41q-23 8 -30 26.5t6 29.5l128 22l-72 87q9 21 22 27.5t40 4.5q37 -41 65 -99l101 42q17 -2 26 -18t-2 -35zM103 217
q0 -119 99 -162q137 96 154 295q-25 48 -47.5 75.5t-61.5 48.5q-73 -42 -108.5 -109.5t-35.5 -147.5z" />
    <glyph glyph-name="ntilde" unicode="&#xf1;" horiz-adv-x="500" 
d="M147 388l9 -6q84 114 190 158q54 -5 86.5 -42t40.5 -81l-36 -89q-19 -166 -28 -328q-61 -7 -88 25q21 138 68 388q-6 41 -42 56q-96 -42 -190 -160q-22 -142 -52 -309q-64 -6 -86 24q56 186 88 348l-21 143q42 39 99 31q5 -24 -11 -109zM230 660l-52 -71q-18 -1 -31 8
t-12 21q15 21 27 35t37.5 32.5t55.5 27.5q81 -33 108 -75l4 -1l59 69q21 4 34 -5t8 -24q-29 -50 -111 -92q-51 17 -78.5 34t-43.5 43z" />
    <glyph glyph-name="ograve" unicode="&#xf2;" horiz-adv-x="484" 
d="M28 230q0 65 42 142t102.5 129t110.5 52t108 -93t59.5 -158t-42 -135.5t-106 -118.5t-112.5 -48t-106 70t-56 160zM275 497q-80 -45 -121 -105.5t-59 -142.5q4 -67 26 -114t68 -86q89 38 135.5 96t63.5 146q-9 53 -39 110t-74 96zM239 787l81 -187q-5 -17 -34 -14l-51 73
l-86 88q7 26 32 36.5t58 3.5z" />
    <glyph glyph-name="oacute" unicode="&#xf3;" horiz-adv-x="484" 
d="M351 692l30 78q32 9 65.5 -3t34.5 -29l-159 -156q-30 0 -33 17zM28 230q0 65 42 142t102.5 129t110.5 52t108 -93t59.5 -158t-42 -135.5t-106 -118.5t-112.5 -48t-106 70t-56 160zM275 497q-80 -45 -121 -105.5t-59 -142.5q4 -67 26 -114t68 -86q89 38 135.5 96t63.5 146
q-9 53 -39 110t-74 96z" />
    <glyph glyph-name="ocircumflex" unicode="&#xf4;" horiz-adv-x="484" 
d="M168 616l141 130q44 11 70 -8l66 -138q-16 -14 -38 -15t-32 8l-51 108l-126 -111q-28 4 -30 26zM28 230q0 65 42 142t102.5 129t110.5 52t108 -93t59.5 -158t-42 -135.5t-106 -118.5t-112.5 -48t-106 70t-56 160zM275 497q-80 -45 -121 -105.5t-59 -142.5q4 -67 26 -114
t68 -86q89 38 135.5 96t63.5 146q-9 53 -39 110t-74 96z" />
    <glyph glyph-name="otilde" unicode="&#xf5;" horiz-adv-x="484" 
d="M28 230q0 65 42 142t102.5 129t110.5 52t108 -93t59.5 -158t-42 -135.5t-106 -118.5t-112.5 -48t-106 70t-56 160zM275 497q-80 -45 -121 -105.5t-59 -142.5q4 -67 26 -114t68 -86q89 38 135.5 96t63.5 146q-9 53 -39 110t-74 96zM230 660l-52 -71q-18 -1 -31 8t-12 21
q15 21 27 35t37.5 32.5t55.5 27.5q81 -33 108 -75l4 -1l59 69q21 4 34 -5t8 -24q-29 -50 -111 -92q-51 17 -78.5 34t-43.5 43z" />
    <glyph glyph-name="odieresis" unicode="&#xf6;" horiz-adv-x="484" 
d="M209 703q20 0 33.5 -13.5t13.5 -33t-14 -33.5t-33.5 -14t-33 14t-13.5 33.5t13.5 33t33.5 13.5zM371 703q20 0 33.5 -13.5t13.5 -33t-14 -33.5t-33.5 -14t-33 14t-13.5 33.5t13.5 33t33.5 13.5zM28 230q0 65 42 142t102.5 129t110.5 52t108 -93t59.5 -158t-42 -135.5
t-106 -118.5t-112.5 -48t-106 70t-56 160zM275 497q-80 -45 -121 -105.5t-59 -142.5q4 -67 26 -114t68 -86q89 38 135.5 96t63.5 146q-9 53 -39 110t-74 96z" />
    <glyph glyph-name="divide" unicode="&#xf7;" horiz-adv-x="680" 
d="M406.5 448.5q-26.5 -16.5 -46.5 -16.5t-33 12t-16 30q2 27 25 53t48 29q18 0 38 -22.5t25 -46.5q-14 -22 -40.5 -38.5zM352.5 113.5q-26.5 -16.5 -46.5 -16.5t-33 12t-16 30q2 27 25 53t48 29q18 0 38.5 -22t24.5 -47q-14 -22 -40.5 -38.5zM652 367q12 -7 8 -27.5
t-23 -41.5l-588 -7q-23 23 10 65l293 -4z" />
    <glyph glyph-name="oslash" unicode="&#xf8;" horiz-adv-x="559" 
d="M239 0q-27 0 -60.5 24.5t-59.5 64.5l-57 -89q-30 5 -45 19.5t-21 44.5l96 80q-15 45 -15 86q0 65 42 142t102.5 129t110.5 52t109 -95l63 91q55 -8 60 -60l-96 -80q30 -64 31.5 -118t-42.5 -124.5t-106.5 -118.5t-111.5 -48zM151 193l247 207q-29 55 -74 97
q-81 -46 -122 -106t-58 -142q2 -32 7 -56zM415 364l-252 -213q22 -57 75 -102q88 38 135 96t63 146q-4 30 -21 73z" />
    <glyph glyph-name="ugrave" unicode="&#xf9;" horiz-adv-x="501" 
d="M339 236v2q33 178 67 308q71 0 95 -32l-75 -147q-22 -143 -35 -367q-61 -7 -89 25l49 131l-12 10q-60 -78 -148 -166q-137 19 -163 94l51 173q15 170 13 279q31 4 50 -2.5t43 -28.5q-16 -142 -75 -404q13 -31 70 -48q100 90 159 173zM290 586l-51 73l-86 88q7 26 32 36.5
t58 3.5l81 -187q-5 -17 -34 -14z" />
    <glyph glyph-name="uacute" unicode="&#xfa;" horiz-adv-x="501" 
d="M339 236v2q33 178 67 308q71 0 95 -32l-75 -147q-22 -143 -35 -367q-61 -7 -89 25l49 131l-12 10q-60 -78 -148 -166q-137 19 -163 94l51 173q15 170 13 279q31 4 50 -2.5t43 -28.5q-16 -142 -75 -404q13 -31 70 -48q100 90 159 173zM485 738l-159 -156q-30 0 -33 17
l62 93l30 78q32 9 65.5 -3t34.5 -29z" />
    <glyph glyph-name="ucircumflex" unicode="&#xfb;" horiz-adv-x="501" 
d="M339 236v2q33 178 67 308q71 0 95 -32l-75 -147q-22 -143 -35 -367q-61 -7 -89 25l49 131l-12 10q-60 -78 -148 -166q-137 19 -163 94l51 173q15 170 13 279q31 4 50 -2.5t43 -28.5q-16 -142 -75 -404q13 -31 70 -48q100 90 159 173zM328 701l-126 -111q-28 4 -30 26
l141 130q44 11 70 -8l66 -138q-16 -14 -38 -15t-32 8z" />
    <glyph glyph-name="udieresis" unicode="&#xfc;" horiz-adv-x="501" 
d="M339 236v2q33 178 67 308q71 0 95 -32l-75 -147q-22 -143 -35 -367q-61 -7 -89 25l49 131l-12 10q-60 -78 -148 -166q-137 19 -163 94l51 173q15 170 13 279q31 4 50 -2.5t43 -28.5q-16 -142 -75 -404q13 -31 70 -48q100 90 159 173zM246 623q-14 -14 -33.5 -14t-33 14
t-13.5 33.5t13.5 33t33.5 13.5t33.5 -13.5t13.5 -33t-14 -33.5zM408 623q-14 -14 -33.5 -14t-33 14t-13.5 33.5t13.5 33t33.5 13.5t33.5 -13.5t13.5 -33t-14 -33.5z" />
    <glyph glyph-name="yacute" unicode="&#xfd;" horiz-adv-x="470" 
d="M334 238q41 230 69 308q71 0 94 -32l-83 -167q-24 -113 -56.5 -320t-39.5 -251q-17 -24 -57.5 -36t-80.5 -10q-68 35 -108.5 87.5t-47.5 101.5q17 27 39.5 37t41.5 -2q8 -101 92 -164q28 -4 40 7q35 112 61 279l39 71l-12 11q-26 -32 -113 -112q-90 15 -131 41.5
t-52 65.5l49 143q6 50 8.5 131.5t-0.5 118.5q31 4 50.5 -2.5t42.5 -28.5q-14 -99 -26 -158.5t-44 -185.5q11 -26 29.5 -40t60.5 -26q94 71 135 133zM493 738l-159 -156q-30 0 -33 17l62 93l30 78q32 9 65.5 -3t34.5 -29z" />
    <glyph glyph-name="thorn" unicode="&#xfe;" horiz-adv-x="491" 
d="M145 393l12 -12q65 84 145 159q81 -29 116 -77.5t55 -136.5q-32 -132 -123.5 -217.5t-238.5 -106.5q-22 -158 -48 -271q-66 -6 -86 24q55 225 86 383t69 402l18 247q35 21 56.5 25t48.5 -8l-57 -228l-24 -129zM120 61q118 25 191 98.5t91 168.5q-9 56 -31.5 88.5
t-68.5 52.5q-92 -88 -148 -163q-5 -32 -34 -245z" />
    <glyph glyph-name="ydieresis" unicode="&#xff;" horiz-adv-x="470" 
d="M334 238q41 230 69 308q71 0 94 -32l-83 -167q-24 -113 -56.5 -320t-39.5 -251q-17 -24 -57.5 -36t-80.5 -10q-68 35 -108.5 87.5t-47.5 101.5q17 27 39.5 37t41.5 -2q8 -101 92 -164q28 -4 40 7q35 112 61 279l39 71l-12 11q-26 -32 -113 -112q-90 15 -131 41.5
t-52 65.5l49 143q6 50 8.5 131.5t-0.5 118.5q31 4 50.5 -2.5t42.5 -28.5q-14 -99 -26 -158.5t-44 -185.5q11 -26 29.5 -40t60.5 -26q94 71 135 133zM254 623q-14 -14 -33.5 -14t-33 14t-13.5 33.5t13.5 33t33.5 13.5t33.5 -13.5t13.5 -33t-14 -33.5zM416 623
q-14 -14 -33.5 -14t-33 14t-13.5 33.5t13.5 33t33.5 13.5t33.5 -13.5t13.5 -33t-14 -33.5z" />
    <glyph glyph-name="Amacron" unicode="&#x100;" horiz-adv-x="567" 
d="M449 339l102 21q12 -8 10.5 -28.5t-17.5 -42.5l-91 -5l21 -284q-61 -7 -86 25l-1 255l-134 -7l-60 -9l-121 -264q-65 -6 -83 24l122 228l-79 -12q-26 34 7 70l105 5l66 123l114 272q55 35 124 14l-15 -174zM218 319l169 8l-11 319l-9 -2zM548 821l-286 -8q-20 20 11 59
l152 -5l138 15q26 -15 -15 -61z" />
    <glyph glyph-name="amacron" unicode="&#x101;" horiz-adv-x="501" 
d="M321 163l-131 -150q-77 1 -118 45t-42 122.5t36 164t99 140.5t126 55q59 -26 99 -97l1 3q3 66 16 100q71 0 95 -32l-75 -147q-18 -116 -38 -367q-68 -8 -102 29l45 125zM106 181q0 -76 56 -109q91 90 176 170l34 147q-16 34 -34 55t-51 43q-85 -35 -133 -117.5
t-48 -188.5zM473 619l-286 -8q-20 20 11 59l152 -5l138 15q26 -15 -15 -61z" />
    <glyph glyph-name="Abreve" unicode="&#x102;" horiz-adv-x="567" 
d="M449 339l102 21q12 -8 10.5 -28.5t-17.5 -42.5l-91 -5l21 -284q-61 -7 -86 25l-1 255l-134 -7l-60 -9l-121 -264q-65 -6 -83 24l122 228l-79 -12q-26 34 7 70l105 5l66 123l114 272q55 35 124 14l-15 -174zM218 319l169 8l-11 319l-9 -2zM436 799q-103 0 -136 116
q9 8 34 8q19 -57 68 -72q69 12 77 72q57 16 82 -21q-11 -46 -45 -74.5t-80 -28.5z" />
    <glyph glyph-name="abreve" unicode="&#x103;" horiz-adv-x="501" 
d="M321 163l-131 -150q-77 1 -118 45t-42 122.5t36 164t99 140.5t126 55q59 -26 99 -97l1 3q3 66 16 100q71 0 95 -32l-75 -147q-18 -116 -38 -367q-68 -8 -102 29l45 125zM106 181q0 -76 56 -109q91 90 176 170l34 147q-16 34 -34 55t-51 43q-85 -35 -133 -117.5
t-48 -188.5zM361 597q-103 0 -136 116q9 8 34 8q19 -57 68 -72q69 12 77 72q57 16 82 -21q-11 -46 -45 -74.5t-80 -28.5z" />
    <glyph glyph-name="Aogonek" unicode="&#x104;" horiz-adv-x="567" 
d="M345 -110q19 -37 75.5 -37t97.5 35q22 -2 27 -25q-57 -61 -131 -61q-46 0 -83.5 24.5t-37.5 59.5t32 70t77 56q-10 8 -14 13l-1 255l-134 -7l-60 -9l-121 -264q-65 -6 -83 24l122 228l-79 -12q-26 34 7 70l105 5l66 123l114 272q55 35 124 14l-15 -174l16 -211l102 21
q12 -8 10.5 -28.5t-17.5 -42.5l-91 -5l21 -284q-50 -4 -85 -39t-44 -71zM218 319l169 8l-11 319l-9 -2z" />
    <glyph glyph-name="aogonek" unicode="&#x105;" horiz-adv-x="496" 
d="M321 163l-131 -150q-77 1 -118 45t-42 122.5t36 164t99 140.5t126 55q59 -26 99 -97l1 3q3 66 16 100q71 0 95 -32l-75 -147q-18 -116 -38 -367q-110 -29 -133 -128q32 -25 81 -20.5t79 36.5q22 -2 27 -25q-48 -61 -126 -61q-51 0 -82 23t-31 58t29.5 71t75.5 58
q-14 8 -22 17l45 125zM106 181q0 -76 56 -109q91 90 176 170l34 147q-16 34 -34 55t-51 43q-85 -35 -133 -117.5t-48 -188.5z" />
    <glyph glyph-name="Cacute" unicode="&#x106;" horiz-adv-x="580" 
d="M200.5 542q-84.5 -107 -84.5 -216.5t43 -169t137 -94.5q52 22 103.5 58t78.5 69q23 6 36.5 -9t11.5 -33q-28 -36 -91.5 -78t-127.5 -69q-141 37 -202 116.5t-63 201.5q0 96 66 217q143 179 323 209q58 -22 93.5 -76t39.5 -111q-49 -38 -96 -21q-9 95 -52 143l-15 -1
q-116 -29 -200.5 -136zM467 972q32 9 65.5 -3t34.5 -29l-159 -156q-30 0 -33 17l62 93z" />
    <glyph glyph-name="cacute" unicode="&#x107;" horiz-adv-x="483" 
d="M306 540q56 -9 94 -54t42 -98q-19 -16 -44 -20t-41 6q-2 43 -14.5 66.5t-41.5 46.5l-18 -2q-70 -34 -117.5 -99.5t-49.5 -121.5q-5 -80 19.5 -129t95.5 -78q47 16 94.5 41.5t71.5 50.5q21 1 27 -9.5t4 -31.5q-29 -32 -93.5 -66t-113.5 -42q-98 25 -143 92.5t-40 154.5
q3 50 19 95q42 69 106.5 125t142.5 73zM407 770q32 9 65.5 -3t34.5 -29l-159 -156q-30 0 -33 17l62 93z" />
    <glyph glyph-name="Ccaron" unicode="&#x10c;" horiz-adv-x="580" 
d="M200.5 542q-84.5 -107 -84.5 -216.5t43 -169t137 -94.5q52 22 103.5 58t78.5 69q23 6 36.5 -9t11.5 -33q-28 -36 -91.5 -78t-127.5 -69q-141 37 -202 116.5t-63 201.5q0 96 66 217q143 179 323 209q58 -22 93.5 -76t39.5 -111q-49 -38 -96 -21q-9 95 -52 143l-15 -1
q-116 -29 -200.5 -136zM400 792q-43 -12 -70 8l-61 114q14 23 40 12l50 -99l102 108q55 16 64 -27z" />
    <glyph glyph-name="ccaron" unicode="&#x10d;" horiz-adv-x="483" 
d="M306 540q56 -9 94 -54t42 -98q-19 -16 -44 -20t-41 6q-2 43 -14.5 66.5t-41.5 46.5l-18 -2q-70 -34 -117.5 -99.5t-49.5 -121.5q-5 -80 19.5 -129t95.5 -78q47 16 94.5 41.5t71.5 50.5q21 1 27 -9.5t4 -31.5q-29 -32 -93.5 -66t-113.5 -42q-98 25 -143 92.5t-40 154.5
q3 50 19 95q42 69 106.5 125t142.5 73zM340 590q-43 -12 -70 8l-61 114q14 23 40 12l50 -99l102 108q55 16 64 -27z" />
    <glyph glyph-name="Dcaron" unicode="&#x10e;" horiz-adv-x="618" 
d="M285 735q147 0 231 -90t87 -232q2 -117 -54 -213.5t-168 -158.5q-119 -40 -247 -41q-67 18 -84 62q76 252 109 437l2 163l-36 -8q-21 14 -24.5 34t7.5 32q71 15 177 15zM189 355l-39 -284q123 0 207 21q88 63 127 138t37 172q-3 123 -72.5 198.5t-191.5 65.5
q-57 -255 -68 -311zM465 908l-125 -116q-43 -12 -70 8l-61 114q14 23 40 12l50 -99l102 108q55 16 64 -27z" />
    <glyph glyph-name="dcaron" unicode="&#x10f;" horiz-adv-x="575" 
d="M595 779l-23 112q32 24 62 12.5t43 -46.5q-5 -45 -36 -93.5t-68 -81.5q-22 -2 -32 14zM322 164l-132 -151q-77 1 -118 45t-42 122.5t36 164t99 140.5t122 55t100 -86q12 56 18 86l5 247q38 21 59.5 25t48.5 -8l-58 -224q-39 -293 -86 -580q-66 -6 -86 24l45 130zM106 181
q0 -76 56 -109q91 90 176 170l34 147q-22 46 -40.5 67.5t-39.5 35.5q-86 -35 -136 -120.5t-50 -190.5z" />
    <glyph glyph-name="Dcroat" unicode="&#x110;" horiz-adv-x="618" 
d="M285 735q147 0 231 -90t87 -232q2 -117 -54 -213.5t-168 -158.5q-119 -40 -247 -41q-67 18 -84 62q54 178 80 290l-91 -7q-20 13 -22 32.5t13 27.5l109 -8q13 61 20 102l2 163l-36 -8q-21 14 -24.5 34t7.5 32q71 15 177 15zM189 357v-2l-39 -284q123 0 207 21
q88 63 127 138t37 172q-3 123 -72.5 198.5t-191.5 65.5q-10 -46 -30.5 -137.5t-28.5 -130.5l175 17q16 -7 20.5 -24t-11.5 -32l-192 -2h-1z" />
    <glyph glyph-name="dcroat" unicode="&#x111;" horiz-adv-x="462" 
d="M322 164l-132 -151q-77 1 -118 45t-42 122.5t36 164t99 140.5t122 55t100 -86q12 56 18 86l1 74l-109 -3q-20 20 11 59l100 -3l2 120q38 21 59.5 25t48.5 -8l-35 -137l115 13q26 -15 -15 -61l-114 -3l-9 -36q-39 -293 -86 -580q-66 -6 -86 24l45 130zM106 181
q0 -76 56 -109q91 90 176 170l34 147q-22 46 -40.5 67.5t-39.5 35.5q-86 -35 -136 -120.5t-50 -190.5z" />
    <glyph glyph-name="Emacron" unicode="&#x112;" horiz-adv-x="497" 
d="M494 882q26 -15 -15 -61l-286 -8q-20 20 11 59l152 -5zM206 389q204 17 216 19q9 -13 6 -37t-17 -46q-144 10 -214 7l-70 -265q125 16 278 46q21 -10 20 -35t-16 -49l-291 -29q-76 21 -77 66q85 223 121 426l19 161q-14 9 -46 11q-18 33 0 51q162 16 391 13
q20 -15 11 -53t-36 -60l-63 41q-90 14 -174 5l-29 -109z" />
    <glyph glyph-name="emacron" unicode="&#x113;" horiz-adv-x="481" 
d="M275 548q88 -23 124 -83.5t29 -143.5q-168 -80 -320 -112q6 -56 34 -92.5t88 -58.5q108 39 159 87q20 0 26 -9t4 -33q-20 -27 -83 -60t-109 -43q-99 22 -148 88.5t-47 159.5q1 40 19 99q86 145 224 201zM105 267v-8q126 32 254 89q0 57 -15.5 90t-61.5 56l-14 -3
q-66 -32 -113.5 -100t-49.5 -124zM413 619l-286 -8q-20 20 11 59l152 -5l138 15q26 -15 -15 -61z" />
    <glyph glyph-name="Edotaccent" unicode="&#x116;" horiz-adv-x="497" 
d="M401 825q-14 -14 -33.5 -14t-33 14t-13.5 33.5t13.5 33t33.5 13.5t33.5 -13.5t13.5 -33t-14 -33.5zM206 389q204 17 216 19q9 -13 6 -37t-17 -46q-144 10 -214 7l-70 -265q125 16 278 46q21 -10 20 -35t-16 -49l-291 -29q-76 21 -77 66q85 223 121 426l19 161
q-14 9 -46 11q-18 33 0 51q162 16 391 13q20 -15 11 -53t-36 -60l-63 41q-90 14 -174 5l-29 -109z" />
    <glyph glyph-name="edotaccent" unicode="&#x117;" horiz-adv-x="481" 
d="M275 548q88 -23 124 -83.5t29 -143.5q-168 -80 -320 -112q6 -56 34 -92.5t88 -58.5q108 39 159 87q20 0 26 -9t4 -33q-20 -27 -83 -60t-109 -43q-99 22 -148 88.5t-47 159.5q1 40 19 99q86 145 224 201zM105 267v-8q126 32 254 89q0 57 -15.5 90t-61.5 56l-14 -3
q-66 -32 -113.5 -100t-49.5 -124zM335 623q-14 -14 -33.5 -14t-33 14t-13.5 33.5t13.5 33t33.5 13.5t33.5 -13.5t13.5 -33t-14 -33.5z" />
    <glyph glyph-name="Eogonek" unicode="&#x118;" horiz-adv-x="490" 
d="M206 389q204 17 216 19q9 -13 6 -37t-17 -46q-144 10 -214 7l-70 -265q125 16 278 46q21 -10 20 -35t-16 -49q-48 -16 -99 -60.5t-54 -81.5q24 -37 80 -37t104 38q13 1 19 -5t8 -20q-48 -61 -131 -61q-54 0 -93.5 26t-39.5 66q0 62 106 125l-191 -19q-76 21 -77 66
q85 223 121 426l19 161q-14 9 -46 11q-18 33 0 51q162 16 391 13q20 -15 11 -53t-36 -60l-63 41q-90 14 -174 5l-29 -109z" />
    <glyph glyph-name="eogonek" unicode="&#x119;" horiz-adv-x="479" 
d="M248 -147q50 0 98 35q26 2 27 -25q-57 -61 -142 -61q-52 0 -90 27t-38 65q0 65 80 119q-77 29 -115 91t-36 144q1 40 19 99q86 145 224 201q88 -23 124 -83.5t29 -143.5q-168 -80 -320 -112q6 -56 34 -92.5t88 -58.5q108 39 159 87q20 0 26 -9t4 -33q-31 -43 -145 -88
q-39 -15 -72.5 -53t-41.5 -72q20 -37 88 -37zM105 267v-8q126 32 254 89q0 57 -15.5 90t-61.5 56l-14 -3q-66 -32 -113.5 -100t-49.5 -124z" />
    <glyph glyph-name="Ecaron" unicode="&#x11a;" horiz-adv-x="497" 
d="M206 389q204 17 216 19q9 -13 6 -37t-17 -46q-144 10 -214 7l-70 -265q125 16 278 46q21 -10 20 -35t-16 -49l-291 -29q-76 21 -77 66q85 223 121 426l19 161q-14 9 -46 11q-18 33 0 51q162 16 391 13q20 -15 11 -53t-36 -60l-63 41q-90 14 -174 5l-29 -109zM376 792
q-43 -12 -70 8l-61 114q14 23 40 12l50 -99l102 108q55 16 64 -27z" />
    <glyph glyph-name="ecaron" unicode="&#x11b;" horiz-adv-x="481" 
d="M275 548q88 -23 124 -83.5t29 -143.5q-168 -80 -320 -112q6 -56 34 -92.5t88 -58.5q108 39 159 87q20 0 26 -9t4 -33q-20 -27 -83 -60t-109 -43q-99 22 -148 88.5t-47 159.5q1 40 19 99q86 145 224 201zM105 267v-8q126 32 254 89q0 57 -15.5 90t-61.5 56l-14 -3
q-66 -32 -113.5 -100t-49.5 -124zM435 706l-125 -116q-43 -12 -70 8l-61 114q14 23 40 12l50 -99l102 108q55 16 64 -27z" />
    <glyph glyph-name="Gbreve" unicode="&#x11e;" horiz-adv-x="616" 
d="M466 799q-103 0 -136 116q9 8 34 8q19 -57 68 -72q69 12 77 72q57 16 82 -21q-11 -46 -45 -74.5t-80 -28.5zM206 118q36 -26 103 -56q126 110 189 248l-4 5l-166 -28q-18 22 -19 43t17 36q107 -19 227 0q15 -30 18 -64t-10 -90.5t-23.5 -90.5t-39.5 -121q-51 -4 -67 26
q72 147 88 221l-8 2q-63 -160 -191 -249q-144 43 -203.5 114t-61.5 191q-1 95 66 217q114 185 323 220q58 -22 93.5 -76t39.5 -111q-49 -38 -96 -21q-9 93 -52 143l-15 -1q-117 -29 -201 -137.5t-84 -236t77 -184.5z" />
    <glyph glyph-name="gbreve" unicode="&#x11f;" horiz-adv-x="474" 
d="M321 163l-131 -150q-77 1 -118 45t-42 122.5t36 164t99 140.5t123 55t103 -94q3 66 16 100q71 0 94 -32l-83 -178q-23 -93 -42 -213t-34 -218t-21 -134q-14 -17 -52.5 -29.5t-70.5 -11.5q-69 34 -109.5 86.5t-47.5 102.5q18 27 40 37t41 -2q8 -99 92 -164q14 -1 27 7
q28 96 54 253l37 104zM106 181q0 -76 56 -109q91 90 176 170l34 147q-22 46 -40.5 67.5t-39.5 35.5q-86 -35 -136 -120.5t-50 -190.5zM341 597q-103 0 -136 116q9 8 34 8q19 -57 68 -72q69 12 77 72q57 16 82 -21q-11 -46 -45 -74.5t-80 -28.5z" />
    <glyph glyph-name="uni0122" unicode="&#x122;" horiz-adv-x="616" 
d="M206 118q36 -26 103 -56q126 110 189 248l-4 5l-166 -28q-18 22 -19 43t17 36q107 -19 227 0q15 -30 18 -64t-10 -90.5t-23.5 -90.5t-39.5 -121q-51 -4 -67 26q72 147 88 221l-8 2q-63 -160 -191 -249q-144 43 -203.5 114t-61.5 191q-1 95 66 217q114 185 323 220
q58 -22 93.5 -76t39.5 -111q-49 -38 -96 -21q-9 93 -52 143l-15 -1q-117 -29 -201 -137.5t-84 -236t77 -184.5zM254 -245q-22 -2 -32 14l54 83l-23 112q32 24 62 12.5t43 -46.5q-5 -45 -36 -93.5t-68 -81.5z" />
    <glyph glyph-name="uni0123" unicode="&#x123;" horiz-adv-x="474" 
d="M321 163l-131 -150q-77 1 -118 45t-42 122.5t36 164t99 140.5t123 55t103 -94q3 66 16 100q71 0 94 -32l-83 -178q-23 -93 -42 -213t-34 -218t-21 -134q-14 -17 -52.5 -29.5t-70.5 -11.5q-69 34 -109.5 86.5t-47.5 102.5q18 27 40 37t41 -2q8 -99 92 -164q14 -1 27 7
q28 96 54 253l37 104zM106 181q0 -76 56 -109q91 90 176 170l34 147q-22 46 -40.5 67.5t-39.5 35.5q-86 -35 -136 -120.5t-50 -190.5zM346 715l29 -93q-20 -31 -53.5 -37t-52.5 16q-17 106 89 223q24 2 39 -15z" />
    <glyph glyph-name="Imacron" unicode="&#x12a;" horiz-adv-x="225" 
d="M329 882q26 -15 -15 -61l-286 -8q-20 20 11 59l152 -5zM137 710q41 25 63 25t42 -9l-75 -325q-5 -51 -23 -187.5t-26 -213.5q-73 -7 -95 31q73 300 99 466z" />
    <glyph glyph-name="imacron" unicode="&#x12b;" horiz-adv-x="227" 
d="M316 680q26 -15 -15 -61l-286 -8q-20 20 11 59l152 -5zM113 368l-3 156q45 19 66 16t32 -16l-37 -130q-17 -145 -40 -394q-73 -7 -95 31q33 113 77 337z" />
    <glyph glyph-name="Iogonek" unicode="&#x12e;" horiz-adv-x="225" 
d="M11 -125q26 -26 79.5 -26t94.5 39q22 -2 27 -25q-57 -61 -131 -61q-59 0 -90 24.5t-31 59.5t23.5 67t66.5 54q-18 8 -27 24q73 300 99 466l15 213q41 25 63 25t42 -9l-75 -325q-5 -51 -23 -187.5t-26 -213.5q-45 -18 -75.5 -50.5t-31.5 -74.5z" />
    <glyph glyph-name="iogonek" unicode="&#x12f;" horiz-adv-x="227" 
d="M19 -122q23 -29 81.5 -29t97.5 39q22 -2 27 -25q-21 -27 -56 -44t-85 -17t-83.5 25.5t-33.5 60t26 67t69 53.5q-18 8 -26 23q33 113 77 337l-3 156q45 19 66 16t32 -16l-37 -130q-17 -145 -40 -394q-99 -41 -112 -122zM209 600.5q-15 -15.5 -38 -15.5t-39 15.5t-17.5 38
t14 37.5t38.5 15t38.5 -15t17 -37.5t-13.5 -38z" />
    <glyph glyph-name="Idotaccent" unicode="&#x130;" horiz-adv-x="225" 
d="M236 825q-14 -14 -33.5 -14t-33 14t-13.5 33.5t13.5 33t33.5 13.5t33.5 -13.5t13.5 -33t-14 -33.5zM137 710q41 25 63 25t42 -9l-75 -325q-5 -51 -23 -187.5t-26 -213.5q-73 -7 -95 31q73 300 99 466z" />
    <glyph glyph-name="dotlessi" unicode="&#x131;" horiz-adv-x="227" 
d="M113 368l-3 156q45 19 66 16t32 -16l-37 -130q-17 -145 -40 -394q-73 -7 -95 31q33 113 77 337z" />
    <glyph glyph-name="uni0136" unicode="&#x136;" horiz-adv-x="588" 
d="M151 710q41 25 63 25t42 -9l-75 -325l-1 -9l134 92l222 251q26 -4 38 -15t18 -33q-53 -63 -159.5 -156.5t-196.5 -150.5q89 -226 279 -304q19 -52 -45 -76q-82 45 -153.5 142.5t-121.5 217.5l-20 -16q-4 -31 -20 -151t-23 -193q-73 -7 -95 31q73 300 99 466zM223 -148
l-23 112q32 24 62 12.5t43 -46.5q-5 -45 -36 -93.5t-68 -81.5q-22 -2 -32 14z" />
    <glyph glyph-name="uni0137" unicode="&#x137;" horiz-adv-x="486" 
d="M127 364l4 -8q128 108 274 184q24 -4 32.5 -25t-2.5 -45q-185 -74 -284 -157q82 -158 276 -246q10 -18 -3 -36.5t-43 -30.5q-66 38 -133.5 101.5t-116.5 135.5q-19 -100 -42 -237q-66 -6 -86 24q64 217 118 568l-10 190q39 36 97 29q-1 -82 -56 -412zM173 -148l-23 112
q32 24 62 12.5t43 -46.5q-5 -45 -36 -93.5t-68 -81.5q-22 -2 -32 14z" />
    <glyph glyph-name="Lacute" unicode="&#x139;" horiz-adv-x="446" 
d="M137 710q34 21 56 25t49 -9l-78 -352l-66 -310q124 15 289 47q20 -11 19 -34.5t-15 -45.5l-302 -31q-76 19 -77 63q59 156 112 434zM257 972q32 9 65.5 -3t34.5 -29l-159 -156q-30 0 -33 17l62 93z" />
    <glyph glyph-name="lacute" unicode="&#x13a;" horiz-adv-x="245" 
d="M144 540l12 247q35 21 56.5 25t47.5 -8l-58 -224q-25 -223 -67 -580q-73 -7 -95 31q68 266 104 509zM279 1032q32 9 65.5 -3t34.5 -29l-159 -156q-30 0 -33 17l62 93z" />
    <glyph glyph-name="uni013B" unicode="&#x13b;" horiz-adv-x="446" 
d="M137 710q34 21 56 25t49 -9l-78 -352l-66 -310q124 15 289 47q20 -11 19 -34.5t-15 -45.5l-302 -31q-76 19 -77 63q59 156 112 434zM151 -245q-22 -2 -32 14l54 83l-23 112q32 24 62 12.5t43 -46.5q-5 -45 -36 -93.5t-68 -81.5z" />
    <glyph glyph-name="uni013C" unicode="&#x13c;" horiz-adv-x="245" 
d="M144 540l12 247q35 21 56.5 25t47.5 -8l-58 -224q-25 -223 -67 -580q-73 -7 -95 31q68 266 104 509zM33 -245q-22 -2 -32 14l54 83l-23 112q32 24 62 12.5t43 -46.5q-5 -45 -36 -93.5t-68 -81.5z" />
    <glyph glyph-name="Lcaron" unicode="&#x13d;" horiz-adv-x="446" 
d="M137 710q34 21 56 25t49 -9l-78 -352l-66 -310q124 15 289 47q20 -11 19 -34.5t-15 -45.5l-302 -31q-76 19 -77 63q59 156 112 434zM337 602q-22 -2 -32 14l54 83l-23 112q32 24 62 12.5t43 -46.5q-5 -45 -36 -93.5t-68 -81.5z" />
    <glyph glyph-name="lcaron" unicode="&#x13e;" horiz-adv-x="313" 
d="M144 540l12 247q35 21 56.5 25t47.5 -8l-58 -224q-25 -223 -67 -580q-73 -7 -95 31q68 266 104 509zM311 682q-22 -2 -32 14l54 83l-23 112q32 24 62 12.5t43 -46.5q-5 -45 -36 -93.5t-68 -81.5z" />
    <glyph glyph-name="Lslash" unicode="&#x141;" horiz-adv-x="501" 
d="M216 359l-63 -295q124 15 289 47q20 -11 19 -34.5t-15 -45.5l-302 -31q-76 19 -77 63q45 119 81 279l-84 -23q-22 10 -28 28t8 29l113 10q9 41 22 111l13 213q34 21 56 25t49 -9l-70 -317l105 35q16 -2 23.5 -19t-3.5 -34z" />
    <glyph glyph-name="lslash" unicode="&#x142;" horiz-adv-x="353" 
d="M239 435l93 39q17 -3 25.5 -18.5t-2.5 -34.5l-122 -35q-18 -157 -45 -386q-73 -7 -95 31q50 197 75 335l-97 -32q-23 8 -29.5 26.5t6.5 29.5l129 23q2 13 20 127l12 247q35 21 56.5 25t47.5 -8l-58 -224q-5 -42 -16 -145z" />
    <glyph glyph-name="Nacute" unicode="&#x143;" horiz-adv-x="626" 
d="M554 710q41 25 63.5 25t41.5 -9l-78 -325q-5 -46 -24.5 -182.5t-28.5 -218.5q-62 -5 -94 24q-123 237 -235 587l-45 -210q-5 -50 -24 -186.5t-28 -214.5q-72 -7 -96 31q52 202 70 287.5t34 178.5l17 213q43 25 64 25t41 -9q71 -252 169 -491l62 -109q6 28 18 81.5
t19 86.5q21 101 37 203zM595 940l-159 -156q-30 0 -33 17l62 93l30 78q32 9 65.5 -3t34.5 -29z" />
    <glyph glyph-name="nacute" unicode="&#x144;" horiz-adv-x="500" 
d="M147 388l9 -6q84 114 190 158q54 -5 86.5 -42t40.5 -81l-36 -89q-19 -166 -28 -328q-61 -7 -88 25q21 138 68 388q-6 41 -42 56q-96 -42 -190 -160q-22 -142 -52 -309q-64 -6 -86 24q56 186 88 348l-21 143q42 39 99 31q5 -24 -11 -109zM481 738l-159 -156q-30 0 -33 17
l62 93l30 78q32 9 65.5 -3t34.5 -29z" />
    <glyph glyph-name="uni0145" unicode="&#x145;" horiz-adv-x="626" 
d="M554 710q41 25 63.5 25t41.5 -9l-78 -325q-5 -46 -24.5 -182.5t-28.5 -218.5q-62 -5 -94 24q-123 237 -235 587l-45 -210q-5 -50 -24 -186.5t-28 -214.5q-72 -7 -96 31q52 202 70 287.5t34 178.5l17 213q43 25 64 25t41 -9q71 -252 169 -491l62 -109q6 28 18 81.5
t19 86.5q21 101 37 203zM243 -148l-23 112q32 24 62 12.5t43 -46.5q-5 -45 -36 -93.5t-68 -81.5q-22 -2 -32 14z" />
    <glyph glyph-name="uni0146" unicode="&#x146;" horiz-adv-x="500" 
d="M147 388l9 -6q84 114 190 158q54 -5 86.5 -42t40.5 -81l-36 -89q-19 -166 -28 -328q-61 -7 -88 25q21 138 68 388q-6 41 -42 56q-96 -42 -190 -160q-22 -142 -52 -309q-64 -6 -86 24q56 186 88 348l-21 143q42 39 99 31q5 -24 -11 -109zM196 -148l-23 112q32 24 62 12.5
t43 -46.5q-5 -45 -36 -93.5t-68 -81.5q-22 -2 -32 14z" />
    <glyph glyph-name="Ncaron" unicode="&#x147;" horiz-adv-x="626" 
d="M554 710q41 25 63.5 25t41.5 -9l-78 -325q-5 -46 -24.5 -182.5t-28.5 -218.5q-62 -5 -94 24q-123 237 -235 587l-45 -210q-5 -50 -24 -186.5t-28 -214.5q-72 -7 -96 31q52 202 70 287.5t34 178.5l17 213q43 25 64 25t41 -9q71 -252 169 -491l62 -109q6 28 18 81.5
t19 86.5q21 101 37 203zM553 908l-125 -116q-43 -12 -70 8l-61 114q14 23 40 12l50 -99l102 108q55 16 64 -27z" />
    <glyph glyph-name="ncaron" unicode="&#x148;" horiz-adv-x="500" 
d="M147 388l9 -6q84 114 190 158q54 -5 86.5 -42t40.5 -81l-36 -89q-19 -166 -28 -328q-61 -7 -88 25q21 138 68 388q-6 41 -42 56q-96 -42 -190 -160q-22 -142 -52 -309q-64 -6 -86 24q56 186 88 348l-21 143q42 39 99 31q5 -24 -11 -109zM439 706l-125 -116q-43 -12 -70 8
l-61 114q14 23 40 12l50 -99l102 108q55 16 64 -27z" />
    <glyph glyph-name="Omacron" unicode="&#x14c;" horiz-adv-x="607" 
d="M515 359q-13 111 -41.5 190.5t-84.5 134.5q-117 -55 -188 -154t-71 -216q1 -82 37.5 -155.5t104.5 -106.5q97 56 152 129t91 178zM395 735q44 0 88.5 -56t73 -143t29.5 -173q1 -63 -53 -150t-129 -150t-130 -63t-108 50t-82.5 118.5t-30.5 128.5q-1 106 50.5 209t132 166
t159.5 63zM551 884q26 -15 -15 -61l-286 -8q-20 20 11 59l152 -5z" />
    <glyph glyph-name="omacron" unicode="&#x14d;" horiz-adv-x="484" 
d="M294 665l138 15q26 -15 -15 -61l-286 -8q-20 20 11 59zM28 230q0 65 42 142t102.5 129t110.5 52t108 -93t59.5 -158t-42 -135.5t-106 -118.5t-112.5 -48t-106 70t-56 160zM275 497q-80 -45 -121 -105.5t-59 -142.5q4 -67 26 -114t68 -86q89 38 135.5 96t63.5 146
q-9 53 -39 110t-74 96z" />
    <glyph glyph-name="Ohungarumlaut" unicode="&#x150;" horiz-adv-x="607" 
d="M515 359q-13 111 -41.5 190.5t-84.5 134.5q-117 -55 -188 -154t-71 -216q1 -82 37.5 -155.5t104.5 -106.5q97 56 152 129t91 178zM395 735q44 0 88.5 -56t73 -143t29.5 -173q1 -63 -53 -150t-129 -150t-130 -63t-108 50t-82.5 118.5t-30.5 128.5q-1 106 50.5 209t132 166
t159.5 63zM563 958q21 0 29 -7l-26 -53l-80 -108q-23 -3 -36 8l75 153q17 7 38 7zM434 958q21 0 29 -7l-26 -53l-80 -108q-22 -2 -37 8l76 153q17 7 38 7z" />
    <glyph glyph-name="ohungarumlaut" unicode="&#x151;" horiz-adv-x="484" 
d="M315 754q21 0 29 -7l-26 -53l-80 -108q-22 -2 -37 8l76 153q17 7 38 7zM444 754q21 0 29 -7l-26 -53l-80 -108q-23 -3 -36 8l75 153q17 7 38 7zM28 230q0 65 42 142t102.5 129t110.5 52t108 -93t59.5 -158t-42 -135.5t-106 -118.5t-112.5 -48t-106 70t-56 160zM275 497
q-80 -45 -121 -105.5t-59 -142.5q4 -67 26 -114t68 -86q89 38 135.5 96t63.5 146q-9 53 -39 110t-74 96z" />
    <glyph glyph-name="OE" unicode="&#x152;" horiz-adv-x="860" 
d="M132 314q-2 -113 64 -196q35 -43 85 -66q101 52 157.5 136t70.5 185q-7 115 -29 180t-89 131q-117 -55 -188 -154.5t-71 -215.5zM569 389l215 19q9 -13 7 -37t-16 -46q-137 9 -210 7l-68 -259q86 6 275 40q15 -5 20 -20q8 -28 -14 -64l-283 -29q-34 10 -53.5 26t-31.5 47
q-73 -73 -131 -73t-111 50t-82.5 118.5t-30.5 128.5q-1 106 51 209t132 166t159 63q45 0 110 -79q55 45 126 58.5t217 13.5q20 -16 11.5 -53.5t-34.5 -59.5l-63 41q-95 14 -184 -10l-32 -49z" />
    <glyph glyph-name="oe" unicode="&#x153;" horiz-adv-x="823" 
d="M298 45q-60 -45 -109 -45t-105 70t-56 160q0 65 42 142t102.5 129t111.5 52q33 0 73.5 -47t67.5 -110q97 123 209 152q81 -23 115 -83.5t29 -143.5q-162 -77 -326 -112q11 -109 117 -151q129 46 173 93q20 0 26 -9t4 -33q-27 -31 -92.5 -66t-115.5 -43q-124 51 -163 154
q-43 -64 -103 -109zM189 49q87 37 134.5 94.5t64.5 149.5q-9 52 -39.5 108.5t-73.5 95.5q-80 -45 -121 -105.5t-59 -142.5q4 -67 26 -114t68 -86zM450 267v-7q146 36 254 88q-1 55 -15 88t-57 58l-14 -3q-67 -33 -116.5 -98.5t-51.5 -125.5z" />
    <glyph glyph-name="Racute" unicode="&#x154;" horiz-adv-x="568" 
d="M280 737q124 0 187.5 -51.5t63.5 -125t-37.5 -124t-121.5 -96.5q-79 -10 -131 -12q34 -98 87 -154.5t154 -100.5q10 -22 -5.5 -42.5t-49.5 -30.5q-93 59 -147.5 145t-71.5 182l-15 -1q-12 -135 -43 -323q-19 -7 -49 -0.5t-46 22.5q31 112 44 176.5t19 90.5q12 60 29 163
l29 211l-51 -3q-11 19 -9 36t15 22q69 16 149 16zM200 413q0 -20 -3 -44q82 3 157 23q53 35 74 70.5t21 93t-47 93t-142 28.5zM507 940l-159 -156q-30 0 -33 17l62 93l30 78q32 9 65.5 -3t34.5 -29z" />
    <glyph glyph-name="racute" unicode="&#x155;" horiz-adv-x="382" 
d="M152 388l12 -8q55 72 131 160q41 -6 67 -39.5t26 -78.5q-51 -38 -90 -17q3 46 -19 55q-49 -56 -115 -142q-27 -178 -54 -318q-65 -6 -85 24q60 207 87 348l-20 143q22 22 44 29t54 2q5 -24 -11 -109zM411 738l-159 -156q-30 0 -33 17l62 93l30 78q32 9 65.5 -3t34.5 -29z
" />
    <glyph glyph-name="uni0156" unicode="&#x156;" horiz-adv-x="568" 
d="M280 737q124 0 187.5 -51.5t63.5 -125t-37.5 -124t-121.5 -96.5q-79 -10 -131 -12q34 -98 87 -154.5t154 -100.5q10 -22 -5.5 -42.5t-49.5 -30.5q-93 59 -147.5 145t-71.5 182l-15 -1q-12 -135 -43 -323q-19 -7 -49 -0.5t-46 22.5q31 112 44 176.5t19 90.5q12 60 29 163
l29 211l-51 -3q-11 19 -9 36t15 22q69 16 149 16zM200 413q0 -20 -3 -44q82 3 157 23q53 35 74 70.5t21 93t-47 93t-142 28.5zM233 -148l-23 112q32 24 62 12.5t43 -46.5q-5 -45 -36 -93.5t-68 -81.5q-22 -2 -32 14z" />
    <glyph glyph-name="uni0157" unicode="&#x157;" horiz-adv-x="382" 
d="M152 388l12 -8q55 72 131 160q41 -6 67 -39.5t26 -78.5q-51 -38 -90 -17q3 46 -19 55q-49 -56 -115 -142q-27 -178 -54 -318q-65 -6 -85 24q60 207 87 348l-20 143q22 22 44 29t54 2q5 -24 -11 -109zM35 -148l-23 112q32 24 62 12.5t43 -46.5q-5 -45 -36 -93.5t-68 -81.5
q-22 -2 -32 14z" />
    <glyph glyph-name="Rcaron" unicode="&#x158;" horiz-adv-x="568" 
d="M280 737q124 0 187.5 -51.5t63.5 -125t-37.5 -124t-121.5 -96.5q-79 -10 -131 -12q34 -98 87 -154.5t154 -100.5q10 -22 -5.5 -42.5t-49.5 -30.5q-93 59 -147.5 145t-71.5 182l-15 -1q-12 -135 -43 -323q-19 -7 -49 -0.5t-46 22.5q31 112 44 176.5t19 90.5q12 60 29 163
l29 211l-51 -3q-11 19 -9 36t15 22q69 16 149 16zM200 413q0 -20 -3 -44q82 3 157 23q53 35 74 70.5t21 93t-47 93t-142 28.5zM465 908l-125 -116q-43 -12 -70 8l-61 114q14 23 40 12l50 -99l102 108q55 16 64 -27z" />
    <glyph glyph-name="rcaron" unicode="&#x159;" horiz-adv-x="382" 
d="M152 388l12 -8q55 72 131 160q41 -6 67 -39.5t26 -78.5q-51 -38 -90 -17q3 46 -19 55q-49 -56 -115 -142q-27 -178 -54 -318q-65 -6 -85 24q60 207 87 348l-20 143q22 22 44 29t54 2q5 -24 -11 -109zM369 706l-125 -116q-43 -12 -70 8l-61 114q14 23 40 12l50 -99
l102 108q55 16 64 -27z" />
    <glyph glyph-name="Sacute" unicode="&#x15a;" horiz-adv-x="565" 
d="M526 232q-13 -86 -84 -147t-201 -85q-77 24 -143 86t-77 116q20 28 37.5 34t46.5 -4q22 -69 50.5 -103.5t95.5 -75.5q86 21 142 69.5t56 106.5q-2 37 -121 103q-51 27 -103 57.5t-91.5 72.5t-46.5 86q32 79 114 134t165 62q119 -50 173 -161q-3 -19 -22.5 -31t-48.5 -9
q-22 58 -47 90t-62 59q-67 -15 -131 -63t-62.5 -82t49.5 -71t108 -68.5t121 -79.5t82 -96zM466 972q32 9 65.5 -3t34.5 -29l-159 -156q-30 0 -33 17l62 93z" />
    <glyph glyph-name="sacute" unicode="&#x15b;" horiz-adv-x="464" 
d="M332 171q0 31 -122 83q-46 20 -89.5 52.5t-53.5 68.5q12 72 80 122t152 56q48 -21 78.5 -52.5t41.5 -86.5q-3 -16 -23.5 -23.5t-56.5 -0.5q-3 60 -47 117q-53 -15 -99.5 -53t-46.5 -64q0 -28 120 -83q46 -21 89.5 -57.5t53.5 -77.5q-17 -78 -79.5 -123t-161.5 -49
q-55 16 -98.5 61t-50.5 89q18 27 34.5 35.5t41.5 3.5q18 -94 81 -145q74 15 115 52t41 75zM376 770q32 9 65.5 -3t34.5 -29l-159 -156q-30 0 -33 17l62 93z" />
    <glyph glyph-name="Scedilla" unicode="&#x15e;" horiz-adv-x="565" 
d="M240 -81q32 30 67.5 30t54 -25.5t10.5 -68.5t-45 -69t-86 -26t-91 18.5t-68 50.5q2 35 22 37q54 -54 114.5 -54t72.5 48q5 24 -8 43q-35 -4 -65 -30q-36 0 -45 27l50 106q-72 28 -132 86.5t-70 109.5q20 28 37.5 34t46.5 -4q22 -69 50.5 -103.5t95.5 -75.5
q86 21 142 69.5t56 106.5q-2 37 -121 103q-51 27 -103 57.5t-91.5 72.5t-46.5 86q32 79 114 134t165 62q119 -50 173 -161q-3 -19 -22.5 -31t-48.5 -9q-22 58 -47 90t-62 59q-67 -15 -131 -63t-62.5 -82t49.5 -71t108 -68.5t121 -79.5t82 -96q-12 -78 -71.5 -136t-167.5 -86
z" />
    <glyph glyph-name="scedilla" unicode="&#x15f;" horiz-adv-x="464" 
d="M332 171q0 31 -122 83q-46 20 -89.5 52.5t-53.5 68.5q12 72 80 122t152 56q48 -21 78.5 -52.5t41.5 -86.5q-3 -16 -23.5 -23.5t-56.5 -0.5q-3 60 -47 117q-53 -15 -99.5 -53t-46.5 -64q0 -28 120 -83q46 -21 89.5 -57.5t53.5 -77.5q-15 -67 -63 -110t-125 -56l-45 -87
q32 30 67.5 30t54 -25.5t10.5 -68.5t-45 -69t-86 -26t-91 18.5t-68 50.5q2 35 22 37q54 -54 114.5 -54t72.5 48q5 24 -8 43q-35 -4 -65 -30q-36 0 -45 27l49 103q-52 19 -92 62.5t-47 84.5q18 27 34.5 35.5t41.5 3.5q18 -94 81 -145q74 15 115 52t41 75z" />
    <glyph glyph-name="Scaron" unicode="&#x160;" horiz-adv-x="565" 
d="M526 232q-13 -86 -84 -147t-201 -85q-77 24 -143 86t-77 116q20 28 37.5 34t46.5 -4q22 -69 50.5 -103.5t95.5 -75.5q86 21 142 69.5t56 106.5q-2 37 -121 103q-51 27 -103 57.5t-91.5 72.5t-46.5 86q32 79 114 134t165 62q119 -50 173 -161q-3 -19 -22.5 -31t-48.5 -9
q-22 58 -47 90t-62 59q-67 -15 -131 -63t-62.5 -82t49.5 -71t108 -68.5t121 -79.5t82 -96zM399 792q-43 -12 -70 8l-61 114q14 23 40 12l50 -99l102 108q55 16 64 -27z" />
    <glyph glyph-name="scaron" unicode="&#x161;" horiz-adv-x="464" 
d="M332 171q0 31 -122 83q-46 20 -89.5 52.5t-53.5 68.5q12 72 80 122t152 56q48 -21 78.5 -52.5t41.5 -86.5q-3 -16 -23.5 -23.5t-56.5 -0.5q-3 60 -47 117q-53 -15 -99.5 -53t-46.5 -64q0 -28 120 -83q46 -21 89.5 -57.5t53.5 -77.5q-17 -78 -79.5 -123t-161.5 -49
q-55 16 -98.5 61t-50.5 89q18 27 34.5 35.5t41.5 3.5q18 -94 81 -145q74 15 115 52t41 75zM309 590q-43 -12 -70 8l-61 114q14 23 40 12l50 -99l102 108q55 16 64 -27z" />
    <glyph glyph-name="uni0162" unicode="&#x162;" horiz-adv-x="537" 
d="M275 0l-13 -1l-42 -80q32 30 67.5 30t54 -25.5t10.5 -68.5t-45 -69t-86 -26t-91 18.5t-68 50.5q2 35 22 37q54 -54 114.5 -54t72.5 48q5 24 -8 43q-35 -4 -65 -30q-36 0 -45 27l51 109q-15 6 -24 21q67 258 104 475l7 165l-180 -13q-30 30 -8 58q218 14 500 10
q11 -8 7 -26.5t-22 -35.5l-201 12l-65 -286q-7 -61 -23.5 -193t-23.5 -196z" />
    <glyph glyph-name="uni0163" unicode="&#x163;" horiz-adv-x="372" 
d="M136 -81q32 30 67.5 30t54 -25.5t10.5 -68.5t-45 -69t-86 -26t-91 18.5t-68 50.5q2 35 22 37q54 -54 114.5 -54t72.5 48q5 24 -8 43q-35 -4 -65 -30q-36 0 -45 27l51 108q-37 14 -44 44q73 332 90 426l-126 -24q-27 34 2 70l130 1l-1 144q59 41 100 10l-46 -147l159 31
q14 -8 13.5 -28.5t-15.5 -42.5l-163 -5q-7 -67 -23.5 -206.5t-24.5 -213.5q78 22 129 58q23 1 29 -8t4 -30q-52 -46 -150 -77z" />
    <glyph glyph-name="Tcaron" unicode="&#x164;" horiz-adv-x="537" 
d="M291 670l-180 -13q-30 30 -8 58q218 14 500 10q11 -8 7 -26.5t-22 -35.5l-201 12l-65 -286q-7 -61 -23.5 -193t-23.5 -196q-71 -7 -95 30q67 258 104 475zM505 908l-125 -116q-43 -12 -70 8l-61 114q14 23 40 12l50 -99l102 108q55 16 64 -27z" />
    <glyph glyph-name="tcaron" unicode="&#x165;" horiz-adv-x="372" 
d="M219 491l165 32q14 -8 13.5 -28.5t-15.5 -42.5l-167 -5h-1q-6 -59 -20.5 -184t-22.5 -196q78 22 129 58q23 1 29 -8t4 -30q-32 -28 -85.5 -52.5t-101.5 -34.5q-61 13 -70 52q67 301 83 384l-119 -22q-27 34 2 70l126 1l4 25l-1 159q59 41 100 10l-49 -158zM349 649
l-23 112q32 24 62 12.5t43 -46.5q-5 -45 -36 -93.5t-68 -81.5q-22 -2 -32 14z" />
    <glyph glyph-name="Umacron" unicode="&#x16a;" horiz-adv-x="570" 
d="M495 882q26 -15 -15 -61l-286 -8q-20 20 11 59l152 -5zM248 0q-87 0 -139.5 54t-62.5 112q4 25 19.5 112.5t20 116.5t14.5 93q15 95 26 222q41 25 63.5 25t41.5 -9q-105 -351 -105 -552q0 -40 31 -73.5t80.5 -43.5t110.5 19q62 61 92 157t58 264v213q41 25 63.5 25
t41.5 -9q-13 -57 -33.5 -171.5t-35 -185.5t-28.5 -122t-37 -102t-51 -80q-64 -65 -170 -65z" />
    <glyph glyph-name="umacron" unicode="&#x16b;" horiz-adv-x="501" 
d="M339 236v2q33 178 67 308q71 0 95 -32l-75 -147q-22 -143 -35 -367q-61 -7 -89 25l49 131l-12 10q-60 -78 -148 -166q-137 19 -163 94l51 173q15 170 13 279q31 4 50 -2.5t43 -28.5q-16 -142 -75 -404q13 -31 70 -48q100 90 159 173zM421 619l-286 -8q-20 20 11 59
l152 -5l138 15q26 -15 -15 -61z" />
    <glyph glyph-name="Uring" unicode="&#x16e;" horiz-adv-x="570" 
d="M248 0q-87 0 -139.5 54t-62.5 112q4 25 19.5 112.5t20 116.5t14.5 93q15 95 26 222q41 25 63.5 25t41.5 -9q-105 -351 -105 -552q0 -40 31 -73.5t80.5 -43.5t110.5 19q62 61 92 157t58 264v213q41 25 63.5 25t41.5 -9q-13 -57 -33.5 -171.5t-35 -185.5t-28.5 -122
t-37 -102t-51 -80q-64 -65 -170 -65zM420 955q-6 0 -28 -11q-16 -22 -28 -59q-23 -71 25 -71q14 0 32 12q18 26 25 59q21 70 -26 70zM362.5 954.5q34.5 30.5 75 30.5t58 -29t3 -70t-50 -71.5t-75.5 -30.5t-57.5 29t-3.5 72q16 39 50.5 69.5z" />
    <glyph glyph-name="uring" unicode="&#x16f;" horiz-adv-x="501" 
d="M339 236v2q33 178 67 308q71 0 95 -32l-75 -147q-22 -143 -35 -367q-61 -7 -89 25l49 131l-12 10q-60 -78 -148 -166q-137 19 -163 94l51 173q15 170 13 279q31 4 50 -2.5t43 -28.5q-16 -142 -75 -404q13 -31 70 -48q100 90 159 173zM389.5 612.5
q-35.5 -30.5 -75.5 -30.5t-57.5 29t-3.5 72q16 39 50.5 69.5t75 30.5t58 -29t3 -70t-50 -71.5zM330 612q14 0 32 12q18 26 25 59q21 70 -26 70q-6 0 -28 -11q-16 -22 -28 -59q-23 -71 25 -71z" />
    <glyph glyph-name="Uhungarumlaut" unicode="&#x170;" horiz-adv-x="570" 
d="M507 956q21 0 29 -7l-26 -53l-80 -108q-23 -3 -36 8l75 153q17 7 38 7zM378 956q21 0 29 -7l-26 -53l-80 -108q-22 -2 -37 8l76 153q17 7 38 7zM248 0q-87 0 -139.5 54t-62.5 112q4 25 19.5 112.5t20 116.5t14.5 93q15 95 26 222q41 25 63.5 25t41.5 -9
q-105 -351 -105 -552q0 -40 31 -73.5t80.5 -43.5t110.5 19q62 61 92 157t58 264v213q41 25 63.5 25t41.5 -9q-13 -57 -33.5 -171.5t-35 -185.5t-28.5 -122t-37 -102t-51 -80q-64 -65 -170 -65z" />
    <glyph glyph-name="uhungarumlaut" unicode="&#x171;" horiz-adv-x="501" 
d="M339 236v2q33 178 67 308q71 0 95 -32l-75 -147q-22 -143 -35 -367q-61 -7 -89 25l49 131l-12 10q-60 -78 -148 -166q-137 19 -163 94l51 173q15 170 13 279q31 4 50 -2.5t43 -28.5q-16 -142 -75 -404q13 -31 70 -48q100 90 159 173zM319 754q21 0 29 -7l-26 -53
l-80 -108q-22 -2 -37 8l76 153q17 7 38 7zM448 754q21 0 29 -7l-26 -53l-80 -108q-23 -3 -36 8l75 153q17 7 38 7z" />
    <glyph glyph-name="Uogonek" unicode="&#x172;" horiz-adv-x="570" 
d="M498 710q41 25 63.5 25t41.5 -9q-13 -57 -33.5 -171.5t-34.5 -183t-27 -116.5t-33.5 -98t-45.5 -79q-56 -67 -145 -76q-96 -39 -112 -121q32 -32 82 -32t97 39q22 -2 27 -25q-57 -61 -131 -61q-59 0 -92 25.5t-33 59.5q0 70 83 117q-69 14 -110 63t-49 99
q4 25 19.5 112.5t20 116.5t14.5 93q15 95 26 222q41 25 63.5 25t41.5 -9q-105 -351 -105 -552q0 -40 31 -73.5t80.5 -43.5t110.5 19q62 61 92 157t58 264v213z" />
    <glyph glyph-name="uogonek" unicode="&#x173;" horiz-adv-x="501" 
d="M319 -198q-51 0 -82 23t-31 58t30 71.5t78 59.5q-4 3 -12 11l49 131l-12 10q-60 -78 -148 -166q-137 19 -163 94l51 173q15 170 13 279q31 4 50 -2.5t43 -28.5q-16 -142 -75 -404q13 -31 70 -48q100 90 159 173v2q33 178 67 308q71 0 95 -32l-75 -147q-22 -143 -35 -367
q-110 -29 -133 -128q32 -25 81 -20.5t79 36.5q22 -2 27 -25q-48 -61 -126 -61z" />
    <glyph glyph-name="Ydieresis" unicode="&#x178;" horiz-adv-x="567" 
d="M512 598l-34 119q50 19 75.5 17.5t50.5 -20.5q0 -80 -45 -136q-110 -143 -196 -251q-32 -100 -44 -327q-15 -7 -44.5 -2t-50.5 21q38 107 60 284q-41 117 -168 410q17 15 42.5 20.5t43.5 -5.5l36 -170l86 -220h3l21 39zM288 904q20 0 33.5 -13.5t13.5 -33t-14 -33.5
t-33.5 -14t-33 14t-13.5 33.5t13.5 33t33.5 13.5zM450 904q20 0 33.5 -13.5t13.5 -33t-14 -33.5t-33.5 -14t-33 14t-13.5 33.5t13.5 33t33.5 13.5z" />
    <glyph glyph-name="Zacute" unicode="&#x179;" horiz-adv-x="571" 
d="M90 41l-5 -5l8 -17q-17 -24 -76 -19q-14 24 -13.5 48.5t38.5 69t97.5 105t123 127.5t125 148t94.5 151l-7 8q-215 -2 -285 13q-29 -39 -32 -100q-67 -12 -85 23q24 109 99 142q52 -16 152.5 -25.5t169.5 -7.5l19 42q34 -1 48 -8t24 -23q-18 -72 -108.5 -198t-190.5 -236
t-180 -183l5 -9q252 0 317 -11q19 36 27 76q69 15 86 -26q-18 -68 -99 -126q-51 21 -163.5 32.5t-188.5 8.5zM449 972q32 9 65.5 -3t34.5 -29l-159 -156q-30 0 -33 17l62 93z" />
    <glyph glyph-name="zacute" unicode="&#x17a;" horiz-adv-x="504" 
d="M114 87h91q76 0 143 -12q21 41 25 77q71 15 75 -29q-16 -74 -92 -123q-50 26 -126.5 35.5t-134.5 5.5l-4 -5l7 -17q-14 -24 -74 -19q-12 23 -12 51t26 57.5t69 63.5t90.5 71.5t99 91.5t84.5 110l-6 8q-92 -2 -205 23q-29 -43 -29 -101q-59 -14 -78 22q19 110 94 143
q142 -44 235 -42l17 42q35 -2 50 -10t25 -26q-6 -74 -134 -196q-99 -94 -166.5 -150t-74.5 -62zM374 770q32 9 65.5 -3t34.5 -29l-159 -156q-30 0 -33 17l62 93z" />
    <glyph glyph-name="Zdotaccent" unicode="&#x17b;" horiz-adv-x="571" 
d="M407 825q-14 -14 -33.5 -14t-33 14t-13.5 33.5t13.5 33t33.5 13.5t33.5 -13.5t13.5 -33t-14 -33.5zM90 41l-5 -5l8 -17q-17 -24 -76 -19q-14 24 -13.5 48.5t38.5 69t97.5 105t123 127.5t125 148t94.5 151l-7 8q-215 -2 -285 13q-29 -39 -32 -100q-67 -12 -85 23
q24 109 99 142q52 -16 152.5 -25.5t169.5 -7.5l19 42q34 -1 48 -8t24 -23q-18 -72 -108.5 -198t-190.5 -236t-180 -183l5 -9q252 0 317 -11q19 36 27 76q69 15 86 -26q-18 -68 -99 -126q-51 21 -163.5 32.5t-188.5 8.5z" />
    <glyph glyph-name="zdotaccent" unicode="&#x17c;" horiz-adv-x="504" 
d="M332 623q-14 -14 -33.5 -14t-33 14t-13.5 33.5t13.5 33t33.5 13.5t33.5 -13.5t13.5 -33t-14 -33.5zM114 87h91q76 0 143 -12q21 41 25 77q71 15 75 -29q-16 -74 -92 -123q-50 26 -126.5 35.5t-134.5 5.5l-4 -5l7 -17q-14 -24 -74 -19q-12 23 -12 51t26 57.5t69 63.5
t90.5 71.5t99 91.5t84.5 110l-6 8q-92 -2 -205 23q-29 -43 -29 -101q-59 -14 -78 22q19 110 94 143q142 -44 235 -42l17 42q35 -2 50 -10t25 -26q-6 -74 -134 -196q-99 -94 -166.5 -150t-74.5 -62z" />
    <glyph glyph-name="Zcaron" unicode="&#x17d;" horiz-adv-x="571" 
d="M90 41l-5 -5l8 -17q-17 -24 -76 -19q-14 24 -13.5 48.5t38.5 69t97.5 105t123 127.5t125 148t94.5 151l-7 8q-215 -2 -285 13q-29 -39 -32 -100q-67 -12 -85 23q24 109 99 142q52 -16 152.5 -25.5t169.5 -7.5l19 42q34 -1 48 -8t24 -23q-18 -72 -108.5 -198t-190.5 -236
t-180 -183l5 -9q252 0 317 -11q19 36 27 76q69 15 86 -26q-18 -68 -99 -126q-51 21 -163.5 32.5t-188.5 8.5zM382 792q-43 -12 -70 8l-61 114q14 23 40 12l50 -99l102 108q55 16 64 -27z" />
    <glyph glyph-name="zcaron" unicode="&#x17e;" horiz-adv-x="504" 
d="M114 87h91q76 0 143 -12q21 41 25 77q71 15 75 -29q-16 -74 -92 -123q-50 26 -126.5 35.5t-134.5 5.5l-4 -5l7 -17q-14 -24 -74 -19q-12 23 -12 51t26 57.5t69 63.5t90.5 71.5t99 91.5t84.5 110l-6 8q-92 -2 -205 23q-29 -43 -29 -101q-59 -14 -78 22q19 110 94 143
q142 -44 235 -42l17 42q35 -2 50 -10t25 -26q-6 -74 -134 -196q-99 -94 -166.5 -150t-74.5 -62zM307 590q-43 -12 -70 8l-61 114q14 23 40 12l50 -99l102 108q55 16 64 -27z" />
    <glyph glyph-name="florin" unicode="&#x192;" horiz-adv-x="468" 
d="M276 397l174 39q14 -7 13.5 -28t-15.5 -42l-177 -10q-28 -223 -92 -528q-40 -39 -104 -22l-83 151q11 31 43 24l80 -108q62 195 102 474l-133 -25q-27 34 2 70l136 -6l3 24l-3 304q42 47 77.5 70.5t84.5 29.5q56 -9 94.5 -54t42.5 -98q-19 -15 -43.5 -19.5t-40.5 5.5
q-2 43 -15 66.5t-42 46.5q-43 -10 -84 -43q3 -127 -20 -321z" />
    <glyph glyph-name="uni0218" unicode="&#x218;" horiz-adv-x="565" 
d="M526 232q-13 -86 -84 -147t-201 -85q-77 24 -143 86t-77 116q20 28 37.5 34t46.5 -4q22 -69 50.5 -103.5t95.5 -75.5q86 21 142 69.5t56 106.5q-2 37 -121 103q-51 27 -103 57.5t-91.5 72.5t-46.5 86q32 79 114 134t165 62q119 -50 173 -161q-3 -19 -22.5 -31t-48.5 -9
q-22 58 -47 90t-62 59q-67 -15 -131 -63t-62.5 -82t49.5 -71t108 -68.5t121 -79.5t82 -96zM201 -245q-22 -2 -32 14l54 83l-23 112q32 24 62 12.5t43 -46.5q-5 -45 -36 -93.5t-68 -81.5z" />
    <glyph glyph-name="uni0219" unicode="&#x219;" horiz-adv-x="464" 
d="M332 171q0 31 -122 83q-46 20 -89.5 52.5t-53.5 68.5q12 72 80 122t152 56q48 -21 78.5 -52.5t41.5 -86.5q-3 -16 -23.5 -23.5t-56.5 -0.5q-3 60 -47 117q-53 -15 -99.5 -53t-46.5 -64q0 -28 120 -83q46 -21 89.5 -57.5t53.5 -77.5q-17 -78 -79.5 -123t-161.5 -49
q-55 16 -98.5 61t-50.5 89q18 27 34.5 35.5t41.5 3.5q18 -94 81 -145q74 15 115 52t41 75zM131 -245q-22 -2 -32 14l54 83l-23 112q32 24 62 12.5t43 -46.5q-5 -45 -36 -93.5t-68 -81.5z" />
    <glyph glyph-name="uni021A" unicode="&#x21a;" horiz-adv-x="537" 
d="M291 670l-180 -13q-30 30 -8 58q218 14 500 10q11 -8 7 -26.5t-22 -35.5l-201 12l-65 -286q-7 -61 -23.5 -193t-23.5 -196q-71 -7 -95 30q67 258 104 475zM183 -148l-23 112q32 24 62 12.5t43 -46.5q-5 -45 -36 -93.5t-68 -81.5q-22 -2 -32 14z" />
    <glyph glyph-name="uni021B" unicode="&#x21b;" horiz-adv-x="372" 
d="M382 492l-163 -5q-7 -67 -23.5 -206.5t-24.5 -213.5q78 22 129 58q23 1 29 -8t4 -30q-32 -28 -85.5 -52.5t-101.5 -34.5q-61 13 -70 52q73 332 90 426l-126 -24q-27 34 2 70l130 1l-1 144q59 41 100 10l-46 -147l159 31q14 -8 13.5 -28.5t-15.5 -42.5zM123 -148l-23 112
q32 24 62 12.5t43 -46.5q-5 -45 -36 -93.5t-68 -81.5q-22 -2 -32 14z" />
    <glyph glyph-name="uni02BC" unicode="&#x2bc;" horiz-adv-x="297" 
d="M194 644q-25 -2 -36 15l61 94l-26 126q36 27 70 14t48 -52q-6 -51 -41 -105.5t-76 -91.5z" />
    <glyph glyph-name="circumflex" unicode="&#x2c6;" horiz-adv-x="301" 
d="M69 616l141 130q44 11 70 -8l66 -138q-16 -14 -38 -15t-32 8l-51 108l-126 -111q-28 4 -30 26z" />
    <glyph glyph-name="caron" unicode="&#x2c7;" horiz-adv-x="279" 
d="M220 590q-43 -12 -70 8l-61 114q14 23 40 12l50 -99l102 108q55 16 64 -27z" />
    <glyph glyph-name="uni02C9" unicode="&#x2c9;" horiz-adv-x="335" 
d="M384 680q26 -15 -15 -61l-286 -8q-20 20 11 59l152 -5z" />
    <glyph glyph-name="breve" unicode="&#x2d8;" horiz-adv-x="286" 
d="M226 597q-103 0 -136 116q9 8 34 8q19 -57 68 -72q69 12 77 72q57 16 82 -21q-11 -46 -45 -74.5t-80 -28.5z" />
    <glyph glyph-name="dotaccent" unicode="&#x2d9;" horiz-adv-x="118" 
d="M160 623q-14 -14 -33.5 -14t-33 14t-13.5 33.5t13.5 33t33.5 13.5t33.5 -13.5t13.5 -33t-14 -33.5z" />
    <glyph glyph-name="ring" unicode="&#x2da;" horiz-adv-x="212" 
d="M193 753q-6 0 -28 -11q-16 -22 -28 -59q-23 -71 25 -71q14 0 32 12q18 26 25 59q21 70 -26 70zM135.5 752.5q34.5 30.5 75 30.5t58 -29t3 -70t-50 -71.5t-75.5 -30.5t-57.5 29t-3.5 72q16 39 50.5 69.5z" />
    <glyph glyph-name="ogonek" unicode="&#x2db;" horiz-adv-x="292" 
d="M9 -113q19 -34 75 -34t97 35q22 -2 27 -25q-57 -61 -131 -61q-59 0 -98.5 30t-32.5 73q13 78 135 104q42 0 36 -23q-47 -9 -75 -35t-33 -64z" />
    <glyph glyph-name="tilde" unicode="&#x2dc;" horiz-adv-x="348" 
d="M191 713q81 -33 108 -75l4 -1l59 69q21 4 34 -5t8 -24q-29 -50 -111 -92q-51 17 -78.5 34t-43.5 43l-5 -2l-52 -71q-18 -1 -31 8t-12 21q15 21 27 35t37.5 32.5t55.5 27.5z" />
    <glyph glyph-name="hungarumlaut" unicode="&#x2dd;" horiz-adv-x="267" 
d="M311 754q21 0 29 -7l-26 -53l-80 -108q-23 -3 -36 8l75 153q17 7 38 7zM182 754q21 0 29 -7l-26 -53l-80 -108q-22 -2 -37 8l76 153q17 7 38 7z" />
    <glyph glyph-name="pi" unicode="&#x3c0;" horiz-adv-x="753" 
d="M592 426h-13q-58 -175 -55 -395q36 10 96 42q47 -10 26 -67q-37 -20 -75.5 -24.5t-99.5 -1.5q-25 200 52 449q-83 6 -160 25q-55 -293 -129 -447q-29 -31 -88 -27q-66 39 -87 78q-8 14 -25 53q16 24 30 32t37 2q12 -48 24.5 -73.5t40.5 -50.5q10 2 14 3q34 54 72.5 192
t54.5 253q-46 14 -87 32l-5 -1l-88 -66q-28 5 -28 23q33 58 114 110q208 -89 361 -97l6 3l109 95q48 -11 59 -53q-29 -36 -65 -54.5t-91 -34.5z" />
    <glyph glyph-name="uni0901" unicode="&#x901;" 
d="M121 717.5q-57 -33.5 -105 -33.5t-97 58t-64 120q30 43 69 29q4 -51 28.5 -96.5t59.5 -71.5q93 12 141 108q40 7 52 -34q-27 -46 -84 -79.5zM76.5 788.5q-14.5 -14.5 -35 -14.5t-35 14.5t-14.5 35t14.5 35t35 14.5t35 -14.5t14.5 -35t-14.5 -35z" />
    <glyph glyph-name="uni0902" unicode="&#x902;" 
d="M24 704q-18 0 -31 13t-13 31t12.5 30.5t31 12.5t31 -12.5t12.5 -30.5t-12.5 -31t-30.5 -13z" />
    <glyph glyph-name="uni0903" unicode="&#x903;" horiz-adv-x="223" 
d="M133.5 57q-16.5 -17 -41 -17t-41.5 17t-17 41t17 41t41.5 17t41 -17t16.5 -41t-16.5 -41zM177.5 391q-16.5 -17 -41 -17t-41.5 17t-17 41t17 41t41.5 17t41 -17t16.5 -41t-16.5 -41z" />
    <glyph glyph-name="uni0905" unicode="&#x905;" horiz-adv-x="640" 
d="M262 295q-39 21 -88 21q-17 8 -25 28t-1 41q20 6 44 17q62 27 96 65.5t39 97.5l-3 4q-39 8 -84.5 -10.5t-82.5 -58.5q-20 5 -34 19t-13 29q87 86 199 86q77 -14 87 -86q-22 -127 -157 -183l2 -4q46 -10 82 -36q133 67 224 121l30 127h-109l-12 11q7 24 25 35h107l7 30
q65 0 87 -30h99l12 -11q-7 -24 -25 -35h-107l-61 -132l-71 -441q-57 -7 -81 23l76 325l34 42l-10 11q-93 -56 -191 -110q19 -25 19 -47q0 -50 -49.5 -101t-112 -80.5t-106.5 -29.5q-39 3 -74 30.5t-35 53.5q0 33 78 79q61 37 185 99zM116 86q43 0 116.5 48t73.5 96
q0 12 -8 28q-194 -107 -218 -130q-8 -8 -8 -16t14.5 -17t29.5 -9z" />
    <glyph glyph-name="uni0906" unicode="&#x906;" horiz-adv-x="833" 
d="M262 295q-39 21 -88 21q-17 8 -25 28t-1 41q20 6 44 17q62 27 96 65.5t39 97.5l-3 4q-39 8 -84.5 -10.5t-82.5 -58.5q-20 5 -34 19t-13 29q87 86 199 86q77 -14 87 -86q-22 -127 -157 -183l2 -4q46 -10 82 -36q133 67 224 121l30 127h-109l-12 11q7 24 25 35h107l7 30
q65 0 87 -30h99l7 30q65 0 87 -30h99l12 -11q-7 -24 -25 -35h-107l-61 -132l-71 -441q-57 -7 -81 23l129 550h-109l-61 -132l-71 -441q-57 -7 -81 23l76 325l34 42l-10 11q-93 -56 -191 -110q19 -25 19 -47q0 -50 -49.5 -101t-112 -80.5t-106.5 -29.5q-39 3 -74 30.5
t-35 53.5q0 33 78 79q61 37 185 99zM116 86q43 0 116.5 48t73.5 96q0 12 -8 28q-194 -107 -218 -130q-8 -8 -8 -16t14.5 -17t29.5 -9z" />
    <glyph glyph-name="uni0907" unicode="&#x907;" horiz-adv-x="431" 
d="M384 195q0 -45 -69 -93.5t-126 -48.5q-35 0 -110 52l-4 -4q35 -36 80 -99t70 -113q0 -13 -15 -22.5t-34 -11.5q-94 178 -175 257q36 68 77 61q22 -23 56 -42.5t63 -19.5t68.5 27.5t52.5 52.5v8q-11 19 -60.5 35t-110.5 37.5t-93 50.5q0 24 9 49t25 36q8 4 102 33t120 46
l1 3q-33 45 -102 84h-188l-12 11q7 24 25 35h538l12 -11q-7 -24 -25 -35h-253q47 -31 72 -68q0 -43 -25 -65q-33 -20 -122 -47.5t-103 -35.5l-3 -10q14 -18 112.5 -49.5t129.5 -59.5q17 -22 17 -43z" />
    <glyph glyph-name="uni0908" unicode="&#x908;" horiz-adv-x="431" 
d="M384 195q0 -45 -69 -93.5t-126 -48.5q-35 0 -110 52l-4 -4q35 -36 80 -99t70 -113q0 -13 -15 -22.5t-34 -11.5q-94 178 -175 257q36 68 77 61q22 -23 56 -42.5t63 -19.5t68.5 27.5t52.5 52.5v8q-11 19 -60.5 35t-110.5 37.5t-93 50.5q0 24 9 49t25 36q8 4 102 33t120 46
l1 3q-33 45 -102 84h-188l-12 11q7 24 25 35h538l12 -11q-7 -24 -25 -35h-253q47 -31 72 -68q0 -43 -25 -65q-33 -20 -122 -47.5t-103 -35.5l-3 -10q14 -18 112.5 -49.5t129.5 -59.5q17 -22 17 -43zM245 856l-12 -10q3 -75 46 -174q-6 -18 -36 -18q-35 84 -87 168
q41 88 104 93q35 -6 68 -25t51 -42q4 -35 -51 -49q-31 44 -83 57z" />
    <glyph glyph-name="uni0909" unicode="&#x909;" horiz-adv-x="495" 
d="M435 245q0 -64 -78.5 -136.5t-141.5 -72.5q-57 3 -117.5 70t-88.5 144q11 24 29 33t35 1q19 -67 67.5 -131t82.5 -64t88 52.5t54 89.5t-82 54q-29 6 -59 6q-17 8 -25 28t-1 41q19 6 44 17q134 59 144 173l-3 4q-39 8 -84.5 -10.5t-82.5 -58.5q-20 5 -34 19t-13 29
q29 27 50 40h-238l-12 11q7 24 25 35h642l12 -11q-7 -24 -25 -35h-181q10 -17 13 -40q-9 -62 -50.5 -106t-119.5 -82l3 -5q59 -3 103 -34t44 -61z" />
    <glyph glyph-name="uni090A" unicode="&#x90a;" horiz-adv-x="600" 
d="M426 245q0 -64 -78.5 -136.5t-141.5 -72.5q-57 3 -117.5 70t-88.5 144q11 24 29 33t35 1q19 -67 67.5 -131t82.5 -64t88 52.5t54 89.5q0 34 -70 52q-37 8 -71 8q-17 8 -25 28t-1 41q19 6 44 17q134 59 144 173l-3 4q-39 8 -84.5 -10.5t-82.5 -58.5q-20 5 -34 19t-13 29
q29 27 50 40h-229l-12 11q7 24 25 35h748l12 -11q-7 -24 -25 -35h-296q10 -17 13 -40q-8 -68 -73 -106l3 -4l64 25q55 -17 89.5 -44.5t66.5 -76.5q-15 -110 -115 -192q-26 5 -36.5 16.5t-8.5 26.5q80 57 104 141q-23 50 -100 81q-79 -17 -164 -59l3 -5q59 -3 103 -32t44 -59
z" />
    <glyph glyph-name="uni090B" unicode="&#x90b;" horiz-adv-x="778" 
d="M659 29q-45 -29 -82 -29t-71.5 30t-34.5 60q0 55 58 137t123 130l-112 1q-78 -61 -127 -107l-40 -251q-57 -7 -81 23l36 153l28 38l-9 9q-47 -50 -138.5 -114t-183.5 -109q-50 25 -34 56q192 74 345 215q-63 71 -168 137l-26 -47q-77 7 -88 51q11 28 39.5 48t48.5 20
q35 0 97.5 -52t128.5 -126l9 9l-14 19l58 243h-400l-12 11q7 24 25 35h398l7 30q65 0 87 -30h393l12 -11q-7 -24 -25 -35h-401l-61 -132l-21 -131q40 35 71 66q-16 15 -19 26q13 28 38.5 44t51.5 16q20 -23 10 -59q64 -5 104 9q28 -7 38.5 -23t9.5 -49q-72 -26 -130.5 -99
t-74.5 -157q18 -36 53 -43q54 8 110 80q12 1 23 -10t12 -25q-16 -28 -61 -57z" />
    <glyph glyph-name="uni090C" unicode="&#x90c;" horiz-adv-x="681" 
d="M553 22.5q-46 -28.5 -77.5 -28.5t-76.5 35t-45 72q0 29 106 104q39 28 73.5 66t37.5 72q-15 34 -46 39q-70 -87 -210 -190q-36 2 -56 16.5t-20 31.5q22 38 27 71q-3 28 -19 53.5t-37 29.5q-44 -18 -73.5 -58.5t-35.5 -83.5q9 -63 37.5 -112t91.5 -87q8 -15 -4 -31
t-43 -22q-62 43 -104 110.5t-42 137.5q0 37 38 96t93 93q40 10 83 5q34 -24 49 -54.5t21 -75.5q-4 -23 -16 -56l5 -3q92 66 199 185q26 0 49 -10q51 71 42 145h-574l-12 11q7 24 25 35h719l12 -11q-7 -24 -25 -35h-86q6 -84 -62 -172q24 -24 36 -60q-17 -42 -46.5 -79.5
t-54 -59t-63 -51.5t-55.5 -46q6 -20 25 -39t38 -27q61 25 100 85q24 -2 35 -13.5t6 -29.5q-19 -30 -65 -58.5z" />
    <glyph glyph-name="uni090D" unicode="&#x90d;" horiz-adv-x="456" 
d="M461 573q0 -56 -19 -122t-56 -113q-22 1 -36.5 10t-14.5 22q48 66 54 130l-5 73h-157q-17 -75 -28 -119t-33.5 -110.5t-47.5 -114.5l9 -6l140 82q58 3 80 -45q7 -91 -26.5 -198t-94.5 -166q-44 7 -52 37q49 54 74.5 112.5t40.5 134.5l-3 68l-8 6l-161 -97q-29 5 -51 20.5
t-27 36.5q77 154 101 266v93h-119l-12 11q7 24 25 35h563l12 -11q-7 -24 -25 -35h-123zM399 654q-38 0 -82 58t-63 120q30 43 69 29q19 -121 82 -168q87 14 136 108q40 7 52 -34q-28 -44 -83.5 -78.5t-110.5 -34.5z" />
    <glyph glyph-name="uni090F" unicode="&#x90f;" horiz-adv-x="456" 
d="M461 573q0 -56 -19 -122t-56 -113q-22 1 -36.5 10t-14.5 22q48 66 54 130l-5 73h-157q-17 -75 -28 -119t-33.5 -110.5t-47.5 -114.5l9 -6l140 82q58 3 80 -45q7 -91 -26.5 -198t-94.5 -166q-44 7 -52 37q49 54 74.5 112.5t40.5 134.5l-3 68l-8 6l-161 -97q-29 5 -51 20.5
t-27 36.5q77 154 101 266v93h-119l-12 11q7 24 25 35h563l12 -11q-7 -24 -25 -35h-123z" />
    <glyph glyph-name="uni0910" unicode="&#x910;" horiz-adv-x="456" 
d="M461 573q0 -56 -19 -122t-56 -113q-22 1 -36.5 10t-14.5 22q48 66 54 130l-5 73h-157q-17 -75 -28 -119t-33.5 -110.5t-47.5 -114.5l9 -6l140 82q58 3 80 -45q7 -91 -26.5 -198t-94.5 -166q-44 7 -52 37q49 54 74.5 112.5t40.5 134.5l-3 68l-8 6l-161 -97q-29 5 -51 20.5
t-27 36.5q77 154 101 266v93h-119l-12 11q7 24 25 35h563l12 -11q-7 -24 -25 -35h-123zM280 915q26 0 61 -45.5t59.5 -95t46.5 -102.5q-2 -18 -35 -18q-54 116 -109 182l-33 -30q-72 18 -73 66q31 43 83 43z" />
    <glyph glyph-name="uni0911" unicode="&#x911;" horiz-adv-x="833" 
d="M835 684q-38 0 -82 58t-63 120q30 43 69 29q19 -121 82 -168q87 14 136 108q40 7 52 -34q-28 -44 -83.5 -78.5t-110.5 -34.5zM262 295q-39 21 -88 21q-17 8 -25 28t-1 41q20 6 44 17q62 27 96 65.5t39 97.5l-3 4q-39 8 -84.5 -10.5t-82.5 -58.5q-20 5 -34 19t-13 29
q87 86 199 86q77 -14 87 -86q-22 -127 -157 -183l2 -4q46 -10 82 -36q133 67 224 121l30 127h-109l-12 11q7 24 25 35h107l7 30q65 0 87 -30h99l7 30q65 0 87 -30h99l12 -11q-7 -24 -25 -35h-107l-61 -132l-71 -441q-57 -7 -81 23l129 550h-109l-61 -132l-71 -441
q-57 -7 -81 23l76 325l34 42l-10 11q-93 -56 -191 -110q19 -25 19 -47q0 -50 -49.5 -101t-112 -80.5t-106.5 -29.5q-39 3 -74 30.5t-35 53.5q0 33 78 79q61 37 185 99zM116 86q43 0 116.5 48t73.5 96q0 12 -8 28q-194 -107 -218 -130q-8 -8 -8 -16t14.5 -17t29.5 -9z" />
    <glyph glyph-name="uni0913" unicode="&#x913;" horiz-adv-x="833" 
d="M262 295q-39 21 -88 21q-17 8 -25 28t-1 41q20 6 44 17q62 27 96 65.5t39 97.5l-3 4q-39 8 -84.5 -10.5t-82.5 -58.5q-20 5 -34 19t-13 29q87 86 199 86q77 -14 87 -86q-22 -127 -157 -183l2 -4q46 -10 82 -36q133 67 224 121l30 127h-109l-12 11q7 24 25 35h107l7 30
q65 0 87 -30h99l7 30q65 0 87 -30h99l12 -11q-7 -24 -25 -35h-107l-61 -132l-71 -441q-57 -7 -81 23l129 550h-109l-61 -132l-71 -441q-57 -7 -81 23l76 325l34 42l-10 11q-93 -56 -191 -110q19 -25 19 -47q0 -50 -49.5 -101t-112 -80.5t-106.5 -29.5q-39 3 -74 30.5
t-35 53.5q0 33 78 79q61 37 185 99zM116 86q43 0 116.5 48t73.5 96q0 12 -8 28q-194 -107 -218 -130q-8 -8 -8 -16t14.5 -17t29.5 -9zM680 945q26 0 61 -45.5t59.5 -95t46.5 -102.5q-2 -18 -35 -18q-54 116 -109 182l-33 -30q-72 18 -73 66q31 43 83 43z" />
    <glyph glyph-name="uni0914" unicode="&#x914;" horiz-adv-x="833" 
d="M262 295q-39 21 -88 21q-17 8 -25 28t-1 41q20 6 44 17q62 27 96 65.5t39 97.5l-3 4q-39 8 -84.5 -10.5t-82.5 -58.5q-20 5 -34 19t-13 29q87 86 199 86q77 -14 87 -86q-22 -127 -157 -183l2 -4q46 -10 82 -36q133 67 224 121l30 127h-109l-12 11q7 24 25 35h107l7 30
q65 0 87 -30h99l7 30q65 0 87 -30h99l12 -11q-7 -24 -25 -35h-107l-61 -132l-71 -441q-57 -7 -81 23l129 550h-109l-61 -132l-71 -441q-57 -7 -81 23l76 325l34 42l-10 11q-93 -56 -191 -110q19 -25 19 -47q0 -50 -49.5 -101t-112 -80.5t-106.5 -29.5q-39 3 -74 30.5
t-35 53.5q0 33 78 79q61 37 185 99zM116 86q43 0 116.5 48t73.5 96q0 12 -8 28q-194 -107 -218 -130q-8 -8 -8 -16t14.5 -17t29.5 -9zM677 945q30 0 67 -45q69 -83 102 -191q-4 -25 -38 -25q-24 26 -40 39t-43 21l-30 -36q-67 13 -71 59q26 40 68.5 40t101.5 -66l3 3
q-52 97 -101 122l-33 -30q-72 18 -73 66q31 43 87 43z" />
    <glyph glyph-name="uni0915" unicode="&#x915;" horiz-adv-x="602" 
d="M594 386q0 -141 -169 -285q-35 12 -31 30q126 116 126 248q0 61 -50 66q-14 -17 -62 -71.5t-66 -76.5l-48 -297q-57 -7 -81 23l32 137l37 75l-11 7q-74 -88 -115 -140q-60 4 -93.5 35.5t-33.5 92t26 124.5t70.5 107t92.5 43q19 0 36.5 -14.5t25 -26.5t25.5 -41l2 1
l35 150h-321l-12 11q7 24 25 35h319l7 30q65 0 87 -30h296l12 -11q-7 -24 -25 -35h-302l-83 -201l7 -5q21 25 58.5 70.5t46.5 55.5q62 9 99.5 -20t37.5 -87zM222 453q-39 0 -79 -72t-40 -153q0 -60 35 -77q89 93 142 160l13 54q-34 88 -71 88z" />
    <glyph glyph-name="uni0916" unicode="&#x916;" horiz-adv-x="731" 
d="M334 494q0 24 -17 48t-40.5 24t-54 -15t-52.5 -41q-34 7 -36 33q7 12 27 30h-140l-12 11q7 24 25 35h637l7 30q65 0 87 -30h107l12 -11q-7 -24 -25 -35h-115l-61 -132l-71 -441q-57 -7 -81 23l36 152l27 39l-10 9q-37 -50 -139 -108.5t-168 -66.5q-64 12 -117 62
q-49 47 -86.5 92.5t-49.5 59.5q21 69 70 73l11 -10q93 10 161 59t68 110zM559 452q-37 0 -67.5 -64.5t-30.5 -111.5t40 -47q25 0 56 31t47 69l8 36q-6 33 -20.5 60t-32.5 27zM379 573q29 -35 29 -79t-49 -98t-118 -88t-128 -34l-5 -8q78 -96 114.5 -126t62.5 -30
q44 0 187 79l-3 5q-33 0 -55.5 25t-22.5 62.5t18.5 88t58 92t87.5 41.5t71 -67l3 1l31 136h-281z" />
    <glyph glyph-name="uni0917" unicode="&#x917;" horiz-adv-x="466" 
d="M606 619l12 -11q-7 -24 -25 -35h-105l-61 -132l-71 -441q-57 -7 -81 23l129 550h-136q-32 -214 -75 -379q-23 -23 -54 -33q-99 9 -138 81q2 37 24 52q72 44 153 101q5 26 11 78l-8 100h-161l-12 11q7 24 25 35h382l7 30q65 0 87 -30h97zM119 220l9 7q20 48 37 109
q-70 -48 -105 -71q23 -33 59 -45z" />
    <glyph glyph-name="uni0918" unicode="&#x918;" horiz-adv-x="539" 
d="M680 619l12 -11q-7 -24 -25 -35h-107l-61 -132l-71 -441q-57 -7 -81 23l52 223l34 43l-8 9q-65 -65 -151.5 -123t-146.5 -74q-32 11 -53.5 32.5t-21.5 45.5q80 100 170 171l-4 5q-75 -24 -133 -31q-25 11 -41 35t-14 48q65 82 191 166h-200l-12 11q7 24 25 35h453l7 30
q65 0 87 -30h99zM435 400l41 173h-159q-140 -86 -225 -184l6 -9q53 5 130 30q21 -1 36 -20.5t20 -48.5q-113 -95 -167 -173l7 -7q86 33 172 101.5t139 137.5z" />
    <glyph glyph-name="uni0919" unicode="&#x919;" horiz-adv-x="426" 
d="M567 619l12 -11q-7 -24 -25 -35h-243q46 -29 71 -66q2 -14 -4.5 -33t-20.5 -32q-38 -26 -124.5 -56t-108.5 -41l-1 -6q31 -22 124 -54.5t128 -59.5q9 -20 2 -54t-19 -45q-44 -37 -143 -67.5t-188 -41.5q-42 36 -18 63q216 19 317 97l1 7q-34 26 -134 60.5t-136 66.5
q-6 68 30 85q175 50 233 91l2 7q-22 35 -109 79h-192l-12 11q7 24 25 35h533zM394 389q17 0 29.5 -12.5t12.5 -29.5t-12.5 -29.5t-29.5 -12.5t-29.5 12.5t-12.5 29.5t12.5 29.5t29.5 12.5z" />
    <glyph glyph-name="uni091A" unicode="&#x91a;" horiz-adv-x="597" 
d="M352.5 195.5q-65.5 -45.5 -114.5 -45.5t-98.5 42.5t-49.5 80.5q0 28 50 57q62 34 138 67l-1 7q-157 -19 -233 -14q-9 15 -10.5 41t7.5 35q146 -25 287 -17q9 -3 15.5 -27t4.5 -40q-169 -68 -169 -101q0 -21 28 -44t55 -23q40 0 116 62.5t118 133.5l38 163h-513l-12 11
q7 24 25 35h511l7 30q65 0 87 -30h99l12 -11q-7 -24 -25 -35h-107l-61 -132l-71 -441q-57 -7 -81 23l49 206l39 72l-14 11q-61 -71 -126.5 -116.5z" />
    <glyph glyph-name="uni091B" unicode="&#x91b;" horiz-adv-x="580" 
d="M670 619l12 -11q-7 -24 -25 -35h-103q4 -39 -23 -96q35 -34 34 -63q-4 -68 -101 -160q17 -87 15.5 -121t-59.5 -84t-116 -79q-39 23 -30 45q38 21 61.5 35t51.5 38t43 48q-3 40 -12 78q-68 -55 -145.5 -98.5t-132.5 -57.5q-32 13 -54.5 34.5t-21.5 46.5q96 137 173 191
l-4 5q-95 -28 -138 -31q-26 14 -43 39.5t-14 48.5q33 41 89 91.5t114 89.5h-215l-12 11q7 24 25 35h631zM503 412q1 10 -12 23t-28 20q-14 -4 -19 -30.5t8 -102.5q50 56 51 90zM129 128l11 -9q60 18 133 61.5t131 95.5q-14 60 -18 91.5t3 90.5q12 17 37 34.5t52 19.5
q7 -3 14 -7q14 38 7 68h-155q-67 -37 -133 -92.5t-109 -103.5l8 -14q28 2 136 28q63 -17 52 -74q-100 -86 -169 -189z" />
    <glyph glyph-name="uni091C" unicode="&#x91c;" horiz-adv-x="615" 
d="M171 118q-55 0 -91.5 64.5t-29.5 135.5q4 36 27.5 75.5t62.5 62.5q32 6 45 -33q-58 -49 -64 -103q-12 -112 59 -147q46 12 84.5 52.5t41.5 73.5q2 15 -11 25t-31 16q6 29 25.5 50.5t39.5 20.5q18 -19 54 -37q74 6 142 84l27 115h-535l-12 11q7 24 25 35h533l7 30
q65 0 87 -30h99l12 -11q-7 -24 -25 -35h-107l-61 -132l-71 -441q-57 -7 -81 23l67 285l41 74l-6 5q-83 -70 -148 -66l-25 12l-5 -6l17 -23q-5 -66 -76.5 -126t-116.5 -60z" />
    <glyph glyph-name="uni091D" unicode="&#x91d;" horiz-adv-x="651" 
d="M393 201q0 -52 -72 -102q-80 -54 -170 -39q-38 15 -76 46l-5 -5q94 -104 167 -212q0 -13 -15 -22.5t-34 -11.5q-67 114 -191 247q15 31 40 53t49 15q33 -36 86 -57q55 0 95.5 21t62.5 54l-1 7q-9 21 -60.5 37t-113.5 36.5t-90 51.5q0 24 9.5 50t25.5 37q7 3 99.5 32
t120.5 46l2 4q-22 34 -101 84h-200l-12 11q7 24 25 35h565l7 30q65 0 87 -30h99l12 -11q-7 -24 -25 -35h-107l-61 -132l-71 -441q-57 -7 -81 23l73 308l32 39l-7 9q-111 -70 -218 -116q54 -22 54 -62zM557 440l31 133h-270q47 -31 72 -68q0 -43 -25 -65
q-32 -18 -121.5 -48.5t-104.5 -36.5l-3 -10q18 -17 66 -34t79 -21q68 28 146.5 70t129.5 80z" />
    <glyph glyph-name="uni091E" unicode="&#x91e;" horiz-adv-x="576" 
d="M717 619l12 -11q-7 -24 -25 -35h-107l-61 -132l-71 -441q-57 -7 -81 23l72 303l31 37l-7 12q-58 -42 -143 -80q-17 -76 -79 -130t-130 -50q-28 2 -57 43.5t-39 96.5q34 21 55 10q19 -82 53 -98q42 7 87 51.5t48 105.5q3 46 -11.5 74.5t-54.5 45.5q-53 -5 -106 -49
q-39 21 -35 46q75 59 145 55q56 -4 89.5 -46t38.5 -98q101 48 142 96l30 125h-492l-12 11q7 24 25 35h490l7 30q65 0 87 -30h99z" />
    <glyph glyph-name="uni091F" unicode="&#x91f;" horiz-adv-x="456" 
d="M329 489q-19 34 -106 84h-192l-12 11q7 24 25 35h532l12 -11q-7 -24 -25 -35h-249q51 -32 77 -76q-2 -29 -20 -53q-33 -28 -113.5 -77.5t-93.5 -58.5q-74 -50 -73 -87q2 -65 101 -105q108 12 186 111q40 0 47 -42q-34 -42 -101.5 -78t-140.5 -38q-71 15 -119.5 58.5
t-48.5 91.5q0 35 25.5 63t59.5 49.5t84 50.5q103 59 144 100z" />
    <glyph glyph-name="uni0920" unicode="&#x920;" horiz-adv-x="514" 
d="M13 224q0 35 32.5 66.5t74.5 57.5t93 53.5t78.5 47t42.5 40.5l2 9q-22 36 -92 75h-216l-12 11q7 24 25 35h572l12 -11q-7 -24 -25 -35h-269q51 -33 68 -71q-4 -29 -25 -54q-31 -24 -70 -47q58 -22 111.5 -58t69.5 -75q-4 -89 -90.5 -150.5t-185.5 -68.5
q-79 11 -137.5 62.5t-58.5 112.5zM109 167q36 -49 103 -74q79 9 140.5 61t65.5 108q-39 54 -160 111q-97 -58 -113.5 -72t-31.5 -27q-26 -24 -26 -50.5t22 -56.5z" />
    <glyph glyph-name="uni0921" unicode="&#x921;" horiz-adv-x="426" 
d="M567 619l12 -11q-7 -24 -25 -35h-243q46 -29 71 -66q2 -14 -4.5 -33t-20.5 -32q-38 -26 -124.5 -56t-108.5 -41l-1 -6q31 -22 124 -54.5t128 -59.5q9 -20 2 -54t-19 -45q-44 -37 -143 -67.5t-188 -41.5q-42 36 -18 63q216 19 317 97l1 7q-34 26 -134 60.5t-136 66.5
q-6 68 30 85q175 50 233 91l2 7q-22 35 -109 79h-192l-12 11q7 24 25 35h533z" />
    <glyph glyph-name="uni0922" unicode="&#x922;" horiz-adv-x="488" 
d="M94 216q0 -43 47 -85q25 20 87.5 72t106.5 85q41 -4 77 -35.5t36 -59.5q0 -42 -84.5 -96t-144.5 -54t-121 52t-80 110q2 40 25 67q32 28 154 99.5t148 103.5l4 11q-13 24 -34.5 41t-67.5 46h-207l-12 11q7 24 25 35h558l12 -11q-7 -24 -25 -35h-269q63 -41 74 -69.5
t-10.5 -57.5t-73.5 -63.5t-101 -60.5q-124 -69 -124 -106zM337 233q-34 -22 -164 -126q22 -13 47 -21q120 24 161 104q-5 28 -44 43z" />
    <glyph glyph-name="uni0923" unicode="&#x923;" horiz-adv-x="593" 
d="M297 228.5q-64 -44.5 -111.5 -44.5t-91 58t-43.5 112q0 37 38 98.5t96 120.5h-164l-12 11q7 24 25 35h507l7 30q65 0 87 -30h100l12 -11q-7 -24 -25 -35h-108l-61 -132l-71 -441q-57 -7 -81 23l129 550h-182q51 -105 40 -224q-27 -76 -91 -120.5zM279 573h-17
q-53 -44 -93.5 -108t-47.5 -116q9 -82 68 -114q48 15 87 51t49 84q0 89 -46 203z" />
    <glyph glyph-name="uni0924" unicode="&#x924;" horiz-adv-x="484" 
d="M625 619l12 -11q-7 -24 -25 -35h-107l-61 -132l-71 -441q-57 -7 -81 23l74 314l23 28l-6 8q-59 -33 -141.5 -65t-137.5 -47q-16 -19 -21 -43q23 -89 122 -184q0 -27 -43 -37q-62 55 -98 104t-54 113q6 34 24.5 66t47.5 44q153 22 305 105l34 144h-400l-12 11q7 24 25 35
h398l7 30q65 0 87 -30h99z" />
    <glyph glyph-name="uni0925" unicode="&#x925;" horiz-adv-x="528" 
d="M287 203q-67 -45 -116.5 -45t-98 41t-48.5 82q0 26 28.5 53.5t88.5 68t83 58.5l-80 17q-52 36 -52 72.5t53.5 87.5t107.5 51q40 0 72.5 -38t34.5 -80q-2 -38 -30 -77t-67 -70.5t-77.5 -59t-65.5 -50.5t-27 -40.5t26.5 -40t55.5 -22.5q51 0 130.5 67.5t123.5 139.5l36 155
h-53l-12 11q7 24 25 35h51l7 30q65 0 87 -30h99l12 -11q-7 -24 -25 -35h-107l-61 -132l-71 -441q-57 -7 -81 23l50 213l40 73l-11 9q-61 -70 -128 -115zM262 496q35 40 35 67.5t-17 50t-38.5 22.5t-55.5 -30t-34 -48t19 -35z" />
    <glyph glyph-name="uni0926" unicode="&#x926;" horiz-adv-x="469" 
d="M353 214q-135 -171 -136 -173q-81 13 -141.5 63t-60.5 108q0 37 42 76t95 68q153 82 186 128l2 7q-15 32 -95 82h-220l-12 11q7 24 25 35h527l12 -11q-7 -24 -25 -35h-221q57 -38 74 -71q7 -28 -22 -70q-26 -24 -98.5 -66t-129.5 -82.5t-69 -75.5q12 -33 43.5 -61
t69.5 -38q19 21 145 171q51 5 83 -47q-38 -89 -126 -379q-53 0 -61 29q14 39 41 112q65 175 77 216z" />
    <glyph glyph-name="uni0927" unicode="&#x927;" horiz-adv-x="566" 
d="M707 619l12 -11q-7 -24 -25 -35h-107l-61 -132l-71 -441q-57 -7 -81 23l54 233l34 42l-10 11q-65 -65 -157.5 -126t-160.5 -82q-32 11 -53.5 32.5t-21.5 45.5q82 103 175 176l-4 5q-58 -26 -128 -35q-30 15 -52.5 42t-19.5 53q24 63 110.5 148t184.5 122q25 2 46 -19
t29 -58q-18 -60 -93 -118t-148 -79l-61 10q-6 -12 -8 -18q1 -17 20 -28q53 4 130 35q21 -1 36 -20.5t20 -48.5q-117 -99 -172 -178l7 -7q78 28 180 102t151 137l41 173h-69l-12 11q7 24 25 35h67l7 30q65 0 87 -30h99zM117 458l37 7q50 12 110.5 60t77.5 92q-3 16 -16 19
q-52 -25 -112.5 -75.5t-96.5 -102.5z" />
    <glyph glyph-name="uni0928" unicode="&#x928;" horiz-adv-x="494" 
d="M635 619l12 -11q-7 -24 -25 -35h-601l-12 11q7 24 25 35h601zM410 480l-9 4q-97 -70 -211 -145q23 -59 20 -139q-24 -24 -61 -36q-94 9 -135 78q5 36 25 55q9 6 45.5 28t49.5 30t46 28.5t49.5 31.5t45.5 30t49 33q45 32 89 65q54 -3 84 -36l-49 -107l-65 -400
q-57 -7 -81 23zM138 220l9 7q8 41 -1 83l-72 -48q25 -32 64 -42z" />
    <glyph glyph-name="uni092A" unicode="&#x92a;" horiz-adv-x="451" 
d="M592 619l12 -11q-7 -24 -25 -35h-107l-61 -132l-71 -441q-57 -7 -81 23l72 309l20 38l-9 6q-129 -121 -229 -206q-21 -2 -50 11.5t-42 33.5q72 270 94 358h-94l-12 11q7 24 25 35h365l7 30q65 0 87 -30h99zM358 445l30 128h-176l-67 -142q-5 -31 -17 -92.5t-17 -92.5
l9 -5q130 100 238 204z" />
    <glyph glyph-name="uni092B" unicode="&#x92b;" horiz-adv-x="631" 
d="M606.5 486.5q33.5 -33.5 33.5 -81t-13.5 -84.5t-42.5 -72t-57.5 -61.5t-74.5 -63.5l-31 30q73 60 109 115t36 118.5t-50 78.5q-26 -25 -79 -75.5t-79 -75.5l-51 -315q-57 -7 -81 23l66 284l18 38l-7 7q-111 -104 -198 -178q-21 -2 -50 11.5t-42 33.5l101 354h-93l-12 11
q7 24 25 35h332l7 30q65 0 87 -30h289l12 -11q-7 -24 -25 -35h-297l-60 -132l-25 -65l6 -6q124 124 148 149q65 1 98.5 -32.5zM319 422l36 151h-143l-67 -142q-7 -30 -21 -90.5t-21 -90.5l9 -5q98 73 207 177z" />
    <glyph glyph-name="uni092C" unicode="&#x92c;" horiz-adv-x="404" 
d="M280 266q-12 -14 -141 -164q-60 4 -93.5 35.5t-33.5 90.5q0 99 59.5 187.5t141.5 88.5q59 0 91 -84l2 1l35 152h-320l-12 11q7 24 25 35h318l7 30q65 0 87 -30h99l12 -11q-7 -24 -25 -35h-107l-61 -132l-71 -441q-57 -7 -81 23l41 173l36 63zM122 373q-36 -67 -36 -136
t35 -86q99 102 100 103q-53 56 -99 119zM217 453q-36 0 -68 -40q48 -67 103 -127l29 30l11 48q-36 89 -75 89z" />
    <glyph glyph-name="uni092D" unicode="&#x92d;" horiz-adv-x="502" 
d="M603 619l12 -11q-7 -24 -25 -35h-197l-12 11q7 24 25 35h197zM90.5 467.5q-29.5 20.5 -29.5 40t19 38.5q36 22 90.5 65.5t85.5 76.5q18 2 42 -7t32 -21q-26 -117 -47 -222q91 62 144 105q54 -3 84 -36l-49 -107l-65 -400q-57 -7 -81 23l108 457l-8 4q-53 -39 -145 -102
q-33 -151 -41 -188q-19 -19 -62 -33q-99 9 -138 81q2 37 24 52q10 6 153 95q1 4 13 58l13 27l-6 7l-78 -34q-29 0 -58.5 20.5zM146 491l87 24q19 91 21 100l-3 2l-132 -108q9 -14 27 -18zM148 220l9 5q12 33 34 105l-102 -65q21 -31 59 -45z" />
    <glyph glyph-name="uni092E" unicode="&#x92e;" horiz-adv-x="476" 
d="M617 619l12 -11q-7 -24 -25 -35h-338q-9 -56 -23 -137q67 45 153 107q54 -3 84 -36l-49 -107l-65 -400q-57 -7 -81 23l108 457l-10 5q-88 -62 -151 -104q-24 -121 -41 -187q-23 -23 -54 -33q-99 9 -138 81q2 37 24 52q112 71 152 98q7 39 12 81l-8 100h-158l-12 11
q7 24 25 35h583zM162 334l-104 -68q22 -34 59 -46l9 7q22 53 36 107z" />
    <glyph glyph-name="uni092F" unicode="&#x92f;" horiz-adv-x="522" 
d="M278.5 202q-73.5 -51 -117 -51t-94.5 43.5t-51 75.5t41 67t90 64t90 66.5t41 68.5q0 14 -14.5 23t-31.5 9q-48 0 -112 -52q-35 9 -32 34q11 12 26 23h-93l-12 11q7 24 25 35h436l7 30q65 0 87 -30h99l12 -11q-7 -24 -25 -35h-107l-61 -132l-71 -441q-57 -7 -81 23l52 218
l39 72l-11 9q-58 -69 -131.5 -120zM348 539q0 -36 -41 -79t-90 -74q-131 -85 -131 -116q0 -20 27.5 -44.5t54.5 -24.5q40 0 127 70.5t127 141.5l37 160h-125q14 -16 14 -34z" />
    <glyph glyph-name="uni0930" unicode="&#x930;" horiz-adv-x="359" 
d="M316 500q0 23 -18 44.5t-42 21.5q-55 0 -104 -56q-34 7 -36 33q7 12 27 30h-122l-12 11q7 24 25 35h466l12 -11q-7 -24 -25 -35h-125q28 -36 28 -73q-1 -54 -50 -108.5t-117.5 -87t-127.5 -32.5l-5 -8q109 -133 195 -229q-5 -17 -16.5 -26.5t-22.5 -8.5q-27 28 -115 127
t-125 135q21 69 70 73q16 -6 35 -5q66 3 135.5 53.5t69.5 116.5z" />
    <glyph glyph-name="uni0931" unicode="&#x931;" horiz-adv-x="359" 
d="M316 500q0 23 -18 44.5t-42 21.5q-55 0 -104 -56q-34 7 -36 33q7 12 27 30h-122l-12 11q7 24 25 35h466l12 -11q-7 -24 -25 -35h-125q28 -36 28 -73q-1 -54 -50 -108.5t-117.5 -87t-127.5 -32.5l-5 -8q109 -133 195 -229q-5 -17 -16.5 -26.5t-22.5 -8.5q-27 28 -115 127
t-125 135q21 69 70 73q16 -6 35 -5q66 3 135.5 53.5t69.5 116.5zM2.5 64.5q14.5 14.5 35 14.5t35 -14.5t14.5 -35t-14.5 -35t-35 -14.5t-35 14.5t-14.5 35t14.5 35z" />
    <glyph glyph-name="uni0932" unicode="&#x932;" horiz-adv-x="595" 
d="M27 249q0 42 44.5 104t86.5 84q15 5 43.5 6.5t39.5 -1.5q62 -40 70 -130q-6 -33 -16 -56l4 -3q97 69 205 201l28 119h-511l-12 11q7 24 25 35h509l7 30q65 0 87 -30h99l12 -11q-7 -24 -25 -35h-107l-61 -132l-71 -441q-57 -7 -81 23l65 278l25 44l-9 9
q-131 -121 -180 -159q-29 -1 -52 12.5t-23 32.5q24 42 27 71q-11 66 -55 83q-39 -12 -71.5 -55t-38.5 -86q17 -135 129 -200q8 -19 -6 -33.5t-41 -19.5q-73 52 -109.5 120t-36.5 129z" />
    <glyph glyph-name="uni0933" unicode="&#x933;" horiz-adv-x="744" 
d="M698 285q0 -93 -64.5 -179t-159.5 -106q-63 30 -128 121q-87 -83 -175 -121q-71 15 -117 65t-46 110t76 143.5t165 92.5q82 -92 122 -189q27 29 67.5 75.5t62.5 71t50.5 46t51.5 24.5q26 86 20 134h-603l-12 11q7 24 25 35h852l12 -11q-7 -24 -25 -35h-195
q4 -57 -29 -151q21 -21 35.5 -61.5t14.5 -75.5zM167 55q88 50 171 133q-46 93 -106 161q-57 -22 -103.5 -76.5t-53.5 -104.5q13 -84 92 -113zM595 150q43 62 43 118t-30 109q-33 -18 -67.5 -50t-84 -88t-74.5 -82q49 -68 104 -101q66 32 109 94z" />
    <glyph glyph-name="uni0935" unicode="&#x935;" horiz-adv-x="416" 
d="M290 262l-129 -160q-67 4 -104 42.5t-37 103.5q0 97 59.5 176.5t142.5 79.5q57 0 95 -84l6 3l32 150h-334l-12 11q7 24 25 35h331l6 30q65 0 87 -30h99l12 -11q-7 -24 -25 -35h-107l-61 -132l-71 -441q-57 -7 -81 23l40 173l37 57zM226 453q-49 0 -90.5 -62t-41.5 -139
t49 -101l150 165l11 49q-34 88 -78 88z" />
    <glyph glyph-name="uni0936" unicode="&#x936;" horiz-adv-x="580" 
d="M721 619l12 -11q-7 -24 -25 -35h-107l-61 -132l-71 -441q-57 -7 -81 23l129 550h-87l-12 11q7 24 25 35h85l7 30q65 0 87 -30h99zM114 552q0 35 53.5 86t105 51t85.5 -50t34 -114q0 -96 -89 -172t-206 -81l-5 -8q109 -133 195 -229q-5 -17 -16.5 -26.5t-22.5 -8.5
q-27 28 -115 127t-125 135q21 69 70 73q68 -19 148 33q50 32 78 78l-123 18q-22 12 -44.5 40.5t-22.5 47.5zM320 483q6 19 6 53t-15.5 67t-42 33t-60.5 -30t-34 -51q0 -11 11.5 -25.5t22.5 -21.5z" />
    <glyph glyph-name="uni0937" unicode="&#x937;" horiz-adv-x="451" 
d="M592 619l12 -11q-7 -24 -25 -35h-107l-61 -132l-71 -441q-57 -7 -81 23l72 309l20 38l-9 6q-129 -121 -229 -206q-21 -2 -50 11.5t-42 33.5q72 270 94 358h-94l-12 11q7 24 25 35h365l7 30q65 0 87 -30h99zM111 246l9 -5q73 56 159 132q-74 72 -103 124l-31 -66
q-5 -31 -17 -92.5t-17 -92.5zM358 445l30 128h-176l-16 -35q50 -68 118 -134q27 25 44 41z" />
    <glyph glyph-name="uni0938" unicode="&#x938;" horiz-adv-x="613" 
d="M262 261q-11 0 -64 33q-56 -23 -104 -22l-5 -8q109 -133 195 -229q-5 -17 -16.5 -26.5t-22.5 -8.5q-27 28 -115 127t-125 135q21 69 70 73q19 -9 50 -4q65 9 127.5 58t62.5 105q0 24 -17 48t-37 24q-61 0 -110 -56q-34 7 -36 33q7 12 27 30h-121l-12 11q7 24 25 35h527
l7 30q65 0 87 -30h99l12 -11q-7 -24 -25 -35h-107l-61 -132l-71 -441q-57 -7 -81 23l69 292l30 40l-9 13q-54 -42 -133 -74.5t-116 -32.5zM360 573q29 -35 29 -76.5t-40.5 -91t-100.5 -85.5q14 -8 20 -8q36 0 122 39.5t129 88.5l31 133h-190z" />
    <glyph glyph-name="uni0939" unicode="&#x939;" horiz-adv-x="457" 
d="M241 199q33 30 33 50.5t-31 20.5q-45 0 -99 -33t-69 -85q6 -42 46 -76t100 -43q80 8 134 59q33 -2 38 -46q-23 -24 -73 -42t-99 -21q-80 3 -145.5 55.5t-65.5 116t75.5 110.5t168.5 43l3 6q-14 9 -55.5 28t-66.5 25q-11 17 1.5 49.5t31.5 40.5q143 5 214 55l2 7
q-15 26 -70 54h-248l-12 11q7 24 25 35h470l12 -11q-7 -24 -25 -35h-141q28 -22 38 -50q1 -36 -31 -62q-75 -41 -206 -55l-2 -8q93 -45 119.5 -68t27.5 -48q0 -54 -50 -111q-20 -1 -34.5 8t-15.5 20z" />
    <glyph glyph-name="uni093C" unicode="&#x93c;" 
d="M102.5 -5.5q-14.5 -14.5 -35 -14.5t-35 14.5t-14.5 35t14.5 35t35 14.5t35 -14.5t14.5 -35t-14.5 -35z" />
    <glyph glyph-name="uni093D" unicode="&#x93d;" horiz-adv-x="532" 
d="M217 0q-49 0 -107 36t-86 71q-2 16 6.5 27t22.5 11q33 -34 79 -61t89 -37q64 18 121 79t58 107q2 32 -140 81q-52 19 -96 45.5t-43 55t38.5 87.5t83.5 85q178 41 420 32q14 -6 9.5 -26t-24.5 -31q-201 9 -381 -22q-62 -45 -78 -125q37 -25 113.5 -55.5t121.5 -58
t44 -63.5q-2 -75 -93.5 -156.5t-157.5 -81.5z" />
    <glyph glyph-name="uni093E" unicode="&#x93e;" horiz-adv-x="193" 
d="M334 619l12 -11q-7 -24 -25 -35h-107l-61 -132l-71 -441q-57 -7 -81 23l129 550h-109l-12 11q7 24 25 35h107l7 30q65 0 87 -30h99z" />
    <glyph glyph-name="uni093F" unicode="&#x93f;" horiz-adv-x="206" 
d="M188 894q15 20 40.5 34.5t52.5 16.5q109 -82 224 -261q-2 -31 -41 -32q-41 70 -95 135.5t-105 102.5l-8 -5l-54 -266h131l12 -11q-7 -24 -25 -35h-127q-69 -344 -107 -573q-59 -5 -81 23l134 550h-118l-12 11q7 24 25 35h114z" />
    <glyph glyph-name="uni0940" unicode="&#x940;" horiz-adv-x="193" 
d="M198 945q20 0 44.5 -15.5t33.5 -38.5q-74 -226 -88 -272h146l12 -11q-7 -24 -25 -35h-146l-93 -573q-57 -7 -81 23q16 65 123 550h-103l-12 11q7 24 25 35h100q40 180 58 252l-7 5q-70 -51 -160 -213q-19 1 -34.5 10.5t-18.5 25.5q40 77 113.5 161.5t112.5 84.5z" />
    <glyph glyph-name="uni0941" unicode="&#x941;" 
d="M-163 -20q29 0 69.5 -27t40.5 -48q0 -49 -73.5 -91.5t-141.5 -46.5q-63 4 -122 46.5t-89 97.5q29 43 71 39q21 -55 51 -87t87 -57q57 10 99 37t42 64q-11 13 -23 14q-32 -2 -75 -30q-24 8 -36.5 23.5t-6.5 34.5q48 31 107 31z" />
    <glyph glyph-name="uni0942" unicode="&#x942;" 
d="M-304 -119q0 33 31.5 66t71.5 33t122 -55t129 -103q6 -36 -51 -55q-99 131 -198 165q-34 0 -46 -41q25 -36 86 -59q13 -39 -33 -52q-42 16 -77 48t-35 53z" />
    <glyph glyph-name="uni0943" unicode="&#x943;" 
d="M-201 -233q-29 0 -55.5 23.5t-26.5 45.5q0 36 46.5 79.5t101.5 64.5q27 -7 37 -20.5t6 -26.5q-58 -18 -87 -39t-49 -60l13 -22q54 -7 102.5 16t78.5 55q49 -10 39 -44q-82 -72 -206 -72z" />
    <glyph glyph-name="uni0944" unicode="&#x944;" 
d="M-273 -105q60 54 143 85q51 -3 38 -44q-75 -19 -124 -55l5 -11q35 6 65 13q22 -8 30.5 -29t-0.5 -37q-82 -27 -120 -65l12 -14q65 2 128 54q16 0 24.5 -16t5.5 -30q-30 -24 -75 -37.5t-89 -12.5q-33 7 -48 27.5t-11 44.5q47 40 116 65l-3 6q-49 -17 -76 5t-21 51z" />
    <glyph glyph-name="uni0945" unicode="&#x945;" 
d="M9 684q-38 0 -82 58t-63 120q30 43 69 29q19 -121 82 -168q87 14 136 108q40 7 52 -34q-28 -44 -83.5 -78.5t-110.5 -34.5z" />
    <glyph glyph-name="uni0947" unicode="&#x947;" 
d="M-146 945q26 0 61 -45.5t59.5 -95t46.5 -102.5q-2 -18 -35 -18q-54 116 -109 182l-33 -30q-72 18 -73 66q31 43 83 43z" />
    <glyph glyph-name="uni0948" unicode="&#x948;" 
d="M-148 945q30 0 68 -45q68 -83 101 -191q-4 -25 -38 -25q-24 26 -40 39t-43 21l-30 -36q-67 13 -71 59q26 40 68.5 40t101.5 -66l3 3q-52 97 -101 122l-33 -30q-72 18 -73 66q31 43 87 43z" />
    <glyph glyph-name="uni0949" unicode="&#x949;" horiz-adv-x="193" 
d="M206 684q-38 0 -82 58t-63 120q30 43 69 29q19 -121 82 -168q87 14 136 108q40 7 52 -34q-28 -44 -83.5 -78.5t-110.5 -34.5zM235 619h99l12 -11q-7 -24 -25 -35h-107l-61 -132l-71 -441q-57 -7 -81 23l129 550h-109l-12 11q7 24 25 35h107l7 30q65 0 87 -30z" />
    <glyph glyph-name="uni094B" unicode="&#x94b;" horiz-adv-x="193" 
d="M334 619l12 -11q-7 -24 -25 -35h-107l-61 -132l-71 -441q-57 -7 -81 23l129 550h-109l-12 11q7 24 25 35h107l7 30q65 0 87 -30h99zM40 945q26 0 61 -45.5t59.5 -95t46.5 -102.5q-2 -18 -35 -18q-54 116 -109 182l-33 -30q-72 18 -73 66q31 43 83 43z" />
    <glyph glyph-name="uni094C" unicode="&#x94c;" horiz-adv-x="193" 
d="M334 619l12 -11q-7 -24 -25 -35h-107l-61 -132l-71 -441q-57 -7 -81 23l129 550h-109l-12 11q7 24 25 35h107l7 30q65 0 87 -30h99zM-16 767q26 40 68.5 40t101.5 -66l3 3q-52 97 -101 122l-33 -30q-72 18 -73 66q31 43 87 43q30 0 67 -45q69 -83 102 -191
q-4 -25 -38 -25q-24 26 -40 39t-43 21l-30 -36q-67 13 -71 59z" />
    <glyph glyph-name="uni094D" unicode="&#x94d;" 
d="M22 -223q-75 56 -137 88.5t-151 59.5q-1 49 36 56q71 -25 146 -74.5t125 -106.5q3 -16 -19 -23z" />
    <glyph glyph-name="uni0950" unicode="&#x950;" horiz-adv-x="1066" 
d="M608 210q0 -63 -87.5 -133t-195.5 -77q-87 29 -149.5 89t-96.5 137q19 60 70 47q61 -169 184 -222q74 15 133.5 60t77.5 97q-8 27 -36.5 61t-57.5 56q-42 -20 -91 -31q-40 17 -17 50q99 26 144 60t80 105q-28 66 -91 87q-30 -7 -48.5 -16.5t-26 -13t-25 -15t-21 -14
t-24 -17t-21.5 -15.5q-30 1 -43.5 17.5t-3.5 34.5q62 42 111.5 64t114.5 28q50 -12 90 -50t55 -81q-12 -53 -52 -98.5t-98 -77.5q22 -11 43 -26l67 15q32 24 74.5 72.5t80 84.5t73.5 46q66 -36 95.5 -95.5t34.5 -155.5q-21 -82 -93.5 -160.5t-182.5 -122.5q-47 21 -29 57
q89 26 157.5 91.5t94.5 142.5q-7 71 -25.5 113.5t-55.5 69.5q-41 -24 -101.5 -92t-88.5 -93l-61 -6q42 -44 42 -73zM830 616.5q-57 -33.5 -105 -33.5t-97 58t-64 120q30 43 69 29q4 -51 28.5 -96.5t59.5 -71.5q93 12 141 108q40 7 52 -34q-27 -46 -84 -79.5zM785.5 687.5
q-14.5 -14.5 -35 -14.5t-35 14.5t-14.5 35t14.5 35t35 14.5t35 -14.5t14.5 -35t-14.5 -35z" />
    <glyph glyph-name="uni0958" unicode="&#x958;" horiz-adv-x="602" 
d="M594 386q0 -141 -169 -285q-35 12 -31 30q126 116 126 248q0 61 -50 66q-14 -17 -62 -71.5t-66 -76.5l-48 -297q-57 -7 -81 23l32 137l37 75l-11 7q-74 -88 -115 -140q-60 4 -93.5 35.5t-33.5 92t26 124.5t70.5 107t92.5 43q19 0 36.5 -14.5t25 -26.5t25.5 -41l2 1
l35 150h-321l-12 11q7 24 25 35h319l7 30q65 0 87 -30h296l12 -11q-7 -24 -25 -35h-302l-83 -201l7 -5q21 25 58.5 70.5t46.5 55.5q62 9 99.5 -20t37.5 -87zM222 453q-39 0 -79 -72t-40 -153q0 -60 35 -77q89 93 142 160l13 54q-34 88 -71 88zM50.5 64.5q14.5 14.5 35 14.5
t35 -14.5t14.5 -35t-14.5 -35t-35 -14.5t-35 14.5t-14.5 35t14.5 35z" />
    <glyph glyph-name="uni0959" unicode="&#x959;" horiz-adv-x="731" 
d="M334 494q0 24 -17 48t-40.5 24t-54 -15t-52.5 -41q-34 7 -36 33q7 12 27 30h-140l-12 11q7 24 25 35h637l7 30q65 0 87 -30h107l12 -11q-7 -24 -25 -35h-115l-61 -132l-71 -441q-57 -7 -81 23l36 152l27 39l-10 9q-37 -50 -139 -108.5t-168 -66.5q-64 12 -117 62
q-49 47 -86.5 92.5t-49.5 59.5q21 69 70 73l11 -10q93 10 161 59t68 110zM559 452q-37 0 -67.5 -64.5t-30.5 -111.5t40 -47q25 0 56 31t47 69l8 36q-6 33 -20.5 60t-32.5 27zM379 573q29 -35 29 -79t-49 -98t-118 -88t-128 -34l-5 -8q78 -96 114.5 -126t62.5 -30
q44 0 187 79l-3 5q-33 0 -55.5 25t-22.5 62.5t18.5 88t58 92t87.5 41.5t71 -67l3 1l31 136h-281zM49.5 64.5q14.5 14.5 35 14.5t35 -14.5t14.5 -35t-14.5 -35t-35 -14.5t-35 14.5t-14.5 35t14.5 35z" />
    <glyph glyph-name="uni095A" unicode="&#x95a;" horiz-adv-x="466" 
d="M606 619l12 -11q-7 -24 -25 -35h-105l-61 -132l-71 -441q-57 -7 -81 23l129 550h-136q-32 -214 -75 -379q-23 -23 -54 -33q-99 9 -138 81q2 37 24 52q72 44 153 101q5 26 11 78l-8 100h-161l-12 11q7 24 25 35h382l7 30q65 0 87 -30h97zM119 220l9 7q20 48 37 109
q-70 -48 -105 -71q23 -33 59 -45zM31.5 64.5q14.5 14.5 35 14.5t35 -14.5t14.5 -35t-14.5 -35t-35 -14.5t-35 14.5t-14.5 35t14.5 35z" />
    <glyph glyph-name="uni095B" unicode="&#x95b;" horiz-adv-x="615" 
d="M171 118q-55 0 -91.5 64.5t-29.5 135.5q4 36 27.5 75.5t62.5 62.5q32 6 45 -33q-58 -49 -64 -103q-12 -112 59 -147q46 12 84.5 52.5t41.5 73.5q2 15 -11 25t-31 16q6 29 25.5 50.5t39.5 20.5q18 -19 54 -37q74 6 142 84l27 115h-535l-12 11q7 24 25 35h533l7 30
q65 0 87 -30h99l12 -11q-7 -24 -25 -35h-107l-61 -132l-71 -441q-57 -7 -81 23l67 285l41 74l-6 5q-83 -70 -148 -66l-25 12l-5 -6l17 -23q-5 -66 -76.5 -126t-116.5 -60zM41.5 64.5q14.5 14.5 35 14.5t35 -14.5t14.5 -35t-14.5 -35t-35 -14.5t-35 14.5t-14.5 35t14.5 35z
" />
    <glyph glyph-name="uni095C" unicode="&#x95c;" horiz-adv-x="426" 
d="M567 619l12 -11q-7 -24 -25 -35h-243q46 -29 71 -66q2 -14 -4.5 -33t-20.5 -32q-38 -26 -124.5 -56t-108.5 -41l-1 -6q31 -22 124 -54.5t128 -59.5q9 -20 2 -54t-19 -45q-44 -37 -143 -67.5t-188 -41.5q-42 36 -18 63q216 19 317 97l1 7q-34 26 -134 60.5t-136 66.5
q-6 68 30 85q175 50 233 91l2 7q-22 35 -109 79h-192l-12 11q7 24 25 35h533zM109.5 -33.5q14.5 14.5 35 14.5t35 -14.5t14.5 -35t-14.5 -35t-35 -14.5t-35 14.5t-14.5 35t14.5 35z" />
    <glyph glyph-name="uni095D" unicode="&#x95d;" horiz-adv-x="488" 
d="M94 216q0 -43 47 -85q25 20 87.5 72t106.5 85q41 -4 77 -35.5t36 -59.5q0 -42 -84.5 -96t-144.5 -54t-121 52t-80 110q2 40 25 67q32 28 154 99.5t148 103.5l4 11q-13 24 -34.5 41t-67.5 46h-207l-12 11q7 24 25 35h558l12 -11q-7 -24 -25 -35h-269q63 -41 74 -69.5
t-10.5 -57.5t-73.5 -63.5t-101 -60.5q-124 -69 -124 -106zM337 233q-34 -22 -164 -126q22 -13 47 -21q120 24 161 104q-5 28 -44 43zM160.5 -33.5q14.5 14.5 35 14.5t35 -14.5t14.5 -35t-14.5 -35t-35 -14.5t-35 14.5t-14.5 35t14.5 35z" />
    <glyph glyph-name="uni095E" unicode="&#x95e;" horiz-adv-x="631" 
d="M606.5 486.5q33.5 -33.5 33.5 -81t-13.5 -84.5t-42.5 -72t-57.5 -61.5t-74.5 -63.5l-31 30q73 60 109 115t36 118.5t-50 78.5q-26 -25 -79 -75.5t-79 -75.5l-51 -315q-57 -7 -81 23l66 284l18 38l-7 7q-111 -104 -198 -178q-21 -2 -50 11.5t-42 33.5l101 354h-93l-12 11
q7 24 25 35h332l7 30q65 0 87 -30h289l12 -11q-7 -24 -25 -35h-297l-60 -132l-25 -65l6 -6q124 124 148 149q65 1 98.5 -32.5zM319 422l36 151h-143l-67 -142q-7 -30 -21 -90.5t-21 -90.5l9 -5q98 73 207 177zM69.5 104.5q14.5 14.5 35 14.5t35 -14.5t14.5 -35t-14.5 -35
t-35 -14.5t-35 14.5t-14.5 35t14.5 35z" />
    <glyph glyph-name="uni0960" unicode="&#x960;" horiz-adv-x="778" 
d="M142 480q35 0 97.5 -52t128.5 -126l9 9l-14 19l58 243h-400l-12 11q7 24 25 35h398l7 30q65 0 87 -30h393l12 -11q-7 -24 -25 -35h-401l-61 -132l-18 -109q38 26 76 58q-33 25 -27 47q79 58 129 46q29 -32 6 -77q25 -8 79 -13q27 -7 35.5 -38.5t-9.5 -57.5
q-32 -2 -83.5 -20t-90.5 -41q4 -16 13 -22q46 -2 85 17q24 -5 33 -32.5t-5 -43.5q-76 -15 -135 -74q12 -29 38 -44q42 8 70.5 24t58.5 46q16 0 24.5 -16t5.5 -30q-36 -29 -72.5 -43t-90.5 -18q-40 7 -62.5 34t-22.5 63q52 51 119 75l-6 8q-48 -17 -80 5.5t-26 69.5
q58 50 179 86l-1 10l-103 14l-146 -90l-44 -275q-57 -7 -81 23l36 153l28 38l-9 9q-47 -50 -138.5 -114t-183.5 -109q-50 25 -34 56q192 74 345 215q-63 71 -168 137l-26 -47q-77 7 -88 51q11 28 39.5 48t48.5 20z" />
    <glyph glyph-name="uni0961" unicode="&#x961;" horiz-adv-x="681" 
d="M37 248q0 37 38 96t93 93q40 10 83 5q34 -24 49 -54.5t21 -75.5q-4 -23 -16 -56l5 -3q92 66 199 185q25 0 47 -8q48 69 40 143h-570l-12 11q7 24 25 35h719l12 -11q-7 -24 -25 -35h-90q6 -81 -59 -169q22 -24 28 -46q-32 -117 -168 -180l4 -13q40 2 80 12q22 -8 30.5 -29
t-0.5 -37q-65 -25 -118 -71l9 -12q65 2 128 54q16 0 24.5 -16t5.5 -30q-30 -24 -75 -37.5t-89 -12.5q-33 7 -48 27.5t-11 44.5q47 43 117 69l-3 6q-57 -21 -85.5 4.5t-15.5 65.5q143 67 156 149q-4 9 -17 19.5t-23 10.5q-30 -38 -92.5 -94t-118.5 -97q-37 2 -56.5 16.5
t-18.5 32.5q22 38 27 71q-3 28 -19 53.5t-37 29.5q-44 -18 -73.5 -58.5t-35.5 -83.5q9 -63 37.5 -112t91.5 -87q8 -15 -4 -31t-43 -22q-62 43 -104 110.5t-42 137.5z" />
    <glyph glyph-name="uni0962" unicode="&#x962;" 
d="M-51 -222q-26 -17 -44.5 -17t-42 18.5t-23.5 35.5q0 20 52 50.5t59 46.5q3 23 -20 30q-24 -31 -74 -68q-19 -1 -36 9.5t-20 23.5q12 13 12 30q-9 11 -23 13q-34 -22 -44 -63q11 -61 61 -90q4 -9 -4.5 -20t-27.5 -12q-31 22 -51.5 54.5t-20.5 58.5t18.5 55t45.5 46
q19 5 45 3q36 -19 43 -44q0 -11 -8 -25l4 -3q27 19 69 70q31 0 51 -21.5t20 -45.5q-10 -24 -29 -40.5t-43.5 -30.5t-35.5 -24q5 -15 25 -26q23 13 38 41q17 3 25.5 -5t8.5 -21q-4 -12 -30 -29z" />
    <glyph glyph-name="uni0963" unicode="&#x963;" 
d="M-277 -181q-21 32 -21 58.5t19 55t45 46.5q21 6 46 3q12 -7 18 -10q16 -11 24 -35q0 -13 -8 -24l4 -3q35 27 70 71q28 -2 47 -19t24 -40q-10 -17 -31.5 -36t-48.5 -30l2 -4q22 0 49 10q12 -5 16.5 -17t0.5 -25q-34 -11 -66 -36l2 -6q37 4 72 31q10 0 15 -8.5t1 -17.5
q-35 -25 -88 -29q-38 12 -33 41q13 12 68 38l-1 3q-35 -13 -56 -1.5t-18 34.5q59 27 76 49q-7 23 -21 23q-32 -38 -74 -67q-20 -1 -37 10.5t-19 23.5q14 11 12 29q-7 10 -23 13q-29 -17 -44 -63q11 -59 61 -90q5 -10 -4.5 -20.5t-27.5 -11.5q-30 22 -51 54z" />
    <glyph glyph-name="uni0964" unicode="&#x964;" horiz-adv-x="353" 
d="M239 429l27 275q35 16 52 18t37 -14l-67 -291q-42 -309 -54 -416q-66 -9 -88 28q56 207 93 400z" />
    <glyph glyph-name="uni0965" unicode="&#x965;" horiz-adv-x="546" 
d="M239 429l27 275q35 16 52 18t37 -14l-67 -291q-42 -309 -54 -416q-66 -9 -88 28q56 207 93 400zM432 429l27 275q35 16 52 18t37 -14l-67 -291q-42 -309 -54 -416q-66 -9 -88 28q56 207 93 400z" />
    <glyph glyph-name="uni0966" unicode="&#x966;" horiz-adv-x="459" 
d="M290 521q-22 -1 -40 -12q-47 -33 -87.5 -90.5t-58.5 -125.5q11 -90 82 -151q78 19 124.5 62.5t60.5 101.5q6 48 -18 112.5t-63 102.5zM87.5 161.5q-49.5 69.5 -49.5 123.5t55.5 138t112.5 123q62 32 117 31q63 -63 86.5 -130t25.5 -160q-26 -80 -99.5 -137.5
t-158.5 -57.5q-40 0 -89.5 69.5z" />
    <glyph glyph-name="uni0967" unicode="&#x967;" horiz-adv-x="451" 
d="M300 664q46 0 72.5 -52.5t27.5 -111.5q0 -23 -99.5 -205.5t-98.5 -212.5q2 -21 23.5 -21t63.5 23.5t83 59.5q26 0 30 -15q2 -5 4 -20q-64 -69 -181 -109q-48 10 -72 32.5t-25 49.5q0 16 26.5 62.5t65 113.5t58.5 115l32 27l-8 11q-63 -35 -116 -51q-54 19 -87.5 51
t-37.5 72q28 68 99.5 124.5t139.5 56.5zM294 608q-42 0 -93 -42.5t-69 -83.5q8 -26 20.5 -40.5t38.5 -28.5q78 25 132 52q28 47 2 113q-12 30 -31 30z" />
    <glyph glyph-name="uni0968" unicode="&#x968;" horiz-adv-x="413" 
d="M283 663q60 0 102.5 -67t39.5 -130t-82 -136.5t-177 -106.5q35 -159 119 -235q5 -18 -8 -32.5t-42 -19.5q-96 132 -117 274q-16 -3 -44 -5q-52 43 -40 95q15 23 52.5 30t65.5 -13q2 -26 4 -38q163 58 213 185q-3 54 -22.5 88.5t-67.5 60.5q-88 -17 -145 -79
q-25 6 -35.5 21t-1.5 33q37 31 91 53t95 22z" />
    <glyph glyph-name="uni0969" unicode="&#x969;" horiz-adv-x="480" 
d="M259 309l-71 -28q-29 22 -37 55t9 55q7 0 36 -5t50 -5q87 44 123 78.5t48 89.5l-13 19q-13 19 -46 36q-93 -19 -176 -65q-46 17 -36 55q107 53 224 63q47 -14 75 -50t38 -75q-45 -124 -184 -175l6 -9q72 -22 99.5 -50t25.5 -64q-2 -50 -46 -96q-82 -84 -206 -110l-75 114
l-11 -11q9 -48 35.5 -126.5t35.5 -134.5q-6 -22 -60 -16q-32 198 -90 330q53 51 89 43q14 -17 48 -67.5t53 -72.5q68 20 119.5 60.5t53 74t-30 57t-86.5 30.5z" />
    <glyph glyph-name="uni096A" unicode="&#x96a;" horiz-adv-x="529" 
d="M228 47q38 13 60 29.5t40 46.5q4 135 -41 238q-89 -102 -140 -204q9 -49 42 -79q13 -11 39 -31zM548 656q36 4 32 -34q-155 -118 -248 -213q60 -130 59 -295q-49 -92 -162 -114q-63 20 -103 62t-46 97q68 132 181 253q-59 102 -184 190q17 46 49 52q115 -80 181 -196
q98 96 241 198z" />
    <glyph glyph-name="uni096B" unicode="&#x96b;" horiz-adv-x="432" 
d="M70.5 162.5q-44.5 46.5 -44.5 112t60 145t138.5 138t148.5 87.5q16 -2 26 -10.5t9 -20.5q-76 -45 -142 -97t-115.5 -119t-49.5 -124q0 -38 17.5 -62t58.5 -48q57 82 100.5 153.5t53.5 87.5q45 8 71.5 -6t28.5 -42q-69 -297 -145 -472q-49 2 -50 31q77 183 123 405l-11 5
q-35 -48 -144 -227q-89 17 -133.5 63.5z" />
    <glyph glyph-name="uni096C" unicode="&#x96c;" horiz-adv-x="480" 
d="M278 301l-63 28q-59 -15 -89.5 -47t-30.5 -71t30.5 -73t86.5 -51q77 84 113 140q36 8 89 -43q-58 -132 -90 -330q-54 -6 -60 16q9 56 35.5 134.5t35.5 126.5l-11 11l-95 -114q-93 18 -145 68.5t-52 105.5q0 113 150 170l8 9q-59 30 -86.5 65t-33.5 86q21 40 58.5 75.5
t87.5 49.5q116 -10 207 -63q0 -38 -50 -55q-70 45 -159 65q-44 -21 -73 -55q6 -60 23 -84.5t83 -63.5q21 0 51.5 5t37.5 5q10 -23 -6.5 -55.5t-51.5 -54.5z" />
    <glyph glyph-name="uni096D" unicode="&#x96d;" horiz-adv-x="553" 
d="M478 307l-109 -49q-50 20 -78 51.5t-33 63.5q-10 64 22 111q44 46 130 60q76 -22 105 -67t37 -122q-29 -105 -137 -224q-50 -55 -116 -92t-131 -39q-65 56 -97 136.5t-31 163.5q1 168 72 303q33 15 52 7t17 -34q-56 -87 -73 -234q-9 -74 11.5 -152.5t71.5 -137.5
q156 37 258 217l37 24zM382 309q38 12 114 40l1 -2q-4 60 -24.5 89.5t-73.5 56.5l-36 -10q-49 -31 -45 -88.5t64 -85.5z" />
    <glyph glyph-name="uni096E" unicode="&#x96e;" horiz-adv-x="508" 
d="M233 13q-66 0 -134.5 67.5t-77.5 144.5q48 95 158 211t223 194q20 -3 28 -30q-109 -90 -196 -189.5t-141 -189.5q19 -109 140 -155q66 31 111.5 73t93.5 106q20 -3 29.5 -10.5t8.5 -21.5q-40 -60 -116.5 -130t-126.5 -70z" />
    <glyph glyph-name="uni096F" unicode="&#x96f;" horiz-adv-x="339" 
d="M132.5 575.5q73.5 56.5 137.5 56.5t84.5 -67t-15.5 -162l-148 -84q67 -100 83 -130q11 -13 4 -39t-28 -45q-48 -46 -118 -93.5t-126 -68.5q-33 14 -21 43q147 71 236 160l4 16q-19 48 -93.5 156t-73.5 141q1 60 74.5 116.5zM168 352l117 71q24 42 21.5 91t-41.5 70
q-46 -6 -87.5 -39t-65.5 -90q14 -34 56 -103z" />
    <glyph glyph-name="uni0970" unicode="&#x970;" horiz-adv-x="284" 
d="M163 382q-52 -30 -64 -91q3 -46 33 -75q58 28 70 90q-7 44 -39 76zM170 407q23 0 50 -36t28 -67t-42 -70t-80 -39q-23 0 -48.5 26.5t-25.5 63.5t41 79.5t77 42.5z" />
    <glyph glyph-name="uni0972" unicode="&#x972;" horiz-adv-x="640" 
d="M649 684q-38 0 -82 58t-63 120q30 43 69 29q19 -121 82 -168q87 14 136 108q40 7 52 -34q-28 -44 -83.5 -78.5t-110.5 -34.5zM262 295q-39 21 -88 21q-17 8 -25 28t-1 41q20 6 44 17q62 27 96 65.5t39 97.5l-3 4q-39 8 -84.5 -10.5t-82.5 -58.5q-20 5 -34 19t-13 29
q87 86 199 86q77 -14 87 -86q-22 -127 -157 -183l2 -4q46 -10 82 -36q133 67 224 121l30 127h-109l-12 11q7 24 25 35h107l7 30q65 0 87 -30h99l12 -11q-7 -24 -25 -35h-107l-61 -132l-71 -441q-57 -7 -81 23l76 325l34 42l-10 11q-93 -56 -191 -110q19 -25 19 -47
q0 -50 -49.5 -101t-112 -80.5t-106.5 -29.5q-39 3 -74 30.5t-35 53.5q0 33 78 79q61 37 185 99zM116 86q43 0 116.5 48t73.5 96q0 12 -8 28q-194 -107 -218 -130q-8 -8 -8 -16t14.5 -17t29.5 -9z" />
    <glyph glyph-name="uni200B" unicode="&#x200b;" 
 />
    <glyph glyph-name="uni200C" unicode="&#x200c;" 
d="M24 -230h-47v1041h47v-1041z" />
    <glyph glyph-name="uni200D" unicode="&#x200d;" 
d="M24 -230h-47v865l-69 -73l-33 33l93 93l-95 95l33 33l95 -95l96 95l32 -32l-96 -96l96 -95l-33 -33l-72 75v-865z" />
    <glyph glyph-name="endash" unicode="&#x2013;" horiz-adv-x="626" 
d="M577 367q12 -7 8 -27.5t-23 -41.5l-492 -7q-23 23 11 65l249 -4z" />
    <glyph glyph-name="emdash" unicode="&#x2014;" horiz-adv-x="950" 
d="M901 367q12 -7 8 -27.5t-23 -41.5l-816 -7q-23 23 11 65l401 -4z" />
    <glyph glyph-name="quoteleft" unicode="&#x2018;" horiz-adv-x="284" 
d="M257 901q24 2 39 -15l-51 -94l29 -93q-20 -31 -53.5 -37t-52.5 16q-17 106 89 223z" />
    <glyph glyph-name="quoteright" unicode="&#x2019;" horiz-adv-x="297" 
d="M194 644q-25 -2 -36 15l61 94l-26 126q36 27 70 14t48 -52q-6 -51 -41 -105.5t-76 -91.5z" />
    <glyph glyph-name="quotesinglbase" unicode="&#x201a;" horiz-adv-x="260" 
d="M139 42q-16 -49 -61 -95.5t-92 -75.5q-25 6 -34 23l79 80v129q40 20 70.5 0.5t37.5 -61.5z" />
    <glyph glyph-name="quotedblleft" unicode="&#x201c;" horiz-adv-x="462" 
d="M257 901q24 2 39 -15l-51 -94l29 -93q-20 -31 -53.5 -37t-52.5 16q-17 106 89 223zM435 901q24 2 39 -15l-51 -94l29 -93q-20 -31 -53.5 -37t-52.5 16q-17 106 89 223z" />
    <glyph glyph-name="quotedblright" unicode="&#x201d;" horiz-adv-x="480" 
d="M377 644q-25 -2 -36 15l61 94l-26 126q36 27 70 14t48 -52q-6 -51 -41 -105.5t-76 -91.5zM194 644q-25 -2 -36 15l61 94l-26 126q36 27 70 14t48 -52q-6 -51 -41 -105.5t-76 -91.5z" />
    <glyph glyph-name="quotedblbase" unicode="&#x201e;" horiz-adv-x="427" 
d="M248 -26v129q40 20 70.5 0.5t37.5 -61.5q-16 -49 -61 -95.5t-92 -75.5q-25 6 -34 23zM26 -26v129q40 20 70.5 0.5t37.5 -61.5q-16 -49 -61 -95.5t-92 -75.5q-25 6 -34 23z" />
    <glyph glyph-name="dagger" unicode="&#x2020;" horiz-adv-x="432" 
d="M304 574l141 23q12 -6 8 -29.5t-23 -44.5l-138 4l-6 -23l-136 -765q-19 -16 -47 2l114 723l8 61l-135 -10q-11 10 -8 31t18 40l130 -18l28 223q27 16 56 17t48 -15z" />
    <glyph glyph-name="daggerdbl" unicode="&#x2021;" horiz-adv-x="432" 
d="M293 527l-60 -257l-33 -259l137 10q11 -11 8 -32t-19 -40l-132 19l-26 -223q-26 -16 -54.5 -17.5t-48.5 15.5l61 219l-144 -24q-12 7 -8 30.5t23 44.5l141 -4l55 246l34 270l-137 -10q-11 10 -8 31t18 40l132 -19l26 224q27 16 56 17t48 -15l-58 -219l141 23
q12 -6 8 -29.5t-23 -44.5z" />
    <glyph glyph-name="bullet" unicode="&#x2022;" horiz-adv-x="336" 
d="M235 301q-49 -30 -85.5 -30t-61 21.5t-30.5 56.5q5 50 48 98.5t88 53.5q33 0 70.5 -41t46.5 -87q-27 -42 -76 -72z" />
    <glyph glyph-name="ellipsis" unicode="&#x2026;" horiz-adv-x="642" 
d="M524.5 16.5q-26.5 -16.5 -46 -16.5t-32.5 12t-16 30q2 27 25 53t48 29q18 0 38 -22.5t25 -46.5q-15 -22 -41.5 -38.5zM308.5 16.5q-26.5 -16.5 -46 -16.5t-32.5 12t-16 30q2 27 25 53t48 29q18 0 38 -22.5t25 -46.5q-15 -22 -41.5 -38.5zM92.5 16.5
q-26.5 -16.5 -46 -16.5t-32.5 12t-16 30q2 27 25 53t48 29q18 0 38 -22.5t25 -46.5q-15 -22 -41.5 -38.5z" />
    <glyph glyph-name="perthousand" unicode="&#x2030;" horiz-adv-x="948" 
d="M325 377l227 454q58 7 76 -22l-502 -889q-48 -9 -68 18zM806 366q-57 -41 -79 -165q-14 -75 -9 -130q10 -28 40 -41q56 43 79 167q13 79 9 129q-10 31 -40 40zM846 50q-41 -55 -89.5 -55t-81 50.5t-16.5 145.5t58.5 155t91.5 59t80.5 -54t14.5 -149.5t-58 -151.5z
M514 366q-57 -41 -79 -165q-14 -77 -8 -130q8 -28 40 -41q55 43 78 167q13 79 9 129q-9 30 -40 40zM554.5 50q-41.5 -55 -90 -55t-81 50.5t-16.5 149.5q17 92 59 151.5t91 58.5t80.5 -54t15 -149.5t-58 -151.5zM262 649q-9 31 -40 40q-56 -41 -78 -165q-14 -75 -9 -130
q8 -27 40 -41q56 43 79 166q14 82 8 130zM263 373q-41 -55 -90 -55t-81 50t-16 145.5t58.5 155.5t91.5 59t80.5 -54t14.5 -149.5t-58 -151.5z" />
    <glyph glyph-name="guilsinglleft" unicode="&#x2039;" horiz-adv-x="340" 
d="M255 220q7 -26 -6.5 -49.5t-32.5 -23.5l-157 207q0 18 9 35l120 88l98 81q22 -8 25.5 -29t-15.5 -52l-180 -118l58 -66z" />
    <glyph glyph-name="guilsinglright" unicode="&#x203a;" horiz-adv-x="340" 
d="M114 485q-6 27 7 50t32 23l157 -207q0 -21 -9 -35l-120 -88l-98 -81q-48 18 -10 81l181 119l-59 66z" />
    <glyph glyph-name="fraction" unicode="&#x2044;" horiz-adv-x="457" 
d="M241 377l227 454q58 7 76 -22l-502 -889q-48 -9 -68 18z" />
    <glyph glyph-name="uni20A8" unicode="&#x20a8;" horiz-adv-x="952" 
d="M755 307q46 -21 89.5 -57.5t53.5 -77.5q-17 -78 -79.5 -123t-161.5 -49q-55 16 -98.5 61t-50.5 89q18 27 34.5 35.5t41.5 3.5q18 -94 81 -145q74 15 115 52t41 75q0 31 -121 83q-47 20 -90.5 52.5t-53.5 68.5q12 72 80 122t152 56q48 -21 78.5 -52.5t41.5 -86.5
q-3 -16 -23.5 -23.5t-56.5 -0.5q-3 60 -47 117q-53 -15 -99.5 -53t-46.5 -65t120 -82zM280 737q124 0 187.5 -51.5t63.5 -125t-37.5 -124t-121.5 -96.5q-79 -10 -131 -12q34 -98 87 -154.5t154 -100.5q10 -22 -5.5 -42.5t-49.5 -30.5q-93 59 -147.5 145t-71.5 182l-15 -1
q-12 -135 -43 -323q-19 -7 -49 -0.5t-46 22.5q31 112 44 176.5t19 90.5q12 60 29 163l29 211l-51 -3q-11 19 -9 36t15 22q69 16 149 16zM200 413q0 -20 -3 -44q82 3 157 23q53 35 74 70.5t21 93t-47 93t-142 28.5z" />
    <glyph glyph-name="Euro" unicode="&#x20ac;" horiz-adv-x="658" 
d="M132 290q-1 9 -1 34.5t6 58.5l-84 -7q-20 18 7 58l89 -2q15 50 40 108q48 64 122 121.5t154 82.5q57 -23 96.5 -65.5t51.5 -94.5q-38 -33 -85 -21q-12 38 -25 60.5t-42 55.5l-15 -1q-72 -38 -130 -102t-88 -138l221 31q26 -15 -11 -63l-226 -18q-8 -37 -8 -61t1 -32
l231 32q25 -14 -12 -62l-214 -17q13 -70 55.5 -114t118.5 -72q43 15 94 50.5t89 76.5q22 6 36 -9t12 -33q-28 -36 -91.5 -78t-128.5 -69q-222 58 -257 242l-98 -8q-22 19 8 59z" />
    <glyph glyph-name="uni20B9" unicode="&#x20b9;" horiz-adv-x="528" 
d="M261 678q19 22 50.5 22t58.5 -21l201 12q19 -15 -12 -57l-150 -2q28 -54 28 -103l106 6q19 -15 -12 -57l-100 -2q-21 -83 -97.5 -136t-176.5 -46l55 -128l154 -103q5 -25 -15 -44.5t-48 -18.5q-78 67 -136.5 146t-82.5 151q7 45 48 58q87 -22 178 26q37 43 47 94l-283 -4
q-16 19 8 54l218 -4l62 4q0 71 -33 105l-227 -3q-16 19 8 54z" />
    <glyph glyph-name="uni20BA" unicode="&#x20ba;" horiz-adv-x="446" 
d="M478 579.5q0 -19.5 -14 -45.5l-159 -37l-22 -83l178 52q12 -5 12 -24.5t-14 -45.5l-193 -45l-78 -286l88 11q78 28 165 110q33 4 46 -26t-8 -58q-96 -61 -277 -102q-48 11 -70 29t-29 53q49 106 93 252l-112 -26q-27 16 -2 66l132 25q12 42 21 81l-146 -34q-27 16 -2 66
l158 30l14 168q75 50 106 16l-43 -164l144 42q12 -5 12 -24.5z" />
    <glyph glyph-name="uni20BD" unicode="&#x20bd;" horiz-adv-x="532" 
d="M121 312q-51 -3 -82 -3q-20 21 -5 43q23 0 95 4l18 99l29 211l-51 -3q-11 19 -9 36t15 22q69 16 149 16q124 0 187.5 -51.5t63.5 -125t-37.5 -124t-121.5 -96.5q-66 -15 -180 -24q-2 -21 -11 -100l197 22q31 -19 -2 -58l-201 -12q-12 -88 -25 -165q-19 -7 -49 -0.5
t-46 22.5q21 74 36 139l-98 -6q-25 22 -3 54l112 2q5 25 19 98zM428 462.5q21 35.5 21 93t-47 93t-142 28.5l-60 -264q-2 -34 -4 -51q109 13 158 30q53 35 74 70.5z" />
    <glyph glyph-name="uni2113" unicode="&#x2113;" horiz-adv-x="371" 
d="M57 406l124 35q24 116 48 247q21 47 48 75.5t72 45.5q61 -24 68 -157q-47 -130 -173 -211q-8 -44 -18 -98q-15 -81 -45 -251l11 -7q27 15 106 75q13 1 18.5 -5.5t5.5 -20.5q-33 -37 -80 -75.5t-69 -58.5q-70 15 -78 57q45 186 78 345q-45 -22 -101 -43q-17 5 -21.5 18
t6.5 29zM325 755q-38 -105 -71 -260q89 80 111 160q0 68 -40 100z" />
    <glyph glyph-name="trademark" unicode="&#x2122;" horiz-adv-x="716" 
d="M676 730q22 5 44.5 5t31.5 -5l-41 -182q-2 -20 -12.5 -98t-15.5 -127q-49 -4 -63 18q37 152 55 261v15l-104 -179q-27 -6 -52 11q-37 69 -57 166l-13 -67q-3 -31 -13.5 -109.5t-14.5 -115.5q-19 -2 -39.5 2.5t-27.5 15.5q38 154 56 261l8 125q15 7 40 7t31 -7
q13 -137 41 -213l19 -26l71 114zM82 700q0 16 7 24q120 8 279 5q7 -4 4 -24t-13 -29l-96 9l-33 -144q-3 -33 -12.5 -106t-13.5 -112q-50 -4 -64 17q37 139 59 267l3 78l-110 -11q-10 10 -10 26z" />
    <glyph glyph-name="Omega" unicode="&#x2126;" horiz-adv-x="832" 
d="M195 296q0 -18 2 -32.5t8 -31.5t10.5 -29t14.5 -28q24 -38 38.5 -54.5t27 -30t13.5 -15.5q7 -45 -23 -65q-134 -32 -272 0q-17 47 19 71q102 -27 198 -16q-52 61 -81 134.5t-18 127.5q31 138 146.5 247.5t229.5 109.5q52 0 108 -50.5t88.5 -124t20 -141t-61.5 -152
t-118 -154.5q108 -1 192 30q34 -11 5 -67q-115 -36 -250 -19q-26 33 -22 54q170 169 199 317q-7 106 -43 163t-128 99q-104 -25 -194 -117q-109 -113 -109 -226z" />
    <glyph glyph-name="estimated" unicode="&#x212e;" horiz-adv-x="604" 
d="M135 310h337v147q-55 79 -167.5 79t-169.5 -90v-136zM556 118q-108 -118 -236.5 -118t-206 73.5t-77.5 203.5t72 215t198 85t199.5 -78t73.5 -186v-50h-444v-135q63 -87 179 -87q60 0 108.5 26.5t104.5 81.5z" />
    <glyph glyph-name="partialdiff" unicode="&#x2202;" horiz-adv-x="456" 
d="M414 408q0 -136 -50 -246.5t-157 -161.5q-85 17 -130 76t-45 150t59.5 180.5t167.5 129.5q67 -44 99 -110q-5 148 -64 237l-165 95q-1 22 6.5 31t26.5 14q252 -112 252 -395zM103 217q0 -119 99 -162q136 89 154 295q-25 48 -47.5 75.5t-61.5 48.5q-73 -42 -108.5 -109.5
t-35.5 -147.5z" />
    <glyph glyph-name="Delta" unicode="&#x2206;" horiz-adv-x="673" 
d="M432 698l168 -637q-9 -41 -40 -59l-515 -2q-20 11 -30.5 28t-7.5 33l354 645q47 11 71 -8zM73 59l130 -12l315 20l-139 575z" />
    <glyph glyph-name="product" unicode="&#x220f;" horiz-adv-x="550" 
d="M491 527q-34 -254 -2 -540q-21 -24 -84 -17q-8 184 11 383t53 318l-221 14q-22 -148 -75.5 -362t-105.5 -353q-58 -4 -80 31q70 149 105.5 252.5t70.5 251.5l17 174l-67 -9q-17 49 5 71l381 -23l101 15q18 -30 -8 -72l-60 2z" />
    <glyph glyph-name="summation" unicode="&#x2211;" horiz-adv-x="766" 
d="M214 88l-48 -51q169 -24 398 -8q45 65 50 115q59 14 97 -28q-1 -47 -29 -82.5t-79 -73.5q-256 -17 -471 2q-95 49 -54 116l215 148l115 126l-292 245q1 40 22 67.5t46 35.5q242 21 481 5q54 -22 74 -77q2 -73 -39 -125q-29 -7 -55 2.5t-41 27.5q28 48 36.5 69.5t9.5 40.5
q-253 21 -449 -4l258 -242q20 -52 -19 -112z" />
    <glyph glyph-name="minus" unicode="&#x2212;" horiz-adv-x="626" 
d="M577 367q12 -7 8 -27.5t-23 -41.5l-492 -7q-23 23 11 65l249 -4z" />
    <glyph glyph-name="uni2215" unicode="&#x2215;" horiz-adv-x="341" 
d="M235 472l136 408q29 9 50.5 0.5t26.5 -26.5l-390 -930q-54 -10 -70 30z" />
    <glyph glyph-name="uni2219" unicode="&#x2219;" horiz-adv-x="600" 
d="M325.5 237.5q-26.5 -16.5 -46 -16.5t-32.5 12t-16 30q2 27 25 53t48 29q18 0 38 -22.5t25 -46.5q-15 -22 -41.5 -38.5z" />
    <glyph glyph-name="radical" unicode="&#x221a;" horiz-adv-x="547" 
d="M442 556l73 345q55 12 70.5 10t30.5 -15l-369 -1097q-37 -19 -68.5 -16t-50.5 28q-22 52 -59 164.5t-47 141.5q17 34 54 16q20 -52 57 -149t52 -136z" />
    <glyph glyph-name="infinity" unicode="&#x221e;" horiz-adv-x="808" 
d="M665 507q46 0 90 -59.5t44 -122.5q0 -85 -68.5 -165t-190.5 -120q-97 55 -143 154q-67 -74 -120.5 -114t-111.5 -40t-103.5 55.5t-43.5 135t83.5 161t175.5 108.5q114 -47 163 -178q55 60 87 93t72 62.5t66 29.5zM79 218q0 -95 91 -136q45 11 101.5 62.5t136.5 141.5
q-54 112 -144 163q-81 -38 -133 -99.5t-52 -131.5zM744 322q0 90 -78 137q-39 -24 -86 -68t-71 -70t-79 -89q19 -45 52 -82.5t71 -52.5q69 25 130 92.5t61 132.5z" />
    <glyph glyph-name="integral" unicode="&#x222b;" horiz-adv-x="480" 
d="M359 817q-30 -550 -118 -904q-14 -16 -48 -27.5t-65 -9.5q-92 71 -113 151q28 58 73 36q16 -74 60 -127l21 10q60 174 112 638l5 248q17 20 30 32q34 30 94 39q47 -9 82.5 -54.5t37.5 -97.5q-20 -15 -44.5 -19.5t-40.5 5.5q-1 43 -12 65.5t-36 40.5q-10 1 -22 -7.5
t-16 -18.5z" />
    <glyph glyph-name="approxequal" unicode="&#x2248;" horiz-adv-x="600" 
d="M106 308q43 26 82 26t123.5 -38.5t106.5 -43.5h5l76 82q33 4 48 -6t17 -34q-17 -28 -62 -61.5t-83.5 -33.5t-123 40t-94.5 40t-24 -8.5t-23.5 -17.5t-25.5 -26t-22 -23q-58 5 -61 50q18 28 61 54zM130 465q43 26 82 26t123.5 -38.5t106.5 -43.5h5l76 82q33 4 48 -6
t17 -34q-17 -28 -62 -61.5t-83.5 -33.5t-123 40t-94.5 40t-24 -8.5t-23.5 -17.5t-25.5 -26t-22 -23q-58 5 -61 50q18 28 61 54z" />
    <glyph glyph-name="notequal" unicode="&#x2260;" horiz-adv-x="633" 
d="M582 406l-181 -3l-76 -135l241 15q12 -7 8 -27.5t-23 -41.5l-258 -4l-116 -208q-49 -9 -69 18l114 189l-163 -3q-22 22 11 66l189 -3l65 108l13 26l-246 -4q-23 23 10 65l250 -4l15 1l95 189q48 5 65 -22l-91 -163l162 10q12 -7 8 -27.5t-23 -41.5z" />
    <glyph glyph-name="lessequal" unicode="&#x2264;" horiz-adv-x="584" 
d="M499 156q10 -10 2.5 -29.5t-31.5 -33.5l-412 125q-8 12 -1.5 29.5t25.5 30.5l190 -68zM565 522l-414 -114l382 -97q4 -41 -31 -61l-198 56l-218 54q-13 19 -8 45t22 43l449 147q17 -12 21.5 -33.5t-5.5 -39.5z" />
    <glyph glyph-name="greaterequal" unicode="&#x2265;" horiz-adv-x="616" 
d="M75 125.5q0 18.5 13 30.5l247 54l216 68q15 -14 15 -30.5t-13 -29.5l-459 -125q-19 14 -19 32.5zM74 311l419 97l-253 92l-142 32q-4 22 7.5 39.5t35.5 25.5l418 -149q11 -15 5.5 -43t-25.5 -45l-238 -54l-220 -56q-27 19 -7 61z" />
    <glyph glyph-name="lozenge" unicode="&#x25ca;" horiz-adv-x="565" 
d="M206 319l62 -185l139 191l-70 188zM470 316l-180 -253q-37 -3 -67 23l-84 242l177 256q32 5 66 -22z" />
    <glyph glyph-name="uni25CC" unicode="&#x25cc;" horiz-adv-x="660" 
d="M257 560q0 20 12.5 32t31.5 12t31.5 -12t12.5 -32t-12.5 -32t-31.5 -12t-31.5 12t-12.5 32zM396 514q-13 13 -13 31.5t12.5 31.5t32 13t31.5 -12.5t12 -31.5t-12.5 -32t-31 -13t-31.5 13zM478 477q0 19 12.5 32t31.5 13t31.5 -12.5t12.5 -32t-12.5 -32t-31.5 -12.5
t-31.5 12.5t-12.5 31.5zM528 359q0 19 12 31.5t31.5 12.5t32 -12.5t12.5 -31.5t-12.5 -31.5t-32 -12.5t-31.5 12.5t-12 31.5zM518 225q0 19 13 32t31.5 13t31 -13t12.5 -32t-12.5 -31.5t-31 -12.5t-31.5 12.5t-13 31.5zM445 127q0 19 12.5 31.5t31.5 12.5t32 -12.5t13 -31.5
t-13 -31.5t-32 -12.5t-31.5 12.5t-12.5 31.5zM324 74q0 20 12 32t32 12t32.5 -12.5t12.5 -31.5t-12.5 -31.5t-32.5 -12.5t-32 12t-12 32zM210 57q-13 13 -13 32t13 32t32 13t31.5 -13t12.5 -32t-12.5 -32t-31.5 -13t-32 13zM96 165q0 19 12.5 31.5t31.5 12.5t31.5 -12.5
t12.5 -31.5t-12.5 -31.5t-32 -12.5t-31.5 12.5t-12 31.5zM44 281q0 19 12.5 32t31.5 13t31.5 -12.5t12.5 -32t-12.5 -31.5t-31.5 -12t-31.5 12t-12.5 31zM57 407q0 19 13 31.5t32 12.5t32 -12.5t13 -31.5t-13 -31.5t-32 -12.5t-32 12.5t-13 31.5zM151.5 484.5
q-12.5 12.5 -12.5 32t12.5 32t31.5 12.5t31.5 -12.5t12.5 -32t-12.5 -32t-31.5 -12.5t-31.5 12.5z" />
    <glyph glyph-name="uF01B5" unicode="&#xf01b5;" horiz-adv-x="604" 
d="M360 325q-35 0 -85 29q-65 -47 -171 -104q-41 -35 -12 -113q63 -37 125 -45q14 18 46 69t39 62q30 2 47.5 -7.5t35.5 -36.5q-15 -37 -57.5 -163.5t-59.5 -172.5q-56 -3 -73 31q29 49 69.5 139.5t55.5 138.5l-7 4l-76 -123q-58 5 -111.5 24t-80.5 40q-32 45 -33 98.5
t34 85.5q115 55 185 104q-43 34 -71.5 73t-28.5 73q0 46 59.5 102t117.5 56q44 0 82 -53.5t38 -90.5q0 -67 -109 -157q21 -10 46.5 -10t68.5 17t76 44l31 134h-62l-12 11q7 24 25 35h60l7 30q65 0 87 -30h99l12 -11q-7 -24 -25 -35h-107l-61 -132l-71 -441q-57 -7 -81 23
l72 305l33 41l-6 8q-84 -52 -151 -52zM199 531q19 -69 73 -115q75 62 98 123q-14 72 -63 100q-33 -4 -66.5 -38.5t-41.5 -69.5z" />
    <glyph glyph-name="uF01B6" unicode="&#xf01b6;" horiz-adv-x="533" 
d="M306 322q0 -51 -65.5 -95.5t-155.5 -48.5l-4 -6q58 -78 162 -125q11 -36 -33 -47q-60 29 -116.5 83.5t-88.5 104.5q5 28 24 44t41 16q7 -14 22 -31q71 11 112 40t41 63q0 22 -18.5 35t-50.5 9q-17 14 -16 31q0 32 39 52q85 -24 137 -22q72 36 119 83l15 65h-489l-12 11
q7 24 25 35h487l7 30q65 0 87 -30h99l12 -11q-7 -24 -25 -35h-107l-61 -132l-71 -441q-57 -7 -81 23l89 379l35 47l-6 7q-57 -51 -111 -77q-52 -4 -93 10l-2 -7q53 -22 53 -60z" />
    <glyph glyph-name="uF01B7" unicode="&#xf01b7;" horiz-adv-x="470" 
d="M62.5 137.5q-33.5 31.5 -33.5 92t26 124.5t70.5 107t92.5 43q19 0 36.5 -14.5t25 -26.5t25.5 -41l2 1l35 150h-321l-12 11q7 24 25 35h319l7 30q65 0 87 -30h175l12 -11q-7 -24 -25 -35h-181l-83 -201l7 -5q21 25 58.5 70.5t46.5 55.5q72 8 103 -23.5t34 -79.5l-71 -46
q10 37 -5 69t-48 32q-14 -17 -62 -71.5t-66 -76.5l-48 -297q-57 -7 -81 23l32 137l37 75l-11 7q-74 -88 -115 -140q-60 4 -93.5 35.5zM222 453q-39 0 -79 -72t-40 -153q0 -60 35 -77q89 93 142 160l13 54q-34 88 -71 88z" />
    <glyph glyph-name="uF01B8" unicode="&#xf01b8;" horiz-adv-x="530" 
d="M379 573q29 -35 29 -79t-49 -98t-118 -88t-128 -34l-5 -8q78 -96 114.5 -126t62.5 -30q57 0 187 79l-3 5q-33 0 -55.5 25t-22.5 62.5t18.5 88t58 92t83 41.5t63.5 -38.5t36 -114.5l-15 -50q-33 -84 -148.5 -159t-209.5 -93q-64 12 -117 62q-49 47 -86.5 92.5t-49.5 59.5
q21 69 70 73l11 -10q93 10 161 59t68 110q0 24 -17 48t-40.5 24t-54 -15t-52.5 -41q-34 7 -36 33q7 12 27 30h-140l-12 11q7 24 25 35h677l12 -11q-7 -24 -25 -35h-319zM559 452q-37 0 -67.5 -64.5t-30.5 -111.5q0 -20 12.5 -33.5t33 -13.5t50.5 30t43 66l8 36
q-15 91 -49 91z" />
    <glyph glyph-name="uF01B9" unicode="&#xf01b9;" horiz-adv-x="274" 
d="M437 619l12 -11q-7 -24 -25 -35h-156q-32 -214 -75 -379q-23 -23 -54 -33q-99 9 -138 81q2 37 24 52q72 44 153 101q5 26 11 78l-8 100h-161l-12 11q7 24 25 35h404zM119 220l9 7q20 48 37 109q-70 -48 -105 -71q23 -33 59 -45z" />
    <glyph glyph-name="uF01BA" unicode="&#xf01ba;" horiz-adv-x="346" 
d="M529 619l12 -11q-7 -24 -25 -35h-199q-140 -86 -225 -184l6 -9q53 5 130 30q21 -1 36 -20.5t20 -48.5q-113 -95 -167 -173l7 -7q86 33 172.5 102t139.5 138l45 -37q-50 -72 -163 -157t-191 -106q-32 11 -53.5 32.5t-21.5 45.5q80 100 170 171l-4 5q-75 -24 -133 -31
q-25 11 -41 35t-14 48q65 82 191 166h-200l-12 11q7 24 25 35h495z" />
    <glyph glyph-name="uF01BB" unicode="&#xf01bb;" horiz-adv-x="426" 
d="M567 619l12 -11q-7 -24 -25 -35h-243q46 -29 71 -66q2 -14 -4.5 -33t-20.5 -32q-38 -26 -124.5 -56t-108.5 -41l-1 -6q31 -22 124 -54.5t128 -59.5q9 -20 2 -54t-19 -45q-44 -37 -143 -67.5t-188 -41.5q-42 36 -18 63q216 19 317 97l1 7q-34 26 -134 60.5t-136 66.5
q-6 68 30 85q175 50 233 91l2 7q-22 35 -109 79h-192l-12 11q7 24 25 35h533zM394 389q17 0 29.5 -12.5t12.5 -29.5t-12.5 -29.5t-29.5 -12.5t-29.5 12.5t-12.5 29.5t12.5 29.5t29.5 12.5zM93 -19q71 -25 146 -74.5t125 -106.5q3 -16 -19 -23q-75 56 -137 88.5t-151 59.5
q-1 49 36 56z" />
    <glyph glyph-name="uF01BC" unicode="&#xf01bc;" horiz-adv-x="404" 
d="M179 281q0 -21 28 -44t55 -23q40 0 117 63t118 135l36 -31q-66 -94 -149.5 -162.5t-148.5 -68.5q-46 0 -95.5 42.5t-49.5 80.5q0 28 50 57q62 34 138 67l-1 7q-157 -19 -233 -14q-9 15 -10.5 41t7.5 35q146 -25 287 -17q9 -3 15.5 -27t4.5 -40q-169 -68 -169 -101z
M569 573h-548l-12 11q7 24 25 35h548l12 -11q-7 -24 -25 -35z" />
    <glyph glyph-name="uF01BD" unicode="&#xf01bd;" horiz-adv-x="580" 
d="M670 619l12 -11q-7 -24 -25 -35h-333q-101 -60 -222 -196l8 -14q28 2 136 28q63 -17 52 -74q-43 -37 -87.5 -94.5t-66.5 -103.5l9 -8q134 34 248 149q-48 98 -37 174q11 21 36.5 42t52.5 23q28 -7 57 -36t33 -59q-15 -97 -145 -210.5t-246 -143.5q-34 13 -56.5 34.5
t-19.5 45.5q77 141 161 200l-4 5q-95 -28 -138 -31q-26 14 -43 39.5t-14 48.5q33 41 89 91.5t114 89.5h-215l-12 11q7 24 25 35h631zM419 422q-10 -62 16 -125q45 56 52 102q-14 35 -43 47q-22 -13 -25 -24z" />
    <glyph glyph-name="uF01BE" unicode="&#xf01be;" horiz-adv-x="422" 
d="M171 118q-55 0 -91.5 64.5t-29.5 135.5q4 36 27.5 75.5t62.5 62.5q32 6 45 -33q-58 -49 -64 -103q-12 -112 59 -147q46 12 84.5 52.5t41.5 73.5q2 15 -11 25t-31 16q6 29 25.5 50.5t39.5 20.5q18 -19 54 -37q74 6 143 85l40 -36q-113 -106 -189 -102l-25 12l-5 -6l17 -23
q-5 -66 -76.5 -126t-116.5 -60zM591 573h-574l-12 11q7 24 25 35h574l12 -11q-7 -24 -25 -35z" />
    <glyph glyph-name="uF01BF" unicode="&#xf01bf;" horiz-adv-x="458" 
d="M393 201q0 -52 -72 -102q-80 -54 -170 -39q-38 15 -76 46l-5 -5q94 -104 167 -212q0 -13 -15 -22.5t-34 -11.5q-67 114 -191 247q15 31 40 53t49 15q33 -36 86 -57q55 0 95.5 21t62.5 54l-1 7q-9 21 -60.5 37t-113.5 36.5t-90 51.5q0 24 9.5 50t25.5 37q7 3 99.5 32
t120.5 46l2 4q-22 34 -101 84h-200l-12 11q7 24 25 35h603l12 -11q-7 -24 -25 -35h-306q47 -31 72 -68q0 -43 -25 -65q-32 -18 -121.5 -48.5t-104.5 -36.5l-3 -10q18 -17 66 -34t79 -21q68 28 146.5 70t129.5 80l37 -36q-123 -84 -255 -141q54 -22 54 -62z" />
    <glyph glyph-name="uF01C0" unicode="&#xf01c0;" horiz-adv-x="383" 
d="M569 619l12 -11q-7 -24 -25 -35h-535l-12 11q7 24 25 35h535zM490 456l24 -55q-65 -57 -177 -106q-17 -76 -79 -130t-130 -50q-28 2 -57 43.5t-39 96.5q34 21 55 10q19 -82 53 -98q42 7 87 51.5t48 105.5q3 46 -11.5 74.5t-54.5 45.5q-53 -5 -106 -49q-39 21 -35 46
q75 59 145 55q56 -4 89.5 -46t38.5 -98q114 55 149 104z" />
    <glyph glyph-name="uF01C1" unicode="&#xf01c1;" horiz-adv-x="456" 
d="M329 489q-19 34 -106 84h-192l-12 11q7 24 25 35h532l12 -11q-7 -24 -25 -35h-249q51 -32 77 -76q-2 -29 -20 -53q-33 -28 -113.5 -77.5t-93.5 -58.5q-74 -50 -73 -87q2 -65 101 -105q108 12 186 111q40 0 47 -42q-34 -42 -101.5 -78t-140.5 -38q-71 15 -119.5 58.5
t-48.5 91.5q0 35 25.5 63t59.5 49.5t84 50.5q103 59 144 100zM96 30q71 -25 146 -74.5t125 -106.5q3 -16 -19 -23q-75 56 -137 88.5t-151 59.5q-1 49 36 56z" />
    <glyph glyph-name="uF01C2" unicode="&#xf01c2;" horiz-adv-x="514" 
d="M13 224q0 35 32.5 66.5t74.5 57.5t93 53.5t78.5 47t42.5 40.5l2 9q-22 36 -92 75h-216l-12 11q7 24 25 35h572l12 -11q-7 -24 -25 -35h-269q51 -33 68 -71q-4 -29 -25 -54q-31 -24 -70 -47q58 -22 111.5 -58t69.5 -75q-4 -89 -90.5 -150.5t-185.5 -68.5
q-79 11 -137.5 62.5t-58.5 112.5zM109 167q36 -49 103 -74q79 9 140.5 61t65.5 108q-39 54 -160 111q-97 -58 -113.5 -72t-31.5 -27q-26 -24 -26 -50.5t22 -56.5zM176 -19q71 -25 146 -74.5t125 -106.5q3 -16 -19 -23q-75 56 -137 88.5t-151 59.5q-1 49 36 56z" />
    <glyph glyph-name="uF01C3" unicode="&#xf01c3;" horiz-adv-x="426" 
d="M567 619l12 -11q-7 -24 -25 -35h-243q46 -29 71 -66q2 -14 -4.5 -33t-20.5 -32q-38 -26 -124.5 -56t-108.5 -41l-1 -6q31 -22 124 -54.5t128 -59.5q9 -20 2 -54t-19 -45q-44 -37 -143 -67.5t-188 -41.5q-42 36 -18 63q216 19 317 97l1 7q-34 26 -134 60.5t-136 66.5
q-6 68 30 85q175 50 233 91l2 7q-22 35 -109 79h-192l-12 11q7 24 25 35h533zM86 -19q71 -25 146 -74.5t125 -106.5q3 -16 -19 -23q-75 56 -137 88.5t-151 59.5q-1 49 36 56z" />
    <glyph glyph-name="uF01C4" unicode="&#xf01c4;" horiz-adv-x="488" 
d="M94 216q0 -43 47 -85q25 20 87.5 72t106.5 85q41 -4 77 -35.5t36 -59.5q0 -42 -84.5 -96t-144.5 -54t-121 52t-80 110q2 40 25 67q32 28 154 99.5t148 103.5l4 11q-13 24 -34.5 41t-67.5 46h-207l-12 11q7 24 25 35h558l12 -11q-7 -24 -25 -35h-269q63 -41 74 -69.5
t-10.5 -57.5t-73.5 -63.5t-101 -60.5q-124 -69 -124 -106zM337 233q-34 -22 -164 -126q22 -13 47 -21q120 24 161 104q-5 28 -44 43zM136 -19q71 -25 146 -74.5t125 -106.5q3 -16 -19 -23q-75 56 -137 88.5t-151 59.5q-1 49 36 56z" />
    <glyph glyph-name="uF01C5" unicode="&#xf01c5;" horiz-adv-x="400" 
d="M297 228.5q-64 -44.5 -111.5 -44.5t-91 58t-43.5 112q0 37 38 98.5t96 120.5h-164l-12 11q7 24 25 35h510l12 -11q-7 -24 -25 -35h-183q51 -105 40 -224q-27 -76 -91 -120.5zM279 573h-17q-53 -44 -93.5 -108t-47.5 -116q9 -82 68 -114q48 15 87 51t49 84q0 89 -46 203z
" />
    <glyph glyph-name="uF01C6" unicode="&#xf01c6;" horiz-adv-x="291" 
d="M389 430l24 -38q-54 -37 -149 -75.5t-160 -55.5q-16 -19 -21 -43q23 -89 122 -184q0 -27 -43 -37q-62 55 -98 104t-54 113q6 34 24.5 66t47.5 44q153 22 307 106zM465 573h-444l-12 11q7 24 25 35h444l12 -11q-7 -24 -25 -35z" />
    <glyph glyph-name="uF01C7" unicode="&#xf01c7;" horiz-adv-x="335" 
d="M548 619l12 -11q-7 -24 -25 -35h-123l-12 11q7 24 25 35h123zM144 478q-52 36 -52 72.5t53.5 87.5t107.5 51q40 0 72.5 -38t34.5 -80q-2 -38 -30 -77t-67 -70.5t-77.5 -59t-65.5 -50.5t-27 -40.5t26.5 -40t55.5 -22.5q51 0 131.5 68.5t123.5 140.5l39 -33
q-62 -91 -149 -160t-150 -69q-49 0 -97.5 41t-48.5 82q0 26 28.5 53.5t88.5 68t83 58.5zM262 496q35 40 35 67.5t-17 50t-38.5 22.5t-55.5 -30t-34 -48t19 -35z" />
    <glyph glyph-name="uF01C8" unicode="&#xf01c8;" horiz-adv-x="469" 
d="M353 214q-135 -171 -136 -173q-81 13 -141.5 63t-60.5 108q0 37 42 76t95 68q153 82 186 128l2 7q-15 32 -95 82h-220l-12 11q7 24 25 35h527l12 -11q-7 -24 -25 -35h-221q57 -38 74 -71q7 -28 -22 -70q-26 -24 -98.5 -66t-129.5 -82.5t-69 -75.5q12 -33 43.5 -61
t69.5 -38q19 21 145 171q51 5 83 -47q-38 -89 -126 -379q-53 0 -61 29q14 39 41 112q65 175 77 216zM101 -114q63 -15 131.5 -51t116.5 -80q8 -17 -15 -27q-69 42 -125 64t-136 37q-6 48 28 57z" />
    <glyph glyph-name="uF01C9" unicode="&#xf01c9;" horiz-adv-x="373" 
d="M574 619l12 -11q-7 -24 -25 -35h-127l-12 11q7 24 25 35h127zM124 168l7 -7q77 28 180 102.5t152 137.5l40 -33q-48 -71 -165.5 -155.5t-203.5 -111.5q-32 11 -53.5 32.5t-21.5 45.5q82 103 175 176l-4 5q-58 -26 -128 -35q-30 15 -52.5 42t-19.5 53q24 63 110.5 148
t184.5 122q25 2 46 -19t29 -58q-18 -60 -93 -118t-148 -79l-61 10q-6 -12 -8 -18q1 -17 20 -28q53 4 130 35q21 -1 36 -20.5t20 -48.5q-117 -99 -172 -178zM117 458l37 7q50 12 110.5 60t77.5 92q-3 16 -16 19q-52 -25 -112.5 -75.5t-96.5 -102.5z" />
    <glyph glyph-name="uF01CA" unicode="&#xf01ca;" horiz-adv-x="302" 
d="M545 619l12 -11q-7 -24 -25 -35h-511l-12 11q7 24 25 35h511zM425 542l30 -28q-106 -78 -264 -177q22 -60 19 -137q-24 -24 -61 -36q-94 9 -135 78q5 36 25 55q26 16 119 71q173 102 267 174zM138 220l9 7q8 41 -1 81q-48 -30 -72 -46q25 -32 64 -42z" />
    <glyph glyph-name="uF01CB" unicode="&#xf01cb;" horiz-adv-x="258" 
d="M431 619l12 -11q-7 -24 -25 -35h-206l-67 -143q-6 -30 -17 -91.5t-17 -92.5l9 -5q132 101 240 206l27 -29q-145 -140 -274 -248q-21 -2 -50 11.5t-42 33.5q72 270 94 358h-94l-12 11q7 24 25 35h397z" />
    <glyph glyph-name="uF01CC" unicode="&#xf01cc;" horiz-adv-x="523" 
d="M626 402l-56 -36q10 37 -5 69t-48 32q-24 -21 -82 -79t-77 -76l-51 -312q-57 -7 -81 23l66 284l18 38l-7 7q-111 -104 -198 -178q-21 -2 -50 11.5t-42 33.5l101 354h-93l-12 11q7 24 25 35h332l7 30q65 0 87 -30h136l12 -11q-7 -24 -25 -35h-144l-60 -132l-25 -65l7 -7
q136 139 143 146q115 7 122 -113zM103 250l9 -5q98 73 207 177l36 151h-143l-67 -142q-7 -30 -21 -90.5t-21 -90.5z" />
    <glyph glyph-name="uF01CD" unicode="&#xf01cd;" horiz-adv-x="211" 
d="M398 619l12 -11q-7 -24 -25 -35h-364l-12 11q7 24 25 35h364zM309 300q-112 -132 -170 -198q-60 4 -93.5 35.5t-33.5 90.5q0 99 59.5 187.5t141.5 88.5q48 0 79 -56q12 -24 29 -65l-28 -21q-34 91 -76 91q-36 0 -68 -40q48 -67 103 -127l29 30zM86 228q0 -60 35 -77
q99 102 100 103q-53 56 -98 120q-37 -66 -37 -146z" />
    <glyph glyph-name="uF01CE" unicode="&#xf01ce;" horiz-adv-x="326" 
d="M527 619l12 -11q-7 -24 -25 -35h-121l-12 11q7 24 25 35h121zM90.5 467.5q-29.5 20.5 -29.5 40t19 38.5q36 22 90.5 65.5t85.5 76.5q18 2 42 -7t32 -21q-14 -61 -49 -230q88 56 169 113l29 -28q-90 -63 -210 -140q-26 -125 -39 -181q-19 -19 -62 -33q-99 9 -138 81
q2 37 24 52q65 36 151 88q9 33 15 65l13 27l-6 7l-78 -34q-29 0 -58.5 20.5zM146 491l87 24q19 91 21 100l-3 2l-132 -108q9 -14 27 -18zM148 220l9 5q17 47 32 99q-41 -27 -99 -61q22 -31 58 -43z" />
    <glyph glyph-name="uF01CF" unicode="&#xf01cf;" horiz-adv-x="287" 
d="M487 619l12 -11q-7 -24 -25 -35h-208q-12 -78 -24 -140q82 52 168 110l30 -28q-93 -62 -208 -136q-19 -96 -41 -185q-23 -23 -54 -33q-99 9 -138 81q2 37 23.5 51t73 46.5t79.5 50.5q7 38 12 83l-8 100h-158l-12 11q7 24 25 35h453zM117 220l9 7q20 48 36 106l-104 -67
q22 -34 59 -46z" />
    <glyph glyph-name="uF01D0" unicode="&#xf01d0;" horiz-adv-x="329" 
d="M348 539q0 -36 -41 -79t-90 -74q-131 -85 -131 -116q0 -20 27.5 -44.5t54.5 -24.5q40 0 127 70.5t127 141.5l33 -28q-50 -83 -144 -158.5t-153 -75.5q-40 0 -91 43.5t-51 75.5t41 67t90 64t90 66.5t41 68.5q0 14 -14.5 23t-31.5 9q-48 0 -112 -52q-35 9 -32 34
q11 12 26 23h-93l-12 11q7 24 25 35h484l12 -11q-7 -24 -25 -35h-171q14 -16 14 -34z" />
    <glyph glyph-name="uF01D1" unicode="&#xf01d1;" horiz-adv-x="359" 
d="M316 500q0 23 -18 44.5t-42 21.5q-55 0 -104 -56q-34 7 -36 33q7 12 27 30h-122l-12 11q7 24 25 35h466l12 -11q-7 -24 -25 -35h-125q28 -36 28 -73q-1 -54 -50 -108.5t-117.5 -87t-127.5 -32.5l-5 -8q109 -133 195 -229q-5 -17 -16.5 -26.5t-22.5 -8.5q-27 28 -115 127
t-125 135q21 69 70 73q16 -6 35 -5q66 3 135.5 53.5t69.5 116.5zM44 -19q71 -25 146 -74.5t125 -106.5q3 -16 -19 -23q-75 56 -137 88.5t-151 59.5q-1 49 36 56z" />
    <glyph glyph-name="uF01D2" unicode="&#xf01d2;" horiz-adv-x="402" 
d="M107 239q0 -109 121 -193q-5 -18 -21 -32t-34 -17q-70 53 -108 123t-38 133q0 44 41 101.5t83 79.5q16 6 47 8.5t49 -0.5q29 -17 47 -49q30 -55 16 -110l5 -4q111 84 191 183l20 -70q-3 -3 -62 -57q-115 -107 -160 -140q-18 -2 -45 10.5t-35 26.5q31 52 24 93.5t-50 58.5
q-43 -22 -67 -60.5t-24 -84.5zM572 573h-551l-12 11q7 24 25 35h551l12 -11q-7 -24 -25 -35z" />
    <glyph glyph-name="uF01D3" unicode="&#xf01d3;" horiz-adv-x="223" 
d="M405 573h-384l-12 11q7 24 25 35h384l12 -11q-7 -24 -25 -35zM321 300l-160 -198q-67 4 -104 42.5t-37 103.5q0 97 59.5 176.5t142.5 79.5q44 0 71 -42q22 -33 40 -79l-28 -21q-34 91 -79 91q-49 0 -90.5 -62t-41.5 -139t49 -101l150 165z" />
    <glyph glyph-name="uF01D4" unicode="&#xf01d4;" horiz-adv-x="387" 
d="M114 552q0 35 53.5 86t105 51t85.5 -50t34 -114q0 -96 -89 -172t-206 -81l-5 -8q109 -133 195 -229q-5 -17 -16.5 -26.5t-22.5 -8.5q-27 28 -115 127t-125 135q21 69 70 73q68 -19 148 33q50 32 78 78l-123 18q-22 12 -44.5 40.5t-22.5 47.5zM320 483q6 19 6 53t-15.5 67
t-42 33t-60.5 -30t-34 -51q0 -11 11.5 -25.5t22.5 -21.5z" />
    <glyph glyph-name="uF01D5" unicode="&#xf01d5;" horiz-adv-x="258" 
d="M431 619l12 -11q-7 -24 -25 -35h-206l-16 -35q60 -79 117 -135q27 24 47 44l27 -29q-145 -140 -274 -248q-21 -2 -50 11.5t-42 33.5q72 270 94 358h-94l-12 11q7 24 25 35h397zM111 246l9 -5q73 56 159 132q-55 55 -106 118l-28 -61q-6 -30 -17 -91.5t-17 -92.5z" />
    <glyph glyph-name="uF01D6" unicode="&#xf01d6;" horiz-adv-x="420" 
d="M360 573q29 -35 29 -76.5t-40.5 -91t-100.5 -85.5q14 -8 20 -8q37 0 124.5 40.5t128.5 90.5l28 -38q-40 -51 -139.5 -97.5t-147.5 -46.5q-11 0 -64 33q-56 -23 -104 -22l-5 -8q109 -133 195 -229q-5 -17 -16.5 -26.5t-22.5 -8.5q-27 28 -115 127t-125 135q21 69 70 73
q19 -9 50 -4q65 9 127.5 58t62.5 105q0 24 -17 48t-37 24q-61 0 -110 -56q-34 7 -36 33q7 12 27 30h-121l-12 11q7 24 25 35h567l12 -11q-7 -24 -25 -35h-228z" />
    <glyph glyph-name="uF01D7" unicode="&#xf01d7;" horiz-adv-x="457" 
d="M241 199q33 30 33 50.5t-31 20.5q-45 0 -99 -33t-69 -85q6 -42 46 -76t100 -43q80 8 134 59q33 -2 38 -46q-23 -24 -73 -42t-99 -21q-80 3 -145.5 55.5t-65.5 116t75.5 110.5t168.5 43l3 6q-14 9 -55.5 28t-66.5 25q-11 17 1.5 49.5t31.5 40.5q143 5 214 55l2 7
q-15 26 -70 54h-248l-12 11q7 24 25 35h470l12 -11q-7 -24 -25 -35h-141q28 -22 38 -50q1 -36 -31 -62q-75 -41 -206 -55l-2 -8q93 -45 119.5 -68t27.5 -48q0 -54 -50 -111q-20 -1 -34.5 8t-15.5 20zM86 -19q71 -25 146 -74.5t125 -106.5q3 -16 -19 -23q-75 56 -137 88.5
t-151 59.5q-1 49 36 56z" />
    <glyph glyph-name="uF01D8" unicode="&#xf01d8;" horiz-adv-x="744" 
d="M885 619l12 -11q-7 -24 -25 -35h-852l-12 11q7 24 25 35h852zM613 440q33 0 59 -52t26 -103q0 -93 -64.5 -179t-159.5 -106q-63 30 -128 121q-87 -83 -175 -121q-71 15 -117 65t-46 110t76 143.5t165 92.5q82 -92 122 -189q27 29 70.5 79.5t65.5 74t52 44t54 20.5z
M167 55q88 50 171 133q-46 93 -106 161q-57 -22 -103.5 -76.5t-53.5 -104.5q13 -84 92 -113zM595 150q43 62 43 118t-30 109q-33 -18 -67.5 -50t-84 -88t-74.5 -82q49 -68 104 -101q66 32 109 94z" />
    <glyph glyph-name="uF01D9" unicode="&#xf01d9;" horiz-adv-x="411" 
d="M449.5 345.5q-50.5 -20.5 -87.5 -20.5t-87 29q-65 -47 -171 -104q-41 -35 -12 -113q63 -37 125 -45q14 18 46 69t39 62q30 2 47.5 -7.5t35.5 -36.5q-15 -37 -57.5 -163.5t-59.5 -172.5q-56 -3 -73 31q29 49 69.5 139.5t55.5 138.5l-7 4l-76 -123q-58 5 -111.5 24
t-80.5 40q-32 45 -33 98.5t34 85.5q115 55 185 104q-43 34 -71.5 73t-28.5 73q0 46 59.5 102t117.5 56q44 0 82 -53.5t38 -90.5q0 -67 -109 -157q21 -10 46.5 -10t68.5 17t76 44l27 -43q-37 -30 -87.5 -50.5zM199 531q19 -69 73 -115q75 62 98 123q-14 72 -63 100
q-33 -4 -66.5 -38.5t-41.5 -69.5z" />
    <glyph glyph-name="uF01DA" unicode="&#xf01da;" horiz-adv-x="340" 
d="M245 320q0 22 -18.5 35t-50.5 9q-17 14 -16 31q0 32 39 52q85 -24 137 -22q72 36 120 84l29 -28q-61 -65 -137 -102q-52 -4 -93 10l-2 -7q53 -22 53 -60q0 -51 -65.5 -95.5t-155.5 -48.5l-4 -6q58 -78 162 -125q11 -36 -33 -47q-60 29 -116.5 83.5t-88.5 104.5
q5 28 24 44t41 16q7 -14 22 -31q71 11 112 40t41 63zM540 573h-559l-12 11q7 24 25 35h559l12 -11q-7 -24 -25 -35z" />
    <glyph glyph-name="uF01DB" unicode="&#xf01db;" horiz-adv-x="470" 
d="M62.5 137.5q-33.5 31.5 -33.5 92t26 124.5t70.5 107t92.5 43q19 0 36.5 -14.5t25 -26.5t25.5 -41l2 1l35 150h-321l-12 11q7 24 25 35h319l7 30q65 0 87 -30h175l12 -11q-7 -24 -25 -35h-181l-83 -201l7 -5q21 25 58.5 70.5t46.5 55.5q72 8 103 -23.5t34 -79.5l-71 -46
q10 37 -5 69t-48 32q-14 -17 -62 -71.5t-66 -76.5l-48 -297q-57 -7 -81 23l32 137l37 75l-11 7q-74 -88 -115 -140q-60 4 -93.5 35.5zM222 453q-39 0 -79 -72t-40 -153q0 -60 35 -77q89 93 142 160l13 54q-34 88 -71 88zM50.5 64.5q14.5 14.5 35 14.5t35 -14.5t14.5 -35
t-14.5 -35t-35 -14.5t-35 14.5t-14.5 35t14.5 35z" />
    <glyph glyph-name="uF01DC" unicode="&#xf01dc;" horiz-adv-x="530" 
d="M379 573q29 -35 29 -79t-49 -98t-118 -88t-128 -34l-5 -8q78 -96 114.5 -126t62.5 -30q57 0 187 79l-3 5q-33 0 -55.5 25t-22.5 62.5t18.5 88t58 92t83 41.5t63.5 -38.5t36 -114.5l-15 -50q-33 -84 -148.5 -159t-209.5 -93q-64 12 -117 62q-49 47 -86.5 92.5t-49.5 59.5
q21 69 70 73l11 -10q93 10 161 59t68 110q0 24 -17 48t-40.5 24t-54 -15t-52.5 -41q-34 7 -36 33q7 12 27 30h-140l-12 11q7 24 25 35h677l12 -11q-7 -24 -25 -35h-319zM559 452q-37 0 -67.5 -64.5t-30.5 -111.5q0 -20 12.5 -33.5t33 -13.5t50.5 30t43 66l8 36
q-15 91 -49 91zM49.5 64.5q14.5 14.5 35 14.5t35 -14.5t14.5 -35t-14.5 -35t-35 -14.5t-35 14.5t-14.5 35t14.5 35z" />
    <glyph glyph-name="uF01DD" unicode="&#xf01dd;" horiz-adv-x="274" 
d="M437 619l12 -11q-7 -24 -25 -35h-156q-32 -214 -75 -379q-23 -23 -54 -33q-99 9 -138 81q2 37 24 52q72 44 153 101q5 26 11 78l-8 100h-161l-12 11q7 24 25 35h404zM119 220l9 7q20 48 37 109q-70 -48 -105 -71q23 -33 59 -45zM32.5 64.5q14.5 14.5 35 14.5t35 -14.5
t14.5 -35t-14.5 -35t-35 -14.5t-35 14.5t-14.5 35t14.5 35z" />
    <glyph glyph-name="uF01DE" unicode="&#xf01de;" horiz-adv-x="422" 
d="M112.5 -5.5q-14.5 -14.5 -35 -14.5t-35 14.5t-14.5 35t14.5 35t35 14.5t35 -14.5t14.5 -35t-14.5 -35zM171 118q-55 0 -91.5 64.5t-29.5 135.5q4 36 27.5 75.5t62.5 62.5q32 6 45 -33q-58 -49 -64 -103q-12 -112 59 -147q46 12 84.5 52.5t41.5 73.5q2 15 -11 25t-31 16
q6 29 25.5 50.5t39.5 20.5q18 -19 54 -37q74 6 143 85l40 -36q-113 -106 -189 -102l-25 12l-5 -6l17 -23q-5 -66 -76.5 -126t-116.5 -60zM591 573h-574l-12 11q7 24 25 35h574l12 -11q-7 -24 -25 -35z" />
    <glyph glyph-name="uF01DF" unicode="&#xf01df;" horiz-adv-x="523" 
d="M626 402l-56 -36q10 37 -5 69t-48 32q-24 -21 -82 -79t-77 -76l-51 -312q-57 -7 -81 23l66 284l18 38l-7 7q-111 -104 -198 -178q-21 -2 -50 11.5t-42 33.5l101 354h-93l-12 11q7 24 25 35h332l7 30q65 0 87 -30h136l12 -11q-7 -24 -25 -35h-144l-60 -132l-25 -65l7 -7
q136 139 143 146q115 7 122 -113zM103 250l9 -5q98 73 207 177l36 151h-143l-67 -142q-7 -30 -21 -90.5t-21 -90.5zM69.5 104.5q14.5 14.5 35 14.5t35 -14.5t14.5 -35t-14.5 -35t-35 -14.5t-35 14.5t-14.5 35t14.5 35z" />
    <glyph glyph-name="uF01E0" unicode="&#xf01e0;" horiz-adv-x="1648" 
d="M1327 224v185h196v-185h-196zM1327 449v185h196v-185h-196zM1091 0v634h196v-634h-196zM855 449v185h196v-185h-196zM619 0v634h196v-634h-196zM383 449v185h196v-185h-196zM147 0v634h196v-634h-196z" />
    <glyph glyph-name="uF01E1" unicode="&#xf01e1;" 
d="M-99 852q41 88 104 93q35 -6 68 -25t51 -42q4 -35 -51 -49q-31 44 -83 57l-12 -10q3 -75 46 -174q-6 -18 -36 -18q-35 84 -87 168z" />
    <glyph glyph-name="uF01E2" unicode="&#xf01e2;" horiz-adv-x="203" 
d="M106 239q-65 20 -92 56q9 62 74 55q19 -40 39 -61q75 21 139 52l13 -27q-69 -48 -173 -75zM333 573h-352l-12 11q7 24 25 35h352l12 -11q-7 -24 -25 -35z" />
    <glyph glyph-name="uF01E3" unicode="&#xf01e3;" 
d="M-146 -199q3 -27 -35 -34q-70 75 -63 165l-5 3q-67 -55 -97 -168q-33 -2 -48.5 11.5t-14.5 32.5q80 127 149 169q33 0 60 -27q3 -54 13.5 -85t40.5 -67z" />
    <glyph glyph-name="uF01E4" unicode="&#xf01e4;" horiz-adv-x="602" 
d="M594 386q0 -141 -169 -285q-33 13 -31 30q126 116 126 248q0 61 -50 66q-14 -17 -61.5 -71t-65.5 -76l-49 -298q-57 -7 -81 23l39 97l-7 4q-69 -78 -165 -144q-24 15 -30.5 27.5t-3.5 28.5q142 82 225 176l-11 13q-44 -38 -121 -95q-105 17 -105 126q0 84 58 166t126 82
q19 0 36.5 -14.5t25 -26.5t25.5 -41l2 1l35 150h-321l-12 11q7 24 25 35h319l7 30q65 0 87 -30h296l12 -11q-7 -24 -25 -35h-302l-83 -201l7 -5q21 25 58.5 70.5t46.5 55.5q62 9 99.5 -20t37.5 -87zM293 365q-34 88 -71.5 88t-75 -67t-37.5 -125t29 -77q61 37 132 95z" />
    <glyph glyph-name="uF01E5" unicode="&#xf01e5;" horiz-adv-x="731" 
d="M334 494q0 24 -17 48t-40.5 24t-54 -15t-52.5 -41q-34 7 -36 33q7 12 27 30h-140l-12 11q7 24 25 35h638l7 30q65 0 87 -30h106l12 -11q-7 -24 -25 -35h-114l-61 -132l-71 -441q-57 -7 -81 23l54 144l-7 4q-39 -46 -112 -98.5t-148 -92.5q-24 15 -30.5 27.5t-3.5 28.5
q215 86 318 218l-10 9q-36 -47 -156.5 -106.5t-189.5 -68.5q-48 12 -90 46q-17 13 -26.5 20.5t-28 25.5t-24.5 25q-46 49 -54 57q21 69 70 73l11 -10q93 10 161 59t68 110zM559 452q-29 0 -59 -48t-30 -88q0 -21 12.5 -34t33.5 -13t48 19t42 50l6 27q-6 33 -20.5 60
t-32.5 27zM379 573q29 -35 29 -79t-49 -98t-118 -88t-128 -34l-5 -8q106 -116 147 -116q33 0 110 29t115 53l-3 5q-34 0 -55.5 23t-21.5 59q0 52 46 118t110 66q47 0 70 -67l3 1l32 136h-282z" />
    <glyph glyph-name="uF01E6" unicode="&#xf01e6;" horiz-adv-x="465" 
d="M606 619l12 -11q-7 -24 -25 -35h-105l-61 -132l-71 -441q-57 -7 -81 23l54 144l-7 4q-39 -46 -112 -98.5t-148 -92.5q-24 15 -30.5 27.5t-3.5 28.5q172 71 298 203l78 334h-136q-32 -214 -75 -379q-23 -23 -54 -33q-99 9 -138 81q2 37 24 52q72 44 153 101q5 26 11 78
l-8 100h-161l-12 11q7 24 25 35h382l7 30q65 0 87 -30h97zM119 220l9 7q20 48 37 109q-70 -48 -105 -71q23 -33 59 -45z" />
    <glyph glyph-name="uF01E7" unicode="&#xf01e7;" horiz-adv-x="539" 
d="M680 619l12 -11q-7 -24 -25 -35h-107l-61 -132l-71 -441q-57 -7 -81 23l54 144l-7 4q-39 -46 -112 -98.5t-148 -92.5q-24 15 -30.5 27.5t-3.5 28.5q105 43 197.5 112t135.5 142l-8 8q-65 -65 -151.5 -123t-146.5 -74q-32 11 -53.5 32.5t-21.5 45.5q80 100 170 171l-4 5
q-75 -24 -133 -31q-25 11 -41 35t-14 48q65 82 191 166h-200l-12 11q7 24 25 35h453l7 30q65 0 87 -30h99zM435 400l41 173h-159q-140 -86 -225 -184l6 -9q53 5 130 30q21 -1 36 -20.5t20 -48.5q-113 -95 -167 -173l7 -7q86 33 172 101.5t139 137.5z" />
    <glyph glyph-name="uF01E8" unicode="&#xf01e8;" horiz-adv-x="426" 
d="M567 619l12 -11q-7 -24 -25 -35h-243q46 -29 71 -66q2 -14 -4.5 -33t-20.5 -32q-38 -26 -124.5 -56t-108.5 -41l-1 -6q31 -22 124 -54.5t128 -59.5q9 -20 2 -54t-19 -45q-44 -37 -143 -67.5t-188 -41.5q-42 36 -18 63q216 19 317 97l1 7q-34 26 -134 60.5t-136 66.5
q-6 68 30 85q175 50 233 91l2 7q-22 35 -109 79h-192l-12 11q7 24 25 35h533zM394 389q17 0 29.5 -12.5t12.5 -29.5t-12.5 -29.5t-29.5 -12.5t-29.5 12.5t-12.5 29.5t12.5 29.5t29.5 12.5zM170 -68l-5 3q-67 -55 -97 -168q-33 -2 -48.5 11.5t-14.5 32.5q80 127 149 169
q33 0 60 -27q3 -54 13.5 -85t40.5 -67q3 -27 -35 -34q-70 75 -63 165z" />
    <glyph glyph-name="uF01E9" unicode="&#xf01e9;" horiz-adv-x="597" 
d="M353 196q-66 -46 -115 -46t-98.5 42.5t-49.5 80.5q0 28 50 57q62 34 138 67l-1 7q-157 -19 -233 -14q-9 15 -10.5 41t7.5 35q146 -25 287 -17q9 -3 15.5 -27t4.5 -40q-169 -68 -169 -101q0 -21 28 -44t55 -23q40 0 116 62.5t118 133.5l38 163h-513l-12 11q7 24 25 35h511
l7 30q65 0 87 -30h99l12 -11q-7 -24 -25 -35h-107l-61 -132l-71 -441q-57 -7 -81 23l54 144l-7 4q-39 -46 -112 -98.5t-148 -92.5q-24 15 -30.5 27.5t-3.5 28.5q109 45 208.5 119.5t125.5 147.5l-12 10q-61 -71 -127 -117z" />
    <glyph glyph-name="uF01EA" unicode="&#xf01ea;" horiz-adv-x="580" 
d="M670 619l12 -11q-7 -24 -25 -35h-313q-67 -37 -133 -92.5t-109 -103.5l8 -14q28 2 136 28q63 -17 52 -74q-100 -86 -169 -189l11 -9q63 18 139.5 65t135.5 102q-40 87 -32 162q12 20 40 42.5t55 21.5q32 -13 60 -42.5t27 -55.5q-3 -62 -89 -148q39 -86 44 -102
q-10 -49 -45.5 -112.5t-75.5 -106.5q-49 0 -47 36q93 83 118 182q-10 28 -23 56q-48 -77 -124 -157q-40 -43 -122 -125q-29 10 -38.5 21.5t-9.5 30.5q60 38 126 96.5t106 108.5l-5 6q-41 -36 -113.5 -80t-126.5 -62q-32 13 -54.5 34.5t-21.5 46.5q96 137 173 191l-4 5
q-95 -28 -138 -31q-26 14 -43 39.5t-14 48.5q33 41 89 91.5t114 89.5h-215l-12 11q7 24 25 35h631zM463 455q-19 -7 -32 -26q0 -45 22 -106q49 55 50 89q1 10 -12 23t-28 20z" />
    <glyph glyph-name="uF01EB" unicode="&#xf01eb;" horiz-adv-x="620" 
d="M279 178q-65 -60 -115 -60t-93.5 64.5t-43.5 135.5q0 35 19 74.5t56 63.5q32 6 49 -33q-54 -49 -54 -103q0 -113 75 -147q44 12 78.5 52.5t34.5 73.5q0 26 -47 41q4 29 21 50.5t37 20.5q25 -23 67 -37q45 4 90.5 26.5t76.5 57.5l27 115h-536l-12 11q7 24 25 35h534l7 30
q65 0 87 -30h99l12 -11q-7 -24 -25 -35h-107l-61 -132l-71 -441q-57 -7 -81 23l54 144l-7 4q-39 -46 -112 -98.5t-148 -92.5q-24 15 -30.5 27.5t-3.5 28.5q174 72 299 203l15 69q7 13 20.5 37t20.5 37l-7 6q-100 -71 -172 -67l-25 12l-5 -6l15 -23q2 -66 -63 -126z" />
    <glyph glyph-name="uF01EC" unicode="&#xf01ec;" horiz-adv-x="651" 
d="M393 197q0 -35 -73 -78.5t-115 -43.5q-78 0 -130 49l-5 -5q46 -51 167 -230q0 -13 -15 -22.5t-34 -11.5q-99 168 -191 267q15 31 40 53t49 15q43 -59 119 -59q28 0 66 20t58 44v8q-15 18 -67 32t-110 33.5t-87 51.5q0 24 9.5 50t25.5 37q6 3 99.5 32t121.5 46l1 5
q-22 34 -101 83h-200l-12 11q7 24 25 35h565l7 30q65 0 87 -30h99l12 -11q-7 -24 -25 -35h-107l-61 -132l-71 -441q-57 -7 -81 23l54 144l-7 4q-39 -46 -112 -98.5t-148 -92.5q-24 15 -30.5 27.5t-3.5 28.5q174 72 299 203l21 92l32 39l-7 9q-111 -70 -218 -116
q27 -11 44 -28q10 -19 10 -38zM557 440l31 133h-270q47 -31 72 -68q0 -43 -25 -65q-33 -21 -124.5 -48.5t-103.5 -36.5l-2 -6q13 -17 63.5 -36t82.5 -23q68 28 146.5 70t129.5 80z" />
    <glyph glyph-name="uF01ED" unicode="&#xf01ed;" horiz-adv-x="576" 
d="M717 619l12 -11q-7 -24 -25 -35h-107l-61 -132l-71 -441q-57 -7 -81 23l54 144l-7 4q-39 -46 -112 -98.5t-148 -92.5q-24 15 -30.5 27.5t-3.5 28.5q174 72 299 203l20 87l31 37l-7 12q-58 -42 -143 -80q-17 -76 -79 -130t-130 -50q-28 2 -57 43.5t-39 96.5q34 21 55 10
q19 -82 53 -98q42 7 87 51.5t48 105.5q3 46 -11.5 74.5t-54.5 45.5q-53 -5 -106 -49q-39 21 -35 46q75 59 145 55q56 -4 89.5 -46t38.5 -98q101 48 142 96l30 125h-492l-12 11q7 24 25 35h490l7 30q65 0 87 -30h99z" />
    <glyph glyph-name="uF01EE" unicode="&#xf01ee;" horiz-adv-x="456" 
d="M329 489q-19 34 -106 84h-192l-12 11q7 24 25 35h532l12 -11q-7 -24 -25 -35h-249q51 -32 77 -76q-2 -29 -20 -53q-33 -28 -113.5 -77.5t-93.5 -58.5q-74 -50 -73 -87q2 -65 101 -105q108 12 186 111q40 0 47 -42q-34 -42 -101.5 -78t-140.5 -38q-71 15 -119.5 58.5
t-48.5 91.5q0 35 25.5 63t59.5 49.5t84 50.5q103 59 144 100zM211 -40l-5 3q-67 -55 -97 -168q-33 -2 -48.5 11.5t-14.5 32.5q80 127 149 169q33 0 60 -27q3 -54 13.5 -85t40.5 -67q3 -27 -35 -34q-70 75 -63 165z" />
    <glyph glyph-name="uF01EF" unicode="&#xf01ef;" horiz-adv-x="514" 
d="M13 224q0 35 32.5 66.5t74.5 57.5t93 53.5t78.5 47t42.5 40.5l2 9q-22 36 -92 75h-216l-12 11q7 24 25 35h572l12 -11q-7 -24 -25 -35h-269q51 -33 68 -71q-4 -29 -25 -54q-31 -24 -70 -47q58 -22 111.5 -58t69.5 -75q-4 -89 -90.5 -150.5t-185.5 -68.5
q-79 11 -137.5 62.5t-58.5 112.5zM109 167q36 -49 103 -74q79 9 140.5 61t65.5 108q-39 54 -160 111q-97 -58 -113.5 -72t-31.5 -27q-26 -24 -26 -50.5t22 -56.5zM225 -18l-5 3q-67 -55 -97 -168q-33 -2 -48.5 11.5t-14.5 32.5q80 127 149 169q33 0 60 -27q3 -54 13.5 -85
t40.5 -67q3 -27 -35 -34q-70 75 -63 165z" />
    <glyph glyph-name="uF01F0" unicode="&#xf01f0;" horiz-adv-x="426" 
d="M567 619l12 -11q-7 -24 -25 -35h-243q46 -29 71 -66q2 -14 -4.5 -33t-20.5 -32q-38 -26 -124.5 -56t-108.5 -41l-1 -6q31 -22 124 -54.5t128 -59.5q9 -20 2 -54t-19 -45q-44 -37 -143 -67.5t-188 -41.5q-42 36 -18 63q216 19 317 97l1 7q-34 26 -134 60.5t-136 66.5
q-6 68 30 85q175 50 233 91l2 7q-22 35 -109 79h-192l-12 11q7 24 25 35h533zM170 -68l-5 3q-67 -55 -97 -168q-33 -2 -48.5 11.5t-14.5 32.5q80 127 149 169q33 0 60 -27q3 -54 13.5 -85t40.5 -67q3 -27 -35 -34q-70 75 -63 165z" />
    <glyph glyph-name="uF01F1" unicode="&#xf01f1;" horiz-adv-x="488" 
d="M94 216q0 -43 47 -85q25 20 87.5 72t106.5 85q41 -4 77 -35.5t36 -59.5q0 -42 -84.5 -96t-144.5 -54t-121 52t-80 110q2 40 25 67q32 28 154 99.5t148 103.5l4 11q-13 24 -34.5 41t-67.5 46h-207l-12 11q7 24 25 35h558l12 -11q-7 -24 -25 -35h-269q63 -41 74 -69.5
t-10.5 -57.5t-73.5 -63.5t-101 -60.5q-124 -69 -124 -106zM337 233q-34 -22 -164 -126q22 -13 47 -21q120 24 161 104q-5 28 -44 43zM227 -68l-5 3q-67 -55 -97 -168q-33 -2 -48.5 11.5t-14.5 32.5q80 127 149 169q33 0 60 -27q3 -54 13.5 -85t40.5 -67q3 -27 -35 -34
q-70 75 -63 165z" />
    <glyph glyph-name="uF01F2" unicode="&#xf01f2;" horiz-adv-x="593" 
d="M298 228.5q-64 -44.5 -111.5 -44.5t-91 58t-43.5 112q0 37 38 98.5t96 120.5h-164l-12 11q7 24 25 35h506l7 30q65 0 87 -30h99l12 -11q-7 -24 -25 -35h-107l-61 -132l-71 -441q-57 -7 -81 23l54 144l-7 4q-39 -46 -112 -98.5t-148 -92.5q-24 15 -30.5 27.5t-3.5 28.5
q172 71 298 203l78 334h-181q51 -105 40 -224q-27 -76 -91 -120.5zM280 573h-17q-53 -44 -93.5 -108t-47.5 -116q9 -82 68 -114q48 15 87 51t49 84q0 89 -46 203z" />
    <glyph glyph-name="uF01F3" unicode="&#xf01f3;" horiz-adv-x="484" 
d="M142 480q35 0 97.5 -52t128.5 -126l9 9l-14 19l58 243h-400l-12 11q7 24 25 35h398l7 30q65 0 87 -30h99l12 -11q-7 -24 -25 -35h-107l-61 -132l-71 -441q-57 -7 -81 23l36 153l28 38l-9 9q-47 -50 -138.5 -114t-183.5 -109q-50 25 -34 56q192 74 345 215
q-63 71 -168 137l-26 -47q-77 7 -88 51q11 28 39.5 48t48.5 20z" />
    <glyph glyph-name="uF01F4" unicode="&#xf01f4;" horiz-adv-x="528" 
d="M285 201.5q-65 -43.5 -114.5 -43.5t-98 41t-48.5 82q0 26 29 54t88.5 68t82.5 59q-46 5 -80 16q-52 36 -52 72.5t53.5 87.5t107.5 51q40 0 72.5 -38t34.5 -80q-2 -38 -30 -77t-67 -70.5t-77.5 -59t-65.5 -50.5t-27 -40.5t26.5 -40t55.5 -22.5q51 0 130.5 67.5
t123.5 139.5l36 155h-53l-12 11q7 24 25 35h51l7 30q65 0 87 -30h99l12 -11q-7 -24 -25 -35h-107l-61 -132l-71 -441q-57 -7 -81 23l54 144l-7 4q-39 -46 -112 -98.5t-148 -92.5q-24 15 -30.5 27.5t-3.5 28.5q164 68 299 209l32 60l-9 8q-61 -68 -126 -111.5zM186 606
q-34 -30 -34 -48t19 -35q32 -16 94 -24q32 39 32 65.5t-17 49t-38.5 22.5t-55.5 -30z" />
    <glyph glyph-name="uF01F5" unicode="&#xf01f5;" horiz-adv-x="469" 
d="M353 214q-135 -171 -136 -173q-81 13 -141.5 63t-60.5 108q0 37 42 76t95 68q153 82 186 128l2 7q-15 32 -95 82h-220l-12 11q7 24 25 35h527l12 -11q-7 -24 -25 -35h-221q57 -38 74 -71q7 -28 -22 -70q-26 -24 -98.5 -66t-129.5 -82.5t-69 -75.5q12 -33 43.5 -61
t69.5 -38q19 21 145 171q51 5 83 -47q-59 -137 -150 -466q-53 0 -61 29q19 61 62 182q-125 -75 -217 -164q-27 9 -36 20t-7 28q108 84 288 196q41 118 52 153z" />
    <glyph glyph-name="uF01F6" unicode="&#xf01f6;" horiz-adv-x="566" 
d="M707 619l12 -11q-7 -24 -25 -35h-107l-61 -132l-71 -441q-57 -7 -81 23l54 144l-7 4q-39 -46 -112 -98.5t-148 -92.5q-24 15 -30.5 27.5t-3.5 28.5q174 72 299 203l36 62l-10 8q-65 -65 -157.5 -126t-160.5 -82q-32 11 -53.5 32.5t-21.5 45.5q82 103 175 176l-4 5
q-58 -26 -128 -35q-30 15 -52.5 42t-19.5 53q24 63 110.5 148t184.5 122q25 2 46 -19t29 -58q-18 -60 -93 -118t-148 -79l-61 10q-6 -12 -8 -18q1 -17 20 -28q53 4 130 35q21 -1 36 -20.5t20 -48.5q-117 -99 -172 -178l7 -7q77 27 179.5 101.5t152.5 138.5l40 172h-69
l-12 11q7 24 25 35h67l7 30q65 0 87 -30h99zM117 458l37 7q50 12 110.5 60t77.5 92q-3 16 -16 19q-52 -25 -112.5 -75.5t-96.5 -102.5z" />
    <glyph glyph-name="uF01F7" unicode="&#xf01f7;" horiz-adv-x="454" 
d="M595 619l12 -11q-7 -24 -25 -35h-561l-12 11q7 24 25 35h561zM370 480l-7 4q-97 -76 -173 -133q28 -62 25 -151q-24 -24 -61 -36q-99 9 -138 81q5 36 24 52q202 140 333 246q54 -3 84 -36l-49 -107l-65 -400q-57 -7 -81 23l54 144l-7 4q-39 -46 -112 -98.5t-148 -92.5
q-24 15 -30.5 27.5t-3.5 28.5q174 72 299 203zM143 220l9 7q9 43 -3 94q-26 -19 -74 -53q25 -36 68 -48z" />
    <glyph glyph-name="uF01F8" unicode="&#xf01f8;" horiz-adv-x="451" 
d="M592 619l12 -11q-7 -24 -25 -35h-107l-61 -132l-71 -441q-57 -7 -81 23l54 144l-7 4q-39 -46 -112 -98.5t-148 -92.5q-24 15 -30.5 27.5t-3.5 28.5q172 71 297 202l22 94l20 38l-9 6q-129 -121 -229 -206q-21 -2 -50 11.5t-42 33.5q72 270 94 358h-94l-12 11q7 24 25 35
h365l7 30q65 0 87 -30h99zM358 445l30 128h-176l-67 -142q-5 -31 -17 -92.5t-17 -92.5l9 -5q130 100 238 204z" />
    <glyph glyph-name="uF01F9" unicode="&#xf01f9;" horiz-adv-x="631" 
d="M606.5 486.5q33.5 -33.5 33.5 -81t-13.5 -84.5t-42.5 -72t-57.5 -61.5t-74.5 -63.5l-31 30q73 60 109 115t36 118.5t-50 78.5q-26 -25 -79 -75.5t-79 -75.5l-51 -315q-57 -7 -81 23l54 144l-7 4q-39 -46 -112 -98.5t-148 -92.5q-24 15 -30.5 27.5t-3.5 28.5
q172 71 297 202l16 69l18 38l-7 7q-111 -104 -198 -178q-21 -2 -50 11.5t-42 33.5l101 354h-93l-12 11q7 24 25 35h332l7 30q65 0 87 -30h289l12 -11q-7 -24 -25 -35h-297l-61 -132l-24 -65l6 -6q124 124 148 149q65 1 98.5 -32.5zM319 422l36 151h-143l-67 -142
q-7 -30 -21 -90.5t-21 -90.5l9 -5q98 73 207 177z" />
    <glyph glyph-name="uF01FA" unicode="&#xf01fa;" horiz-adv-x="404" 
d="M16 261q0 83 61 163t136 80q54 0 92 -84l2 1l35 152h-321l-12 11q7 24 25 35h318l7 30q65 0 87 -30h99l12 -11q-7 -24 -25 -35h-107l-61 -132l-71 -441q-57 -7 -81 23l54 144l-7 4q-39 -46 -112 -98.5t-148 -92.5q-24 15 -30.5 27.5t-3.5 28.5q96 40 189.5 107.5
t145.5 140.5l-11 8l-177 -153q-48 12 -72 44.5t-24 77.5zM119 375q-30 -52 -30 -101.5t32 -71.5l86 69q-48 51 -88 104zM217 453q-35 0 -69 -39q49 -68 94 -115l43 35l7 30q-34 89 -75 89z" />
    <glyph glyph-name="uF01FB" unicode="&#xf01fb;" horiz-adv-x="502" 
d="M603 619l12 -11q-7 -24 -25 -35h-197l-12 11q7 24 25 35h197zM90.5 467.5q-29.5 20.5 -29.5 40t19 38.5q36 22 90.5 65.5t85.5 76.5q18 2 42 -7t32 -21q-26 -117 -47 -222q91 62 144 105q54 -3 84 -36l-49 -107l-65 -400q-57 -7 -81 23l54 144l-7 4q-39 -46 -112 -98.5
t-148 -92.5q-24 15 -30.5 27.5t-3.5 28.5q174 72 299 203l56 241l-8 4q-53 -39 -145 -102q-33 -151 -41 -188q-19 -19 -62 -33q-99 9 -138 81q2 37 24 52q10 6 153 95q1 4 13 58l13 27l-6 7l-78 -34q-29 0 -58.5 20.5zM146 491l87 24q19 91 21 100l-3 2l-132 -108
q9 -14 27 -18zM148 220l9 5q12 33 34 105l-102 -65q21 -31 59 -45z" />
    <glyph glyph-name="uF01FC" unicode="&#xf01fc;" horiz-adv-x="476" 
d="M617 619l12 -11q-7 -24 -25 -35h-338q-9 -56 -23 -137q67 45 153 107q54 -3 84 -36l-49 -107l-65 -400q-57 -7 -81 23l54 144l-7 4q-39 -46 -112 -98.5t-148 -92.5q-24 15 -30.5 27.5t-3.5 28.5q174 72 299 203l56 241l-10 5q-88 -62 -151 -104q-24 -121 -41 -187
q-23 -23 -54 -33q-99 9 -138 81q2 37 24 52q112 71 152 98q7 39 12 81l-8 100h-158l-12 11q7 24 25 35h583zM162 334l-104 -68q22 -34 59 -46l9 7q22 53 36 107z" />
    </font>
</defs>
</svg>
